<svg width="329" height="345" viewBox="0 0 329 345" fill="none" xmlns="http://www.w3.org/2000/svg">
<g style="mix-blend-mode:luminosity" opacity="0.45" filter="url(#filter0_d_238_641)">
<path d="M81.0344 118.919C79.2866 111.291 79.4089 103.651 81.7311 96.185C82.6845 93.1197 84.6645 90.333 86.3512 87.0704C85.4712 85.2475 84.2611 82.9021 83.1856 80.4986C82.0611 77.9674 82.0122 75.4711 83.4178 72.9283C83.87 72.1155 83.7967 70.9196 83.65 69.9443C82.9045 64.9632 86.2901 61.5612 91.509 62.2926C93.2813 62.5365 95.0291 63.0822 96.7524 63.5699C98.3902 64.0227 99.9914 64.58 101.654 65.1141C102.24 61.9211 102.693 58.9719 103.328 56.0576C106.31 42.2986 116.504 34.6122 128.714 28.3887C139.665 22.8155 150.971 23.2335 162.411 25.9272C186.318 31.5701 210.115 37.6426 234.083 43.0882C238.532 44.0983 243.543 43.1462 248.273 42.7863C257.538 42.078 266.778 41.0679 276.03 43.0185C280.614 43.9822 284.195 46.5134 287.532 49.3581C290.392 51.7964 290.049 56.9168 287.031 59.9008C282.472 64.3942 276.568 66.0198 270.31 65.9269C262.659 65.8108 255.02 65.056 247.271 64.5684C250.742 69.0386 252.649 74.0661 250.253 79.7207C247.809 85.4913 242.944 87.7206 237.457 87.6045C237.982 96.0689 238.654 104.44 238.923 112.823C239.033 116.179 238.251 119.558 237.872 122.937C237.628 124.063 237.395 125.201 237.151 126.327C237.065 128.405 236.784 130.495 236.943 132.562C237.591 140.887 238.263 149.2 234.572 157.108C233.607 159.163 234.193 160.092 236.198 160.869C238.447 161.74 240.683 162.704 242.761 163.877C252.392 169.311 261.962 174.849 271.557 180.341C272.413 181.096 273.28 181.862 274.136 182.617C274.723 183.604 275.419 184.533 275.896 185.566C278.145 190.559 280.345 195.575 282.557 200.579C283.181 201.612 283.792 202.646 284.415 203.679C284.965 206.222 285.246 208.857 286.102 211.307C290.783 224.753 292.555 238.628 293.068 252.7C292.861 257.333 293.178 262.059 292.347 266.587C290.404 277.362 286.627 287.394 276.849 294.314C276.373 294.651 276.238 295.429 275.945 295.997L275.969 295.974C275.334 296.381 274.698 296.787 274.063 297.182C273.684 297.356 273.305 297.519 272.926 297.693C268.893 299.132 264.859 300.561 260.838 302.035C260.642 302.105 260.594 302.534 260.484 302.802C260.007 302.883 259.53 302.952 259.054 303.034C258.711 303.15 258.381 303.266 258.039 303.382C257.624 303.405 257.22 303.417 256.805 303.44C256.609 303.463 256.401 303.487 256.206 303.51C247.674 304.973 239.632 305.019 231.419 300.828C225.98 298.053 219.783 294.987 212.682 296.787C213.061 298.691 213.623 300.712 213.831 302.755C213.977 304.218 214.051 306.807 213.452 307.005C211.411 307.701 209.052 307.748 206.839 307.643C205.764 307.585 204.737 306.633 203.662 306.064C203.576 306.169 203.405 306.296 203.393 306.413C203.295 311.347 201.425 312.508 196.426 310.685C195.314 310.279 194.263 309.756 193.114 309.257C193.578 315.016 188.213 314.227 182.81 311.08C181.845 313.484 180.097 314.366 177.054 313.158C173.643 311.8 170.392 310 167.251 308.119C165.479 307.063 164.342 306.854 162.448 308.119C159.563 310.047 156.361 311.603 153.122 312.973C149.92 314.331 148.282 313.611 147.182 311.127C145.202 311.823 143.283 312.682 141.266 313.147C139.14 313.623 136.866 314.134 135.29 311.719C135.009 311.301 133.517 311.405 132.637 311.556C128.225 312.346 126.367 311.324 125.341 307.829C123.189 307.597 120.281 308.038 119.547 307.039C118.41 305.507 118.398 302.941 118.606 300.886C118.802 299.051 119.951 297.31 120.782 295.266C119.926 295.44 119.083 295.579 118.252 295.788C111.26 297.53 104.343 299.771 97.2413 300.909C90.6168 301.966 83.7723 302.279 77.0499 302.128C70.1565 301.977 63.202 301.269 56.4185 300.061C44.7217 297.971 36.7283 291.318 32.4749 280.694C31.8638 279.162 31.2526 277.629 30.6293 276.085C30.556 274.157 30.6904 272.195 30.3726 270.303C28.7471 260.7 28.3193 251.133 30.666 241.577C31.0815 239.394 31.4971 237.223 31.9127 235.04C33.856 224.66 36.3005 214.419 40.4928 204.608C42.4361 200.056 44.245 195.447 46.1151 190.861C47.1418 189.456 48.1562 188.051 49.1829 186.646C50.0385 185.345 51.3951 184.126 51.664 182.721C52.1652 180.051 54.3163 178.646 56.0763 177.252C66.4409 169.078 78.5044 164.004 91.3379 160.428C95.8358 159.174 100.285 157.793 102.974 156.991C100.774 154.286 98.2558 151.232 95.7746 148.144C89.2723 140.039 84.5667 131.076 81.7067 121.253C81.4744 120.487 81.2422 119.709 81.01 118.942L81.0344 118.919ZM192.564 73.4043C194.69 73.5204 196.817 73.6365 198.932 73.7526C203.723 73.6365 208.074 72.2664 212.095 69.7933C219.526 65.2302 225.051 66.1707 229.976 73.1953C232.079 76.2025 233.448 79.6626 235.159 82.9253C235.415 83.2852 235.599 83.8658 235.941 83.9703C240.121 85.1662 244.521 83.2736 246.354 79.4188C248.42 75.0531 247.748 70.966 244.656 67.2157C243.898 66.9138 242.834 66.1475 242.431 66.3913C240.696 67.4131 239.168 68.7367 236.931 70.4203C239.534 71.7207 241.368 72.638 243.201 73.5436C243.238 73.9384 243.274 74.3332 243.311 74.7396C243.091 74.9253 242.883 75.0995 242.663 75.2853H242.688C236.735 75.2969 232.494 72.4406 231.541 67.7498C232.702 67.4943 233.863 67.2273 235.623 66.8325C236.503 66.101 237.97 64.8935 238.899 64.1272C230.465 62.0837 221.506 60.2491 212.804 57.6599C206.656 55.837 200.851 52.9807 194.886 50.5772L194.764 50.6817L194.91 50.6004L194.153 50.2057C193.505 49.4626 192.857 48.7311 192.209 47.988C193.346 48.2666 194.568 48.3828 195.607 48.8472C205.446 53.271 215.627 56.4407 226.42 58.194C241.588 60.6555 256.792 62.1069 272.144 61.0038C275.664 60.7484 279.172 59.239 282.508 57.9037C284.928 56.94 285.857 54.8849 284.721 52.3653C282.349 48.7659 278.78 46.5366 274.503 46.1651C266.387 45.4568 258.21 45.2594 250.058 44.9459C248.298 44.8763 246.526 45.271 244.753 45.4452C244.729 45.689 244.692 45.9445 244.668 46.1883C249.3 47.0707 253.932 47.9532 258.577 48.8356C261.437 49.2652 264.297 49.6832 267.145 50.1128C267.071 50.6469 266.998 51.1926 266.925 51.7267C261.535 51.1229 256.096 50.7514 250.767 49.8573C243.372 48.615 236.039 46.9778 228.681 45.5032C228.534 45.3755 228.4 45.1781 228.229 45.1317C205.226 40.0461 182.199 35.0302 159.209 29.8633C145.556 26.798 133.102 29.0041 121.772 36.8415C116.198 40.6963 110.918 44.8879 108.584 51.3668C107.044 55.6396 105.919 60.0401 104.611 64.3826C104.978 64.5684 105.333 64.7426 105.699 64.9283C107.728 63.5234 109.72 62.0488 111.823 60.76C112.519 60.3304 113.509 60.3536 114.365 60.1679C113.399 64.313 109.659 65.7643 106.359 67.6569C101.996 68.609 97.8891 67.7498 94.1368 65.6482C91.9001 64.4058 89.9568 64.9632 88.7957 66.5074C88.0012 67.564 87.8423 69.7469 88.4656 70.908C89.3579 72.5915 91.2157 73.8107 92.6702 75.2388C93.868 75.6452 95.0413 76.2722 96.2757 76.4232C102.277 77.143 106.799 74.4261 110.967 70.6874C116.052 66.1243 121.319 61.7353 126.514 57.2767C126.758 57.0561 127.015 56.8471 127.26 56.6265V56.7775C130.938 55.7093 134.605 54.641 138.272 53.5845C142.904 54.2347 147.524 54.8733 152.157 55.5235C156.031 57.2535 159.893 58.9719 163.768 60.702C168.938 63.1983 174.096 65.7063 179.266 68.2026C181.331 69.2128 183.397 70.2345 185.463 71.2447C187.834 71.9646 190.193 72.6844 192.564 73.4043ZM159.319 303.463C158.268 302.639 157.217 301.826 155.884 300.793C154.1 303.289 152.56 305.426 151.02 307.562C150.36 308.758 149.7 309.954 148.673 311.8C154.625 310.964 158.097 307.748 162.203 304.926C161.042 304.334 160.174 303.905 159.307 303.463H159.319ZM130.254 294.128C124.448 294.198 123.593 294.743 121.625 299.841C121.246 300.828 121.038 301.861 120.745 302.883C121.185 303.661 121.601 305.089 122.089 305.112C123.471 305.17 125.524 305.124 126.184 304.311C128.922 300.921 131.244 297.228 133.701 293.675C132.784 293.803 131.525 293.977 130.254 294.151V294.128ZM128.311 306.401C128.494 307.353 128.677 308.305 128.861 309.257C131 308.793 134.116 308.99 135.082 307.725C138.137 303.672 140.386 299.074 142.916 294.732C142.99 294.732 142.611 294.697 142.232 294.639C140.753 294.5 138.626 293.699 137.917 294.337C134.031 297.82 129.765 301.141 128.311 306.401ZM194.128 284.816C196.732 290.146 199.445 295.417 201.889 300.804C203.295 303.893 206.436 305.971 209.932 305.844C211.814 305.774 212.217 304.961 211.863 303.428C207.609 286.883 196.744 275.226 181.295 267.435C166.726 260.085 150.873 257.774 134.483 258.645C122.505 259.284 114.353 265.159 109.488 275.411C106.946 280.183 105.223 285.072 107.386 290.413C108.706 293.687 110.784 294.639 114.023 294.012C119.388 292.967 124.754 291.899 130.181 291.133C139.127 289.867 147.451 291.574 154.833 296.671C159.038 299.574 162.998 302.836 167.312 305.577C170.747 307.759 174.536 309.443 178.227 311.219C178.606 311.405 179.437 310.755 180.06 310.488C179.694 309.106 179.632 307.55 178.899 306.366C176.675 302.801 174.536 299.109 171.725 295.974C166.713 290.366 161.152 285.211 155.994 279.707C153.709 277.269 151.839 274.482 149.883 271.789C149.382 271.092 148.196 269.826 150.506 269.71C151.069 270.488 151.533 271.359 152.205 272.033C157.143 276.956 162.142 281.832 167.068 286.755C173.289 292.967 178.985 299.516 182.431 307.62C182.871 308.665 184.9 309.095 186.208 309.814C187.54 310.012 188.873 310.209 190.193 310.407C190.205 309.141 190.547 307.783 190.193 306.621C187.516 298.006 182.957 290.32 176.992 283.376C174.609 280.601 172.262 277.815 170.075 274.912C169.537 274.192 169.683 272.996 169.512 272.021C180.256 280.683 188.054 291.225 192.112 304.125C193.26 307.783 196.12 309.501 200.386 309.071C200.606 308.247 201.168 307.341 200.973 306.633C197.832 295.231 192.503 285.002 183.177 276.932C182.138 276.038 181.282 274.924 180.488 273.809C180.354 273.623 180.977 272.938 181.258 272.485C184.741 275.609 188.225 278.732 191.708 281.855L192.283 282.471C192.906 283.249 193.517 284.027 194.14 284.805L194.128 284.816ZM209.003 84.725C209.834 84.3418 210.677 83.9586 211.508 83.5871C218.659 81.2301 225.515 81.9035 232.543 86.0022C231.993 84.6901 231.736 84.0864 231.48 83.471C230.258 79.0588 227.801 75.3549 224.098 72.4754C220.822 69.9326 217.4 69.8862 215.016 73.056C212.413 76.5044 210.738 80.5799 208.648 84.3883C208.624 84.6089 208.612 84.8179 208.587 85.0385C208.722 84.934 208.868 84.8295 209.003 84.725ZM151.912 298.656C150.189 297.704 148.453 296.752 146.656 295.754C142.635 299.585 139.311 303.603 137.685 308.7C137.636 310.023 137.196 311.835 139.47 311.533C143.124 311.045 146.644 310.105 148.832 306.807C150.03 305.008 151.35 303.278 152.755 301.629C154.027 300.143 153.77 299.237 151.912 298.656ZM167.129 114.971C166.652 115.331 166.151 115.656 165.711 116.051C156.092 124.748 144.713 127.581 132.087 124.016C127.064 122.6 122.603 119.407 118.056 117.119C119.009 123.134 121.894 129.114 125.903 134.466C128.188 137.52 131.611 139.819 134.52 142.455C140.044 146.077 146.485 145.845 152.071 141.839C158.928 136.916 163.096 130.344 165.283 122.542C165.882 119.999 166.493 117.468 167.092 114.925C167.202 114.855 167.312 114.774 167.41 114.704C167.349 114.704 167.263 114.704 167.239 114.739C167.19 114.809 167.166 114.89 167.129 114.971ZM181.796 192.556C181.82 193.334 181.955 194.123 181.832 194.878C181.698 195.737 181.344 196.573 181.075 197.409C180.244 196.84 179.302 196.376 178.618 195.679C177.518 194.541 176.601 193.252 175.611 192.033C171.101 186.669 166.114 181.92 159.025 179.621C157.168 179.017 155.872 179.099 154.271 180.213C148.746 184.068 142.513 185.74 135.754 184.382C132.344 183.697 129.117 182.187 125.609 180.968C124.949 185.218 124.204 189.49 123.715 193.786C123.629 194.564 124.619 195.447 125.121 196.283C129.57 201.647 135.534 205.2 141.572 208.857C145.666 199.929 151.313 192.3 159.759 186.762C161.482 186.065 163.206 185.369 165.1 184.602C167.141 186.994 169.268 189.502 171.395 191.998C173.9 198.361 176.406 204.712 178.887 211.005C184.253 208.08 190.046 204.968 195.79 201.752C196.475 201.368 197.245 200.556 197.33 199.859C197.697 196.805 197.844 193.728 198.064 190.663C197.868 188.306 197.685 185.961 197.538 184.265C191.39 184.811 185.756 185.322 180.109 185.821C180.598 187.76 181.197 190.152 181.808 192.544L181.796 192.556ZM124.094 78.0951C125.231 77.6655 126.367 77.2359 127.504 76.8179C137.49 73.1024 147.573 72.5915 157.595 76.5044C160.443 77.6191 162.986 79.4536 165.662 80.9514C165.919 80.8353 166.176 80.7076 166.42 80.5915C164.403 76.8644 162.399 73.1373 160.382 69.4102C158.378 65.1373 154.784 62.2694 150.617 60.1679C143.625 56.6381 136.597 57.1606 131.488 62.2462C127.834 65.892 125.108 70.4087 122.187 74.6815C121.051 76.3419 120.537 78.3738 119.743 80.2432C119.963 80.3593 120.171 80.4754 120.391 80.5915C121.613 79.7671 122.847 78.9311 124.069 78.1067L124.094 78.0951ZM216.165 140.771C219.05 142.942 221.396 143.221 224.085 141.119C225.919 139.68 227.593 137.868 228.815 135.929C233.081 129.16 234.56 121.613 235.073 113.845C235.159 111.987 235.244 110.13 235.367 107.529C230.832 111.918 225.943 113.671 220.455 113.729C214.918 113.787 209.981 111.86 205.226 108.76C205.361 118.176 206.998 126.907 211.288 135.024C212.425 137.183 214.515 138.878 216.165 140.783V140.771ZM213.794 266.726C211.728 265.751 209.724 264.625 207.573 263.835C200.337 261.188 192.796 259.667 185.071 259.214C180.011 258.924 174.915 259.156 169.842 259.156C169.781 259.458 169.72 259.771 169.659 260.073C186.77 265.728 201.119 274.68 209.944 290.215C210.298 292.166 211.313 293.222 213.598 293.141C215.432 293.072 217.681 294.047 219.037 293.339C221.176 292.236 222.9 290.238 224.476 288.369C227.251 285.083 228.498 281.286 226.383 277.315C223.694 272.276 219.209 268.944 213.782 266.726H213.794ZM184.888 257.287C185.854 257.368 186.831 257.449 188.054 257.542C185.756 238.965 194.544 222.21 196.487 204.12C195.326 204.782 194.409 205.304 193.505 205.827C188.286 208.567 183.067 211.319 177.139 214.442C176.076 211.238 175.086 208.254 174.01 205.003C170.673 209.926 170.918 216.416 165.723 219.551C168.18 232.207 170.6 244.7 173.045 257.287H184.888ZM143.552 211.656C141.853 211.319 139.971 211.296 138.492 210.553C136.255 209.45 134.226 207.917 132.222 206.431C129.325 204.294 126.526 202.042 123.238 199.487C124.607 209.484 125.719 219.005 127.284 228.445C128.848 237.954 129.618 247.464 128.421 256.857C133.664 256.602 138.712 256.346 143.748 256.102H149.162C149.394 255.348 149.736 254.558 149.895 253.745C150.934 248.149 152.071 242.552 152.927 236.933C153.611 232.439 153.978 227.899 154.418 223.371C154.479 222.698 154.357 221.908 154.027 221.304C153.379 220.108 152.205 219.11 151.814 217.856C150.36 213.119 149.125 208.323 147.805 203.551C147.5 203.516 147.194 203.482 146.889 203.447C145.789 206.187 144.689 208.915 143.576 211.656H143.552ZM98.2436 224.555C97.8524 226.32 97.1802 228.085 97.1313 229.862C96.9847 235.412 97.0824 240.962 97.0824 246.488C99.5391 247.475 101.69 248.335 103.841 249.182C105.553 250.088 107.264 251.005 109.256 252.062C109.256 250.75 109.354 249.972 109.244 249.217C108.486 244.352 107.765 239.475 106.897 234.622C104.868 223.232 101.837 212.109 96.8502 201.519C95.6524 198.977 96.3491 197.339 99.2702 196.631C102.644 195.807 106.066 195.145 110.209 194.251C105.821 190.64 101.751 187.284 97.7424 183.987C98.9158 182.524 100.065 181.409 100.822 180.086C104.123 174.385 107.349 168.649 110.527 162.901C112.226 159.848 111.627 158.582 108.131 157.885C107.313 157.723 106.335 158.002 105.504 158.269C101.25 159.639 97.0947 161.322 92.7802 162.437C83.3567 164.875 74.4832 168.544 65.952 172.991C62.9331 174.57 60.2075 176.649 57.0419 178.692C61.2342 179.54 64.7053 180.236 68.1765 180.945C74.2021 183.488 80.1789 186.112 84.8112 190.802C86.5101 192.521 88.4534 194.03 90.2868 195.633C90.8979 196.933 91.5579 198.21 92.1201 199.534C92.499 200.405 93.6724 201.531 91.5579 201.903C87.0112 197.328 82.9045 192.231 77.7711 188.353C74.3121 185.728 69.4232 184.8 65.1698 183.116C62.6275 182.582 60.0975 181.758 57.5308 181.63C56.3697 181.572 54.573 182.617 54.0107 183.627C50.6618 189.734 47.154 195.83 44.5262 202.228C36.2272 222.384 31.216 243.203 32.646 265.031C33.086 271.673 34.076 278.349 37.5472 284.34C40.3217 289.147 44.0984 292.967 49.7696 294.755C51.7129 295.533 53.5952 296.543 55.6119 297.066C65.7687 299.678 76.1821 299.516 86.5834 299.376C88.7834 299.353 90.9835 298.958 93.4279 298.714C87.5612 278.837 96.0069 266.297 115.709 259.04C109.073 255.754 103.145 252.247 96.7647 249.774C84.97 245.211 72.7965 243.772 60.4153 248.068C51.884 251.017 45.8951 256.427 42.375 264.346C41.9717 264.276 41.2261 264.149 41.2261 264.137C41.3972 262.999 41.4339 261.803 41.8861 260.77C44.9662 253.745 50.6374 249.263 57.7875 246.21C64.4242 243.365 71.3788 242.343 78.6511 242.564C71.8188 240.695 64.9987 238.965 57.8119 240.381C57.1886 240.381 56.5774 240.358 55.9541 240.358C55.123 240.404 54.3041 240.451 53.4729 240.486C53.0696 240.509 52.6663 240.52 52.2629 240.544C51.9207 240.393 51.5663 240.253 50.6496 239.859C60.7086 235.864 70.3887 237.827 80.1911 238.698C79.0911 237.722 78.0033 236.759 76.9033 235.783C70.9632 228.921 63.2264 224.358 55.0496 220.201C59.3641 221.397 63.5198 222.895 67.3454 224.939C74.3855 228.677 80.8633 233.426 84.4445 240.311C86.5956 244.445 89.7734 244.155 92.8168 245.014C93.4524 239.301 93.8313 233.902 94.748 228.584C95.1146 226.436 96.6669 224.463 97.6813 222.419C97.8647 223.139 98.0602 223.859 98.2436 224.579V224.555ZM121.552 187.354C122.126 182.965 124.253 178.704 119.731 174.547C116.822 171.877 115.355 167.79 112.849 163.714C111.346 166.814 110.05 169.485 108.755 172.155C106.763 175.522 104.819 178.924 102.778 182.257C101.947 183.604 102.228 184.358 103.426 185.438C107.814 189.351 112.03 193.427 116.247 197.386C115.379 198.559 114.829 199.302 114.267 200.056C111.016 197.13 104.575 197.119 99.6002 199.813C101.189 203.412 103.023 206.884 104.294 210.553C108.853 223.754 111.285 237.362 112.495 251.179C112.58 252.224 113.057 253.629 113.864 254.14C116.137 255.591 118.606 256.811 121.124 257.844C123.691 258.901 124.888 258.157 125.341 255.603C125.609 254.082 125.842 252.549 125.939 251.017C126.661 238.349 123.409 226.042 121.931 213.583C120.904 204.84 119.462 196.132 121.552 187.354ZM205.825 171.575C207.353 171.168 208.893 170.774 210.995 170.216C210.543 171.424 210.482 172.039 210.127 172.422C207.402 175.395 204.578 178.286 201.889 181.281C201.266 181.967 200.472 183.058 200.655 183.755C202.403 190.361 201.388 196.887 200.019 203.331C197.514 215.174 194.385 226.889 192.063 238.767C190.975 244.306 191.158 250.076 190.828 255.742C190.718 257.565 192.063 258.181 193.725 258.459C196.829 258.982 199.922 259.504 203.002 260.108C204.578 260.41 205.275 260.05 205.837 258.436C208.086 251.911 210.25 245.339 213.061 239.023C218.512 226.796 223.645 214.5 226.848 201.322C220.602 201.392 214.454 200.625 208.612 203.133C208.111 203.342 207.377 203.064 206.742 203.006C206.815 202.564 206.742 202.042 206.974 201.705C211.093 196.027 215.468 190.582 222.509 186.971C220.089 180.62 217.779 174.222 215.187 167.941C214.136 165.386 212.633 165.166 210.445 166.942C208.746 168.324 207.328 169.996 205.776 171.54C205.507 171.621 205.226 171.691 204.957 171.772C205.018 171.842 205.116 171.993 205.116 171.981C205.348 171.853 205.581 171.702 205.801 171.563L205.825 171.575ZM281.995 273.124C281.836 269.792 282.863 266.192 280.027 263.417C275.004 258.494 269.443 254.372 262.219 252.654C255.167 250.982 248.066 250.517 240.806 250.889C230.563 251.4 221.543 254.93 212.718 260.096C213.525 260.422 213.965 260.712 214.454 260.77C220.247 261.443 224.855 264.358 228.571 268.282C236.271 276.421 239.094 286.221 238.288 297.054C238.019 298.134 237.75 299.214 237.493 300.282C244.142 301.687 250.486 301.408 256.792 299.945C265.165 297.995 272.84 294.662 278.817 288.625C287.238 280.114 289.903 269.455 290.563 258.227C291.186 247.742 289.854 237.409 287.568 227.121C284.721 214.303 281.164 201.763 275.432 189.792C274.002 186.808 272.119 185.961 269.088 186.251C257.049 185.101 248.09 190.466 240.317 198.396C246.452 187.598 256.193 182.93 269.394 183.209C268.77 182.141 267.939 181.734 267.194 181.223C262.952 178.367 258.919 175.174 254.446 172.701C247.943 169.102 241.16 165.955 234.425 162.762C233.484 162.321 231.651 162.181 231.04 162.727C227.618 165.734 223.768 166.977 218.903 165.943C222.594 172.689 223.951 179.551 224.415 186.704C224.538 188.62 223.975 189.363 222.643 190.396C219.062 193.183 215.64 196.143 211.692 199.406C218.219 199.023 223.988 198.059 229.035 200.416C228.718 202.181 228.473 203.54 228.216 204.898C225.833 217.287 220.687 228.793 215.737 240.37C213.195 246.326 210.885 252.375 208.465 258.39C208.734 258.552 209.015 258.715 209.284 258.889C210.482 258.425 211.68 257.995 212.865 257.496C218.732 255.023 224.623 252.607 230.404 249.983C231.272 249.589 232.128 248.207 232.152 247.255C232.348 239.522 231.895 231.835 229.818 224.126C230.441 224.37 230.783 224.811 231.028 225.299C234.609 232.323 234.621 240.021 235.489 247.615C247.601 239.731 254.91 236.735 258.259 238.175C253.578 240.126 248.823 242.111 244.057 244.097C244.179 244.445 244.313 244.793 244.436 245.142C245.377 245.014 246.318 244.747 247.247 244.758C251.879 244.828 256.511 244.967 261.144 245.084C258.369 245.478 255.607 245.873 252.832 246.268C250.082 246.663 247.332 247.057 244.594 247.452C248.652 248.033 252.6 248.242 256.548 248.613C267.12 249.6 275.639 254.372 282.557 261.803C285.698 265.182 285.209 271.011 281.971 273.112L281.995 273.124ZM173.24 144.37C173.692 145.462 174.132 146.553 174.585 147.645C174.365 147.947 174.071 148.225 173.949 148.55C171.981 153.694 170.417 159.023 167.985 163.958C165.87 168.266 162.79 172.144 160.26 176.01C163.169 177.578 166.359 179.064 169.268 180.922C171.602 182.408 173.607 184.358 175.758 186.112C176.662 187.319 177.579 188.527 178.484 189.734L179.412 189.293C178.068 185.624 176.724 181.943 175.379 178.274C175.526 178.17 175.648 178.065 175.77 177.938C176.552 178.832 177.322 179.726 178.105 180.62C178.569 181.061 178.985 181.827 179.51 181.908C187.931 183.244 195.546 181.595 202.109 176.196C202.464 175.952 202.818 175.708 203.759 175.058C198.125 174.675 193.212 174.338 188.298 174.001C188.274 173.7 188.237 173.409 188.213 173.107C193.725 171.389 199.946 171.308 204.688 167.046C198.178 167.194 194.617 166.563 194.006 165.154C202.635 164.144 207.218 159.047 208.905 151.569C210.946 154.124 212.804 156.782 215.004 159.151C217.632 161.984 220.993 163.017 224.929 161.798C226.432 160.695 228.302 159.836 229.378 158.431C233.325 153.288 236.002 142.536 234.328 134.826C232.824 137.206 231.26 139.668 229.695 142.141C222.325 148.643 215.615 147.97 209.712 140.098C209.125 139.308 208.538 138.507 208.049 137.659C201.621 126.687 199.922 114.693 200.741 102.466C201.229 95.0819 203.307 87.8019 204.664 80.4754C205.409 79.024 206.167 77.5726 206.998 75.9587C206.338 75.9587 205.923 75.8774 205.568 75.9703C199.09 77.7352 192.649 77.6307 186.514 74.937C180.06 72.1155 173.778 68.9225 167.398 65.9501C165.846 65.2302 164.183 64.6961 161.812 63.7905C163.45 66.3681 164.587 68.1678 165.736 69.9791C167.239 73.683 169.207 77.2824 170.172 81.1024C175.391 101.758 173.888 121.52 160.969 139.656C155.041 147.97 143.075 151.581 133.896 147.517C126.318 144.161 121.625 138.124 118.631 131.064C110.197 111.209 110.735 91.3548 119.413 71.6395C120.989 69.0502 122.566 66.461 124.131 63.8834C123.923 63.7324 123.727 63.5931 123.519 63.4421C122.114 64.6729 120.696 65.8804 119.315 67.1228C115.978 70.1184 112.825 73.323 109.293 76.0864C103.927 80.3012 92.8535 82.2867 87.329 76.458C87.1334 76.249 86.6812 76.2606 85.9478 76.0632C86.3878 77.6191 86.5223 78.9079 87.109 79.9877C89.7612 84.8411 92.5357 89.6364 95.2735 94.4433C94.2468 94.2459 93.2324 94.0602 92.2057 93.8628C90.1279 91.7496 88.9668 91.7844 87.1823 93.9905C85.4834 96.1037 85.5201 100.005 87.2801 102.641C88.1234 103.593 88.979 104.556 89.8223 105.509L91.6557 106.623C95.6646 108.76 98.0113 106.089 100.517 103.442C100.334 109.41 96.288 110.548 92.499 109.944C90.9224 109.688 89.4312 108.957 87.9034 108.446C86.7423 107.297 85.5812 106.136 84.2734 104.847C80.1178 119.523 99.258 149.688 110.111 155.157C109.818 153.473 109.561 151.975 109.305 150.466C109.073 147.807 108.828 145.148 108.596 142.489C108.926 142.455 109.256 142.42 109.574 142.373C109.855 143.151 110.16 143.917 110.417 144.695C112.128 149.944 113.473 155.319 115.599 160.417C119.071 168.753 124.668 175.534 133.395 179.563L133.994 179.691L134.104 179.795L134.238 179.726C135.681 180.109 137.099 180.713 138.565 180.829C145.715 181.432 151.374 178.39 156.373 173.932C164.379 166.791 168.473 157.618 171.492 147.865C171.871 146.623 172.666 145.497 173.277 144.324L173.24 144.37ZM159.197 81.741C160.883 87.8251 160.993 93.2009 159.624 98.5188C158.39 103.314 154.907 106.681 151.301 106.774C146.326 106.913 144.188 103.523 142.464 99.9121C138.969 92.632 138.859 85.1778 141.829 77.5262C133.151 77.4797 125.829 80.2083 119.951 85.9906C118.508 87.4071 117.31 89.4971 117.017 91.4245C116.406 95.4419 116.223 99.5521 116.32 103.616C116.394 106.739 116.516 109.897 119.181 112.522C127.59 120.8 137.722 123.471 149.333 121.044C156.41 119.558 161.556 115.262 166.09 109.979C169.647 105.834 168.926 101.294 168.803 96.6842C168.791 96.1966 168.84 95.7089 168.791 95.2213C168.143 89.3345 165.014 85.0501 159.197 81.741ZM160.908 219.47C162.827 219.296 164.856 217.566 165.992 215.116C168.095 210.599 169.916 205.966 171.786 201.368C172.03 200.765 172.226 199.917 171.957 199.406C170.221 196.039 168.437 192.683 166.506 189.421C165.552 187.807 163.853 187.482 162.362 188.701C158.304 192.045 154.32 195.493 150.445 199.023C149.92 199.511 149.895 200.846 150.115 201.67C151.325 206.164 152.707 210.611 153.99 215.092C155.065 218.889 155.628 219.354 160.908 219.47ZM170.258 256.973C167.728 245.188 165.222 233.484 162.704 221.722C160.773 221.827 159.392 221.908 158.439 221.955C156.41 233.74 154.442 245.118 152.462 256.625C158.39 256.962 163.951 259.597 170.258 256.973ZM229.549 88.2315C229.268 91.8309 229.353 95.2909 228.656 98.6C227.666 103.326 225.772 105.149 222.997 105.137C220.235 105.125 217.754 102.687 216.972 98.4259C216.226 94.4085 216.055 90.2982 215.603 85.8861C213.867 86.6988 211.753 87.4535 209.932 88.6146C205.471 91.4245 205.471 95.9992 205.471 100.342C205.471 101.874 206.253 103.779 207.377 104.858C212.315 109.63 218.61 110.966 225.185 109.375C231.15 107.935 236.357 104.568 235.171 97.915C234.951 96.6726 234.731 95.4302 234.609 94.1763C234.267 90.8439 231.981 89.1836 229.549 88.2199V88.2315ZM97.278 298.738C100.639 297.867 104.343 296.892 107.643 296.032C99.2702 281.925 107.484 272.021 116.088 262.14C111.187 262.419 103.511 266.842 100.114 271.591C94.2346 279.823 92.3035 288.613 97.278 298.726V298.738ZM235.208 297.449C235.024 293.675 235.098 290.331 234.645 287.057C233.374 277.768 228.828 270.268 220.333 265.252C218.756 264.323 216.74 264.056 214.931 263.487C214.845 263.719 214.772 263.94 214.686 264.172C220.785 267.051 226.261 270.5 228.791 276.967C231.602 284.143 227.581 289.124 222.509 294.163C226.701 295.243 230.49 296.23 235.195 297.437L235.208 297.449Z" fill="#030405"/>
<path d="M275.945 295.997C276.238 295.429 276.373 294.651 276.849 294.314C286.627 287.394 290.404 277.362 292.347 266.587C293.166 262.047 292.861 257.333 293.068 252.7C293.264 252.282 293.582 251.876 293.643 251.435C294.511 244.84 295.562 238.256 296.124 231.638C297.114 220.004 298.08 208.347 298.495 196.689C298.789 188.387 298.544 180.016 297.86 171.737C297.334 165.433 295.916 159.163 294.523 152.951C294.095 151.035 292.457 149.363 291.37 147.575C290.771 147.052 290.233 146.437 289.561 146.031C273.366 136.417 255.656 130.402 237.151 126.327C237.395 125.201 237.628 124.063 237.872 122.937C256.67 127.198 274.869 132.968 291.443 142.652C297.016 145.903 298.605 151.465 299.754 156.991C302.846 171.749 303.482 186.75 302.602 201.693C301.636 218.042 300.182 234.402 297.921 250.622C296.405 261.525 293.154 272.218 290.551 282.982C290.233 284.317 289.389 285.791 288.302 286.662C284.293 289.902 280.076 292.909 275.945 295.997Z" fill="#160B05"/>
<path d="M30.6904 241.554C28.3559 251.11 28.7715 260.689 30.3971 270.279C30.7149 272.172 30.5804 274.134 30.6537 276.062C29.8226 273.507 28.4048 270.988 28.2459 268.398C26.9626 247.069 25.3737 225.74 24.9826 204.387C24.7137 190.164 25.8504 175.882 27.097 161.694C27.8548 153.009 31.2038 144.777 35.4816 137.021C37.7305 132.934 41.2383 130.333 46.0173 128.939C55.0741 126.304 63.9842 123.227 73.0043 120.487C75.5955 119.697 78.3455 119.418 81.0222 118.908C81.2544 119.674 81.4867 120.452 81.7189 121.218C70.511 122.844 59.743 125.99 49.1462 129.729C45.7484 130.925 42.6072 132.434 40.505 135.395C39.295 137.404 37.9505 139.343 36.8994 141.421C30.5804 153.926 29.2237 167.453 29.0037 180.98C28.7104 199.209 29.2482 217.438 29.5415 235.667C29.5782 237.629 30.2871 239.58 30.6782 241.531L30.6904 241.554Z" fill="#160B05"/>
<path d="M260.484 302.802C260.594 302.534 260.642 302.116 260.838 302.035C264.859 300.561 268.893 299.132 272.926 297.693C268.783 299.4 264.627 301.095 260.484 302.802Z" fill="#160B05"/>
<path d="M274.063 297.182C274.698 296.775 275.334 296.369 275.969 295.974C275.334 296.381 274.698 296.787 274.063 297.182Z" fill="#160B05"/>
<path d="M92.1568 93.9208C93.1835 94.1182 94.198 94.304 95.2246 94.5014C96.508 95.1051 97.7913 95.7089 99.0747 96.3127C99.4047 96.034 99.7225 95.7554 100.052 95.4767C97.5835 91.4245 95.1269 87.3839 92.499 83.0762C95.4813 83.0762 97.9502 83.4245 100.26 83.0065C105.174 82.1241 109.317 79.7323 112.91 76.3651C114.817 74.577 117.188 73.2301 119.339 71.6859C110.674 91.3896 110.124 111.256 118.557 131.111C121.552 138.17 126.245 144.208 133.823 147.563C143.002 151.627 154.968 148.005 160.896 139.703C173.827 121.566 175.318 101.793 170.099 81.1488C169.133 77.3288 167.166 73.7294 165.662 70.0255C167.923 71.0241 170.331 71.8136 172.421 73.0676C182.285 79.024 192.539 83.2272 204.603 80.5218C203.246 87.8483 201.168 95.1284 200.679 102.513C199.861 114.728 201.559 126.722 207.988 137.706C208.49 138.553 209.064 139.354 209.651 140.144C215.554 148.005 222.276 148.69 229.634 142.187C229.084 145.973 228.754 149.793 227.899 153.52C227.239 156.364 225.906 159.07 224.88 161.845C220.956 163.064 217.583 162.019 214.955 159.197C212.755 156.829 210.885 154.17 208.856 151.616C207.169 159.105 202.586 164.19 193.957 165.2C194.568 166.601 198.129 167.232 204.639 167.093C199.909 171.354 193.676 171.435 188.164 173.154C188.188 173.456 188.225 173.746 188.249 174.048C193.163 174.385 198.076 174.721 203.711 175.104C202.769 175.755 202.415 175.999 202.061 176.242C201.156 176.312 200.239 176.289 199.347 176.463C194.226 177.473 189.117 178.541 183.996 179.563C182.016 179.958 180.036 180.295 178.056 180.654C177.274 179.76 176.504 178.866 175.721 177.972C175.538 177.845 175.355 177.717 175.171 177.601C175.22 177.833 175.281 178.077 175.33 178.309C176.675 181.978 178.019 185.659 179.364 189.328L178.435 189.769C177.53 188.562 176.614 187.354 175.709 186.146C175.318 185.299 175.098 184.3 174.499 183.627C172.385 181.293 170.221 178.971 167.887 176.846C166.603 175.685 166.457 174.791 167.337 173.374C171.236 167.163 173.472 160.359 174.756 153.288C175.086 151.476 174.633 149.549 174.548 147.679C174.096 146.588 173.656 145.497 173.203 144.405C171.725 142.768 170.747 142.849 170.185 145.125C168.046 153.787 162.717 160.765 157.155 167.546C151.362 174.605 144.444 180.167 134.165 179.807L134.031 179.877L133.921 179.772C133.725 179.726 133.517 179.679 133.322 179.644C124.595 175.604 118.997 168.835 115.526 160.498C113.412 155.412 112.055 150.025 110.344 144.777C110.087 143.999 109.781 143.221 109.5 142.455C109.17 142.489 108.84 142.524 108.523 142.571C108.755 145.23 108.999 147.888 109.231 150.547C108.694 150.327 108.046 150.211 107.63 149.851C94.6502 138.844 88.8201 124.725 87.8301 108.527C89.3579 109.038 90.849 109.781 92.4257 110.025C96.2146 110.629 100.26 109.491 100.444 103.523C97.938 106.17 95.5913 108.829 91.5824 106.704C90.9712 106.333 90.3601 105.961 89.749 105.59C88.9057 104.638 88.0501 103.674 87.2067 102.722C87.9523 99.6218 88.7712 96.5797 91.9368 94.7684C92.1079 94.6639 92.0713 94.2227 92.1324 93.9441L92.1568 93.9208ZM191.745 120.254L192.05 121.276C189.594 123.912 185.169 124.945 184.876 129.357C184.631 133.026 183.641 136.707 185.145 140.376C185.707 139.517 186.123 138.611 186.135 137.717C186.159 131.273 188.384 126.257 195.082 123.447C198.137 122.17 198.015 119.685 195.216 117.944C192.992 116.562 190.694 115.308 188.335 113.95C188.824 116.539 186.697 117.537 184.57 118.733C183.201 119.511 182.187 120.858 180.512 122.414C184.827 121.578 188.286 120.916 191.745 120.243V120.254Z" fill="#0096E7"/>
<path d="M261.168 245.095C256.536 244.979 251.903 244.84 247.259 244.77C246.33 244.758 245.389 245.014 244.448 245.153C244.326 244.805 244.191 244.457 244.069 244.108C248.823 242.123 253.59 240.137 258.271 238.187C254.91 236.747 247.613 239.731 235.501 247.626C234.633 240.033 234.621 232.335 231.04 225.31C230.795 224.822 230.453 224.381 229.83 224.137C231.908 231.847 232.36 239.534 232.164 247.266C232.14 248.219 231.284 249.6 230.416 249.995C224.635 252.619 218.744 255.034 212.877 257.507C211.704 258.007 210.494 258.436 209.296 258.901C209.027 258.738 208.746 258.575 208.477 258.401C210.897 252.387 213.195 246.338 215.75 240.381C220.7 228.805 225.845 217.299 228.229 204.91C228.485 203.551 228.73 202.181 229.048 200.428C224 198.071 218.231 199.046 211.704 199.418C215.652 196.143 219.086 193.194 222.655 190.408C223.987 189.374 224.55 188.631 224.427 186.715C223.963 179.563 222.606 172.701 218.915 165.955C223.78 166.988 227.63 165.746 231.052 162.739C231.663 162.193 233.497 162.332 234.438 162.774C241.172 165.967 247.956 169.113 254.458 172.713C258.931 175.186 262.965 178.39 267.206 181.235C267.964 181.746 268.783 182.152 269.406 183.221C256.206 182.942 246.452 187.609 240.329 198.408C248.102 190.466 257.061 185.113 269.1 186.263C271.337 191.255 273.659 196.213 275.81 201.241C279.367 209.601 282.692 218.042 283.951 227.04C284.672 232.195 285.295 237.386 285.662 242.576C285.931 246.233 285.711 249.937 285.711 253.769C284.879 253.606 284.562 253.618 284.317 253.478C283.608 253.095 282.948 252.642 282.239 252.259C275.676 248.671 269.039 245.304 261.192 245.13L261.168 245.095Z" fill="#1A1650"/>
<path d="M228.693 45.4916C236.051 46.9662 243.372 48.6034 250.779 49.8457C256.12 50.7398 261.547 51.1113 266.937 51.7151C267.01 51.181 267.084 50.6353 267.157 50.1012C264.297 49.6716 261.437 49.2536 258.589 48.8356C263.087 48.9749 267.67 48.6382 272.046 49.3813C275.7 49.9967 279.123 51.866 282.643 53.1665C279.88 54.4785 277.253 56.3479 274.319 57.0213C264.309 59.297 254.03 59.1113 243.837 58.7861C234.438 58.4843 225.271 56.7658 216.324 53.7586C206.534 50.4611 196.609 47.5235 186.66 44.6789C183.874 43.8777 180.794 43.9474 177.86 43.6223C177.836 43.9125 177.811 44.1912 177.799 44.4815C182.602 45.6426 187.406 46.8037 192.209 47.9648C192.857 48.7079 193.505 49.4394 194.153 50.1824C194.409 50.3102 194.654 50.4495 194.91 50.5772L194.764 50.6585L194.886 50.554C196.988 51.9705 199.005 53.5032 201.193 54.792C210.702 60.3768 221.017 64.2549 231.529 67.7266C232.482 72.4174 236.723 75.2737 242.676 75.2504C242.248 76.1677 242.052 77.3172 241.356 77.9558C239.4 79.7207 237.237 81.2881 235.159 82.9253C233.46 79.6626 232.079 76.2025 229.976 73.1953C225.051 66.1707 219.514 65.2302 212.095 69.7933C208.074 72.2664 203.723 73.6365 198.932 73.7526C200.594 72.7193 202.244 71.6859 203.894 70.6525C205.336 69.7236 206.778 68.7832 208.221 67.8543C208.086 67.6453 207.952 67.4363 207.817 67.2273C200.618 69.9094 193.236 71.6395 185.45 71.2563C183.385 70.2461 181.319 69.2244 179.254 68.2142C186.22 69.3637 192.979 68.8993 199.213 66.461C194.067 66.461 188.628 67.1228 183.47 66.2752C178.239 65.416 173.289 63.0706 168.217 61.3754H180.891C180.916 61.0503 180.952 60.7368 180.977 60.4117C180.537 60.3072 180.109 60.1678 179.657 60.0982C173.937 59.297 168.205 58.6004 162.509 57.6947C159.026 57.1374 155.591 56.255 152.132 55.5235C147.5 54.8733 142.88 54.2347 138.247 53.5845C145.446 50.6585 153.195 52.6207 161.507 51.5874C160.333 51.0533 160.016 50.8559 159.673 50.763C149.162 47.9648 139.299 49.927 129.838 54.5249C128.836 55.0126 128.115 56.0227 127.26 56.7891L127.247 56.6381C127.003 56.8587 126.746 57.0677 126.502 57.2883C121.307 61.7469 116.039 66.1359 110.955 70.699C106.787 74.4377 102.265 77.1546 96.2635 76.4348C95.0291 76.2838 93.8557 75.6568 92.6579 75.2504C92.5235 74.5073 92.4013 73.7526 92.2668 73.0095C91.7412 70.3274 92.499 69.503 95.298 70.2113C99.5269 71.2679 103.047 69.9675 106.359 67.6801C109.659 65.7992 113.399 64.3362 114.365 60.1911C115.33 59.506 116.357 58.9023 117.237 58.1243C120.085 55.628 122.627 52.7485 125.756 50.6121C130.89 47.1056 136.377 44.0635 142.305 40.4757C139.739 41.1027 137.477 41.3581 135.485 42.1941C128.983 44.9343 123.263 48.7891 118.325 53.6773C116.663 55.3261 114.878 56.8587 113.155 58.4378C112.813 57.4625 112.935 56.8239 113.228 56.2666C118.704 45.7703 127.443 38.8734 139.237 35.6688C150.421 32.6267 161.739 34.1361 172.873 35.8778C185.621 37.8632 198.223 40.6499 210.922 42.9372C216.801 43.9938 222.765 44.6789 228.681 45.5265L228.693 45.4916Z" fill="#F8D369"/>
<path d="M42.3506 264.323C45.8706 256.404 51.8596 250.994 60.3908 248.044C72.7843 243.748 84.9456 245.188 96.7402 249.751C103.12 252.224 109.06 255.731 115.685 259.017C95.9946 266.285 87.549 278.813 93.4035 298.691C90.9468 298.935 88.759 299.33 86.559 299.353C76.1699 299.492 65.7442 299.655 55.5874 297.042C53.5707 296.52 51.6885 295.521 49.7451 294.732C48.7918 292.874 47.594 291.086 46.9095 289.135C44.1106 281.077 41.6906 272.95 42.3384 264.311L42.3506 264.323Z" fill="#1A1650"/>
<path d="M150.494 269.722C148.196 269.838 149.37 271.104 149.871 271.8C151.827 274.494 153.697 277.281 155.982 279.719C161.128 285.223 166.701 290.378 171.712 295.986C174.511 299.121 176.662 302.813 178.887 306.378C179.62 307.55 179.681 309.118 180.048 310.5C175.147 306.714 170.233 302.941 165.357 299.132C150.763 287.731 134.703 281.519 115.502 286.442C113.717 286.895 112.739 286.163 112.519 284.491C112.397 283.527 112.678 282.471 112.36 281.6C111.578 279.475 112.752 276.503 109.488 275.423C114.353 265.17 122.517 259.295 134.483 258.657C150.873 257.774 166.726 260.085 181.295 267.446C196.744 275.237 207.609 286.895 211.863 303.44C210.824 303.103 209.724 302.906 208.771 302.418C203.796 299.852 201.914 294.953 199.066 290.749C197.636 288.636 195.778 286.79 194.128 284.816C193.505 284.038 192.894 283.26 192.27 282.482C192.075 282.273 191.891 282.064 191.696 281.867C189.276 279.162 186.929 276.387 184.375 273.809C183.654 273.078 182.309 272.915 181.246 272.497C180.977 272.95 180.341 273.635 180.476 273.821C181.27 274.935 182.126 276.038 183.165 276.944C192.49 285.025 197.819 295.254 200.961 306.645C201.156 307.365 200.582 308.27 200.374 309.083C199.873 308.642 199.457 308.026 198.87 307.771C195.118 306.134 193.358 303.138 192.063 299.608C190.718 295.974 189.533 292.108 187.284 288.996C183.262 283.434 178.569 278.302 173.973 273.136C172.983 272.009 171.468 270.593 169.488 272.033C169.659 273.008 169.512 274.204 170.05 274.924C172.238 277.826 174.597 280.625 176.968 283.388C182.932 290.343 187.491 298.018 190.168 306.633C190.523 307.794 190.193 309.153 190.168 310.418C188.836 310.221 187.504 310.023 186.184 309.826C184.069 305.983 182.016 302.105 179.816 298.308C173.191 286.86 161.336 279.87 152.89 269.966C152.535 269.548 151.301 269.792 150.482 269.734L150.494 269.722Z" fill="#0096E7"/>
<path d="M65.1576 183.104C69.4109 184.788 74.2999 185.717 77.7588 188.341C82.88 192.231 86.999 197.316 91.5457 201.891C91.8635 203.098 92.1446 204.318 92.5113 205.502C94.2224 211.133 95.958 216.753 97.6813 222.384C96.6669 224.439 95.1146 226.402 94.748 228.55C93.8313 233.856 93.4524 239.255 92.8168 244.979C89.7734 244.108 86.5956 244.398 84.4445 240.277C80.8511 233.391 74.3732 228.642 67.3454 224.904C63.5198 222.872 59.3641 221.362 55.0496 220.166C63.2142 224.335 70.9632 228.886 76.9033 235.748C76.4999 235.748 76.0844 235.795 75.681 235.737C68.5554 234.645 61.4053 234.007 54.243 235.238C52.3974 235.551 50.4296 236.097 48.9507 237.107C48.2784 237.56 48.1318 239.754 48.7062 240.532C49.3662 241.426 51.114 242.703 52.2752 240.509C52.6785 240.486 53.0818 240.474 53.4852 240.451C54.3163 240.404 55.1352 240.358 55.9663 240.323C56.5897 240.323 57.2008 240.346 57.8119 240.346C53.0941 243.667 48.3762 246.999 43.6584 250.32C43.3528 250.181 43.035 250.041 42.7295 249.914C43.2428 246.43 43.7317 242.959 44.2695 239.475C46.5306 224.904 51.1996 211.04 57.8119 197.746C60.2442 192.858 62.7253 187.981 65.182 183.104H65.1576Z" fill="#1A1650"/>
<path d="M238.275 297.054C239.082 286.233 236.259 276.421 228.559 268.282C224.843 264.358 220.235 261.443 214.442 260.77C213.965 260.712 213.513 260.41 212.706 260.096C221.531 254.941 230.551 251.412 240.793 250.889C248.053 250.517 255.155 250.982 262.207 252.654C269.43 254.361 275.004 258.483 280.015 263.417C282.851 266.192 281.824 269.803 281.983 273.124C280.822 274.738 279.538 276.294 278.536 277.989C273.354 286.709 266.057 292.793 255.741 295.603C249.948 297.182 244.13 296.996 238.263 297.054H238.275Z" fill="#1A1650"/>
<path d="M205.801 171.552C207.353 170.007 208.771 168.335 210.47 166.954C212.657 165.177 214.148 165.409 215.212 167.952C217.815 174.234 220.113 180.631 222.533 186.982C215.505 190.605 211.117 196.039 206.998 201.717C206.766 202.042 206.839 202.576 206.766 203.017C207.389 203.075 208.135 203.365 208.636 203.145C214.478 200.637 220.626 201.415 226.872 201.334C223.657 214.512 218.536 226.808 213.085 239.034C210.274 245.339 208.111 251.922 205.862 258.448C205.299 260.062 204.603 260.422 203.026 260.12C199.946 259.528 196.842 258.993 193.749 258.471C192.099 258.192 190.755 257.577 190.853 255.754C191.183 250.088 190.999 244.317 192.087 238.779C194.409 226.912 197.538 215.185 200.044 203.342C201.413 196.898 202.415 190.361 200.679 183.766C200.496 183.07 201.291 181.978 201.914 181.293C204.615 178.297 207.426 175.406 210.152 172.434C210.506 172.051 210.567 171.424 211.02 170.228C208.905 170.785 207.377 171.18 205.849 171.586L205.825 171.552H205.801Z" fill="#1A1650"/>
<path d="M159.197 81.741C165.014 85.0501 168.143 89.3345 168.791 95.2213C168.84 95.6973 168.791 96.1966 168.803 96.6842C168.926 101.294 169.647 105.834 166.09 109.979C161.556 115.262 156.41 119.558 149.333 121.044C137.722 123.482 127.59 120.812 119.181 112.522C116.516 109.897 116.406 106.739 116.32 103.616C116.223 99.5521 116.394 95.4419 117.017 91.4245C117.31 89.4971 118.508 87.4071 119.951 85.9906C125.829 80.2083 133.151 77.4681 141.829 77.5262C138.859 85.1894 138.981 92.632 142.464 99.9121C144.188 103.523 146.326 106.913 151.301 106.774C154.907 106.67 158.402 103.314 159.624 98.5188C160.993 93.2009 160.871 87.8251 159.197 81.741Z" fill="#FBFBFB"/>
<path d="M30.6904 241.554C30.2993 239.603 29.5782 237.653 29.5537 235.69C29.2726 217.461 28.7226 199.22 29.016 181.003C29.236 167.476 30.5926 153.961 36.9116 141.444C37.9627 139.366 39.3072 137.427 40.5172 135.418C41.5683 135.627 42.6317 135.836 43.6828 136.045C46.3106 138.727 46.7506 142.106 47.0806 145.531C47.2151 146.878 47.4106 148.214 47.4351 149.56C47.5818 157.096 47.924 164.631 47.7162 172.155C47.5329 178.39 46.6773 184.614 46.1273 190.837C44.2573 195.424 42.4484 200.033 40.505 204.585C36.3127 214.396 33.8682 224.637 31.9249 235.017C31.5215 237.2 31.0938 239.371 30.6782 241.554H30.6904Z" fill="#501C06"/>
<path d="M65.1576 183.104C62.7009 187.981 60.2197 192.858 57.7875 197.746C51.1629 211.04 46.5062 224.904 44.245 239.475C43.7073 242.947 43.2184 246.43 42.705 249.914C43.0106 250.053 43.3284 250.192 43.6339 250.32C48.3518 246.999 53.0696 243.667 57.7875 240.346C64.9864 238.918 71.7943 240.66 78.6266 242.518C71.3665 242.297 64.412 243.319 57.763 246.163C50.6129 249.217 44.9295 253.699 41.8617 260.723C41.4095 261.757 41.3728 262.964 41.2017 264.091C41.2017 264.114 41.9472 264.23 42.3506 264.3C41.7028 272.938 44.1228 281.066 46.9217 289.124C47.594 291.074 48.7918 292.863 49.7573 294.72C44.0862 292.932 40.3217 289.112 37.535 284.305C34.0638 278.314 33.0738 271.638 32.6338 264.996C31.2038 243.179 36.2149 222.361 44.5139 202.193C47.154 195.795 50.6618 189.711 53.9985 183.592C54.5485 182.582 56.3452 181.537 57.5186 181.595C60.0853 181.723 62.6153 182.547 65.1576 183.081V183.104Z" fill="#13113F"/>
<path d="M121.552 187.354C119.462 196.132 120.904 204.84 121.931 213.583C123.397 226.053 126.661 238.349 125.939 251.017C125.854 252.549 125.609 254.082 125.341 255.603C124.901 258.169 123.691 258.901 121.124 257.844C118.606 256.811 116.137 255.591 113.864 254.14C113.057 253.629 112.58 252.224 112.495 251.179C111.297 237.351 108.853 223.754 104.294 210.553C103.035 206.895 101.189 203.412 99.6002 199.813C104.575 197.119 111.016 197.13 114.267 200.056C114.829 199.302 115.379 198.559 116.247 197.386C112.03 193.427 107.814 189.351 103.426 185.438C102.228 184.37 101.947 183.604 102.778 182.257C104.831 178.924 106.775 175.522 108.755 172.155C109.329 173.049 109.904 173.955 110.49 174.849C112.715 178.309 114.756 181.885 117.249 185.148C118.105 186.274 120.085 186.634 121.552 187.342V187.354Z" fill="#191650"/>
<path d="M43.6828 136.045C42.6317 135.836 41.5683 135.627 40.5172 135.418C42.6195 132.458 45.7606 130.948 49.1585 129.752C59.7553 126.013 70.5232 122.867 81.7311 121.241C84.5912 131.064 89.2968 140.028 95.7991 148.132C98.2802 151.221 100.798 154.286 102.998 156.98C100.309 157.769 95.8602 159.163 91.3624 160.417C78.5288 163.993 66.4531 169.067 56.1008 177.241C54.3407 178.634 52.1896 180.039 51.6885 182.71C51.4196 184.115 50.0751 185.334 49.2073 186.634C49.3907 184.718 49.6962 182.803 49.7451 180.887C50.0018 171.993 50.4296 163.099 50.2829 154.205C50.1973 149.421 49.2196 144.637 48.3518 139.9C47.9484 137.682 46.9095 135.511 43.695 136.057L43.6828 136.045ZM53.1185 135.755C58.313 146.414 59.2419 157.084 59.7553 168.37C70.1321 162.971 79.9711 157.851 90.1768 152.544C84.8234 147.703 81.7922 142.246 79.5311 136.37C78.7855 134.431 78.92 131.296 77.5999 130.646C75.9255 129.822 73.1265 130.809 70.9021 131.331C65.1087 132.678 59.3519 134.188 53.1185 135.755Z" fill="#702B0B"/>
<path d="M237.127 126.327C255.631 130.402 273.341 136.405 289.536 146.031C290.208 146.437 290.648 147.796 291.247 148.318C290.771 149.061 290.282 149.804 289.805 150.547C286.945 151.476 286.138 153.183 285.821 155.517C284.586 164.399 283.401 173.316 282.704 182.245C282.227 188.329 282.569 194.471 282.545 200.59C280.333 195.586 278.133 190.57 275.884 185.578C275.419 184.544 274.723 183.604 274.124 182.628C274.49 182.141 275.089 181.699 275.199 181.165C276.483 174.443 277.534 167.685 279.013 160.997C279.734 157.746 281.213 154.658 282.276 151.674C269.381 145.764 256.377 140.55 242.394 137.601C242.064 143.65 241.71 149.05 241.563 154.46C241.551 155.11 242.517 156.039 243.262 156.434C253.92 162.031 262.794 169.636 270.799 178.239C271.276 178.75 271.313 179.633 271.545 180.353C261.95 174.861 252.38 169.334 242.749 163.888C240.671 162.716 238.422 161.752 236.185 160.881C234.181 160.103 233.594 159.174 234.56 157.119C238.251 149.212 237.579 140.887 236.931 132.574C236.772 130.507 237.053 128.417 237.139 126.339L237.127 126.327Z" fill="#702B0B"/>
<path d="M97.6813 222.396C95.958 216.764 94.2224 211.145 92.5113 205.514C92.1446 204.318 91.8635 203.098 91.5457 201.903C93.6602 201.531 92.4746 200.416 92.1079 199.534C91.5335 198.222 90.8857 196.933 90.2746 195.633C91.0812 193.682 91.9001 191.731 92.8413 189.467C88.8445 184.939 88.7712 184.173 92.169 178.564C92.3768 178.228 92.6335 177.926 92.8413 177.601C94.4668 174.988 96.0802 172.364 98.1702 169.009C96.2269 169.415 95.1391 169.508 94.1613 169.868C87.9034 172.167 81.6333 174.419 75.461 176.927C72.8943 177.972 70.5843 179.586 68.1643 180.945C64.6931 180.248 61.2219 179.54 57.0297 178.692C60.183 176.649 62.9209 174.57 65.9398 172.991C74.4588 168.544 83.3323 164.875 92.7679 162.437C97.0824 161.322 101.25 159.639 105.491 158.269C106.323 158.002 107.3 157.723 108.119 157.885C111.615 158.582 112.214 159.836 110.515 162.901C107.325 168.66 104.11 174.396 100.81 180.086C100.04 181.409 98.9036 182.524 97.7302 183.987C101.739 187.284 105.821 190.64 110.197 194.251C106.054 195.145 102.644 195.807 99.258 196.631C96.3369 197.339 95.6402 198.977 96.838 201.519C101.825 212.097 104.856 223.232 106.885 234.622C107.753 239.475 108.486 244.34 109.231 249.217C109.341 249.972 109.244 250.75 109.244 252.062C107.251 251.005 105.54 250.088 103.829 249.182C101.971 240.973 100.101 232.764 98.2436 224.555C98.0602 223.836 97.8647 223.116 97.6813 222.396Z" fill="#13113F"/>
<path d="M289.805 150.547C290.282 149.804 290.771 149.061 291.247 148.318C292.335 150.106 293.973 151.778 294.401 153.694C295.794 159.906 297.212 166.164 297.737 172.48C298.422 180.771 298.679 189.13 298.373 197.432C297.957 209.101 296.992 220.747 296.002 232.381C295.44 238.999 294.388 245.583 293.521 252.178C293.46 252.619 293.142 253.025 292.946 253.443C292.421 239.371 290.661 225.508 285.979 212.05C285.124 209.601 284.843 206.976 284.293 204.422C284.708 192.056 284.855 179.679 285.686 167.348C286.028 162.274 286.383 156.91 289.976 152.521C290.294 152.138 289.878 151.221 289.805 150.547Z" fill="#501C06"/>
<path d="M143.723 256.102C138.687 256.346 133.652 256.602 128.396 256.857C129.606 247.475 128.836 237.966 127.26 228.445C125.707 218.994 124.595 209.484 123.214 199.487C126.502 202.042 129.301 204.294 132.197 206.431C134.202 207.917 136.231 209.45 138.467 210.553C139.959 211.284 141.829 211.307 143.528 211.656C143.821 212.341 144.102 213.037 144.408 213.722C145.618 216.474 146.876 219.203 148.038 221.966C148.539 223.15 149.296 224.451 149.162 225.624C148.636 230.419 147.928 235.203 147.048 239.952C146.058 245.362 144.811 250.726 143.686 256.102H143.723Z" fill="#FCFCFC"/>
<path d="M271.545 180.341C271.3 179.633 271.276 178.739 270.799 178.228C262.806 169.624 253.92 162.007 243.262 156.422C242.517 156.028 241.539 155.11 241.563 154.449C241.71 149.05 242.064 143.65 242.394 137.59C256.377 140.539 269.381 145.752 282.276 151.662C281.213 154.646 279.734 157.746 279.013 160.986C277.534 167.662 276.495 174.431 275.199 181.154C275.102 181.688 274.503 182.129 274.124 182.617C273.268 181.862 272.4 181.096 271.545 180.341Z" fill="#993E00"/>
<path d="M238.275 297.054C244.142 297.008 249.96 297.182 255.753 295.603C266.069 292.793 273.366 286.709 278.548 277.989C279.55 276.294 280.846 274.738 281.995 273.124C285.234 271.022 285.723 265.182 282.582 261.815C275.664 254.384 267.145 249.6 256.572 248.625C252.637 248.265 248.677 248.044 244.619 247.464C247.369 247.069 250.119 246.674 252.857 246.279C255.631 245.885 258.394 245.49 261.168 245.095C269.015 245.258 275.652 248.636 282.215 252.224C282.924 252.607 283.584 253.072 284.293 253.443C284.537 253.571 284.855 253.571 285.686 253.734C285.686 249.902 285.906 246.21 285.637 242.541C285.258 237.351 284.647 232.172 283.926 227.005C282.667 218.007 279.343 209.566 275.786 201.206C273.647 196.178 271.325 191.22 269.076 186.228C272.107 185.937 273.989 186.785 275.419 189.769C281.152 201.74 284.721 214.291 287.556 227.098C289.842 237.385 291.174 247.719 290.551 258.204C289.891 269.432 287.226 280.091 278.805 288.601C272.816 294.651 265.152 297.971 256.78 299.922C250.473 301.397 244.118 301.675 237.481 300.259C237.75 299.19 238.007 298.111 238.275 297.031V297.054Z" fill="#13113F"/>
<path d="M184.888 257.287H173.045C170.6 244.712 168.18 232.207 165.723 219.551C170.906 216.416 170.661 209.937 174.01 205.003C175.086 208.254 176.076 211.238 177.139 214.442C183.079 211.319 188.298 208.579 193.505 205.827C191.794 212.271 190.217 218.738 188.359 225.136C185.291 235.679 182.199 246.187 184.888 257.275V257.287Z" fill="#FCFCFC"/>
<path d="M228.693 45.4916C222.765 44.644 216.813 43.959 210.934 42.9024C198.235 40.615 185.634 37.8284 172.886 35.8429C161.751 34.1129 150.433 32.6035 139.25 35.6339C127.455 38.8386 118.716 45.7355 113.24 56.2317C112.947 56.7891 112.825 57.4277 113.167 58.403C114.89 56.8123 116.675 55.2796 118.337 53.6425C123.275 48.7543 128.995 44.8995 135.497 42.1593C137.49 41.3233 139.751 41.0679 142.317 40.4409C136.402 44.0287 130.902 47.0707 125.768 50.5772C122.652 52.7136 120.109 55.5931 117.249 58.0895C116.369 58.8558 115.33 59.4712 114.377 60.1562C113.522 60.342 112.519 60.3188 111.835 60.7484C109.733 62.0488 107.74 63.5118 105.711 64.9167C105.345 64.7309 104.99 64.5568 104.624 64.371C105.931 60.0285 107.068 55.628 108.596 51.3551C110.918 44.8879 116.21 40.6963 121.784 36.8299C133.114 28.9925 145.569 26.7864 159.221 29.8517C182.211 35.0186 205.238 40.0345 228.241 45.1201C228.412 45.1549 228.546 45.3639 228.693 45.4916Z" fill="#E19E19"/>
<path d="M209.944 290.215C201.119 274.68 186.77 265.739 169.659 260.073C169.72 259.771 169.781 259.458 169.842 259.156C174.927 259.156 180.011 258.912 185.071 259.214C192.784 259.667 200.325 261.188 207.573 263.835C209.712 264.625 211.716 265.751 213.794 266.726C214.1 267.307 214.307 267.969 214.735 268.445C222.044 276.654 220.052 285.78 209.944 290.215Z" fill="#0096E7"/>
<path d="M165.271 122.542C163.083 130.344 158.928 136.928 152.059 141.839C146.473 145.845 140.032 146.077 134.507 142.455C132.967 140.469 131.293 138.565 129.9 136.487C127.455 132.829 125.194 129.079 122.847 125.363C123.104 125.201 123.361 125.027 123.629 124.864C124.192 125.061 124.754 125.247 125.304 125.468C134.397 129.021 143.735 130.205 153.244 127.337C157.363 126.095 161.262 124.167 165.259 122.542H165.271Z" fill="#047FC1"/>
<path d="M235.073 113.845C234.56 121.613 233.081 129.16 228.815 135.929C227.593 137.868 225.919 139.68 224.085 141.119C221.396 143.221 219.05 142.954 216.177 140.771C215.884 139.889 215.64 138.983 215.273 138.135C213.268 133.526 211.02 128.997 209.308 124.295C208.428 121.903 208.49 119.198 208.147 116.76C211.802 117.387 214.845 118.072 217.937 118.42C224.281 119.128 229.928 117.236 235.085 113.834L235.073 113.845Z" fill="#047FC1"/>
<path d="M160.908 219.47C155.628 219.354 155.078 218.901 153.99 215.092C152.719 210.611 151.325 206.164 150.115 201.67C149.895 200.846 149.92 199.511 150.445 199.023C154.32 195.482 158.304 192.045 162.362 188.701C163.853 187.47 165.54 187.807 166.506 189.421C168.437 192.683 170.221 196.039 171.957 199.406C172.226 199.917 172.03 200.776 171.786 201.368C169.903 205.966 168.095 210.599 165.992 215.116C164.856 217.566 162.814 219.296 160.908 219.47Z" fill="#BF010E"/>
<path d="M109.476 275.423C112.739 276.503 111.566 279.475 112.348 281.6C112.666 282.471 112.385 283.539 112.507 284.491C112.727 286.151 113.705 286.895 115.489 286.442C134.691 281.53 150.739 287.731 165.344 299.132C170.221 302.941 175.135 306.714 180.036 310.5C179.412 310.767 178.581 311.417 178.202 311.231C174.511 309.455 170.722 307.771 167.288 305.588C162.973 302.848 159.013 299.585 154.809 296.683C147.426 291.585 139.103 289.867 130.156 291.144C124.742 291.91 119.376 292.979 113.998 294.024C110.747 294.651 108.681 293.699 107.361 290.424C105.21 285.083 106.934 280.195 109.464 275.423H109.476Z" fill="#00679E"/>
<path d="M170.258 256.973C163.951 259.597 158.39 256.973 152.462 256.625C154.442 245.118 156.41 233.751 158.439 221.955C159.392 221.897 160.761 221.827 162.704 221.722C165.222 233.484 167.728 245.188 170.258 256.973Z" fill="#BF010E"/>
<path d="M160.394 69.3985C162.411 73.1256 164.416 76.8528 166.432 80.5799C166.176 80.696 165.919 80.8237 165.674 80.9398C162.998 79.442 160.456 77.6075 157.608 76.4928C147.585 72.5915 137.502 73.1024 127.516 76.8063C126.379 77.2243 125.243 77.6539 124.106 78.0835C124.937 76.1329 125.609 74.101 126.636 72.2316C131.146 64.0227 140.655 58.5191 152.047 64.313C154.955 65.7875 157.632 67.6801 160.419 69.3869L160.394 69.3985Z" fill="#047FC0"/>
<path d="M229.549 88.2315C231.981 89.1952 234.267 90.8439 234.609 94.1879C234.743 95.4419 234.951 96.6842 235.171 97.9266C236.357 104.568 231.138 107.947 225.185 109.387C218.597 110.977 212.303 109.642 207.377 104.87C206.253 103.79 205.471 101.874 205.471 100.353C205.471 96.0108 205.471 91.4361 209.932 88.6262C211.765 87.4768 213.867 86.7221 215.603 85.8977C216.055 90.3098 216.226 94.4201 216.972 98.4375C217.754 102.71 220.235 105.137 222.997 105.149C225.772 105.16 227.666 103.337 228.656 98.6116C229.353 95.3025 229.268 91.8541 229.549 88.2431V88.2315Z" fill="#F8F8F8"/>
<path d="M125.108 196.283C124.619 195.447 123.617 194.564 123.703 193.786C124.192 189.49 124.937 185.218 125.597 180.968C129.117 182.176 132.332 183.697 135.742 184.382C142.501 185.74 148.734 184.068 154.259 180.213C155.848 179.099 157.155 179.017 159.013 179.621C166.115 181.932 171.089 186.681 175.599 192.033C174.193 192.022 172.788 192.01 171.37 191.998C169.243 189.49 167.117 186.994 165.076 184.602C163.181 185.369 161.458 186.065 159.734 186.762C158.549 186.855 157.168 186.588 156.227 187.087C148.074 191.395 139.604 193.113 130.486 190.408C128.702 189.874 127.956 190.431 127.382 192.056C126.856 193.543 125.878 194.878 125.096 196.283H125.108Z" fill="#B5B5B7"/>
<path d="M97.278 298.738C92.3035 288.625 94.2346 279.835 100.114 271.603C103.511 266.842 111.187 262.43 116.088 262.152C107.484 272.033 99.2702 281.937 107.643 296.044C104.343 296.903 100.639 297.867 97.278 298.749V298.738Z" fill="#F9F9F9"/>
<path d="M68.152 180.956C70.5721 179.598 72.8821 177.972 75.4488 176.939C81.6089 174.431 87.8912 172.19 94.1491 169.88C95.1268 169.52 96.2146 169.427 98.158 169.02C96.0802 172.376 94.4546 175 92.829 177.612C92.6213 177.949 92.3524 178.239 92.1568 178.576C88.7468 184.184 88.8323 184.951 92.829 189.479C91.8879 191.743 91.0812 193.694 90.2623 195.644C88.429 194.042 86.4856 192.532 84.7867 190.814C80.1422 186.123 74.1777 183.499 68.152 180.956Z" fill="#1A1650"/>
<path d="M125.108 196.283C125.891 194.878 126.881 193.543 127.394 192.056C127.956 190.443 128.714 189.885 130.498 190.408C139.604 193.113 148.086 191.395 156.239 187.087C157.18 186.588 158.561 186.855 159.747 186.762C151.301 192.3 145.654 199.94 141.56 208.857C135.534 205.2 129.57 201.647 125.108 196.283Z" fill="#F9F9F9"/>
<path d="M171.382 191.998C172.788 192.01 174.193 192.022 175.611 192.033C176.601 193.252 177.518 194.541 178.618 195.679C179.302 196.376 180.244 196.84 181.075 197.409C181.331 196.561 181.698 195.737 181.832 194.878C181.955 194.123 181.82 193.334 181.796 192.556C187.296 192.614 192.869 193.194 198.052 190.686C197.832 193.752 197.697 196.829 197.318 199.882C197.233 200.567 196.463 201.392 195.778 201.775C190.034 204.979 184.24 208.103 178.875 211.029C176.394 204.736 173.888 198.373 171.382 192.022V191.998Z" fill="#FBFBFB"/>
<path d="M143.723 256.102C144.86 250.715 146.094 245.351 147.084 239.952C147.952 235.203 148.661 230.419 149.199 225.624C149.333 224.451 148.575 223.15 148.074 221.966C146.913 219.203 145.654 216.474 144.444 213.722C144.139 213.037 143.858 212.341 143.564 211.656C144.664 208.915 145.764 206.187 146.876 203.447C147.182 203.482 147.488 203.516 147.793 203.551C149.113 208.323 150.335 213.13 151.802 217.856C152.181 219.098 153.354 220.108 154.014 221.304C154.344 221.897 154.467 222.686 154.405 223.371C153.965 227.899 153.599 232.439 152.914 236.933C152.059 242.564 150.934 248.149 149.883 253.745C149.724 254.57 149.394 255.359 149.15 256.102H143.723Z" fill="#B5B5B7"/>
<path d="M192.209 47.9764C187.406 46.8153 182.602 45.6542 177.799 44.4931C177.824 44.2028 177.848 43.9242 177.86 43.6339C180.806 43.959 183.874 43.8893 186.66 44.6905C196.609 47.5352 206.534 50.4727 216.324 53.7702C225.259 56.7775 234.425 58.4959 243.837 58.7978C254.03 59.1229 264.309 59.3086 274.319 57.0329C277.253 56.3711 279.868 54.5017 282.643 53.1781C283.339 52.911 284.036 52.6324 284.733 52.3653C285.857 54.8849 284.928 56.94 282.521 57.9037C279.184 59.239 275.676 60.7484 272.156 61.0038C256.805 62.0953 241.6 60.6555 226.432 58.194C215.64 56.4407 205.458 53.271 195.619 48.8472C194.58 48.3828 193.358 48.2666 192.222 47.988L192.209 47.9764Z" fill="#F8F5D1"/>
<path d="M165.271 122.542C161.274 124.156 157.388 126.095 153.257 127.337C143.748 130.193 134.41 129.021 125.316 125.468C124.766 125.247 124.192 125.061 123.642 124.864C123.385 125.027 123.128 125.201 122.859 125.363C125.206 129.079 127.467 132.829 129.912 136.487C131.305 138.565 132.967 140.469 134.52 142.455C131.611 139.819 128.188 137.531 125.903 134.466C121.906 129.114 119.022 123.134 118.056 117.119C122.603 119.418 127.076 122.611 132.087 124.016C144.713 127.569 156.08 124.748 165.711 116.051C166.151 115.656 166.652 115.331 167.129 114.971L167.08 114.925C166.481 117.468 165.87 119.999 165.271 122.542Z" fill="#00659A"/>
<path d="M235.073 113.845C229.915 117.247 224.269 119.128 217.925 118.432C214.833 118.083 211.79 117.41 208.135 116.771C208.477 119.209 208.428 121.903 209.296 124.307C211.02 129.009 213.268 133.537 215.261 138.147C215.627 138.994 215.86 139.9 216.165 140.783C214.515 138.878 212.425 137.172 211.288 135.024C207.011 126.907 205.361 118.176 205.226 108.76C209.968 111.86 214.918 113.799 220.455 113.729C225.943 113.671 230.832 111.929 235.367 107.529C235.244 110.13 235.159 111.987 235.073 113.845Z" fill="#00659A"/>
<path d="M209.944 290.215C220.052 285.78 222.044 276.654 214.735 268.445C214.307 267.969 214.1 267.295 213.794 266.726C219.221 268.944 223.706 272.276 226.395 277.315C228.51 281.275 227.263 285.083 224.489 288.369C222.912 290.238 221.189 292.236 219.05 293.339C217.693 294.047 215.444 293.072 213.611 293.141C211.313 293.234 210.298 292.177 209.956 290.215H209.944Z" fill="#00679E"/>
<path d="M204.627 80.5102C192.564 83.2155 182.297 79.0124 172.446 73.056C170.356 71.7904 167.948 71.0125 165.687 70.0139C164.55 68.2142 163.401 66.4029 161.763 63.8253C164.134 64.7309 165.797 65.2651 167.349 65.9849C173.729 68.9573 180.011 72.1503 186.465 74.9718C192.6 77.6655 199.042 77.77 205.519 76.0052C205.874 75.9123 206.289 75.9935 206.949 75.9935C206.118 77.6075 205.361 79.0588 204.615 80.5102H204.627Z" fill="#00669C"/>
<path d="M184.888 257.287C182.199 246.198 185.291 235.69 188.359 225.148C190.217 218.75 191.794 212.283 193.505 205.839C194.422 205.316 195.338 204.794 196.487 204.132C194.544 222.222 185.756 238.976 188.054 257.554C186.819 257.449 185.854 257.368 184.888 257.298V257.287Z" fill="#B5B5B7"/>
<path d="M119.352 71.6859C117.188 73.2301 114.829 74.577 112.923 76.3651C109.317 79.7323 105.186 82.1241 100.272 83.0065C97.9624 83.4245 95.5058 83.0762 92.5113 83.0762C95.1391 87.3839 97.5958 91.4361 100.065 95.4767C99.7347 95.7554 99.4169 96.034 99.0869 96.3127C97.8036 95.7089 96.5202 95.1051 95.2368 94.5014C92.499 89.6828 89.7246 84.8991 87.0723 80.0458C86.4856 78.9776 86.3512 77.6771 85.9112 76.1213C86.6445 76.3187 87.0967 76.307 87.2923 76.516C92.8046 82.3447 103.89 80.3593 109.256 76.1445C112.788 73.3695 115.942 70.1765 119.278 67.1809C120.659 65.9385 122.089 64.7309 123.483 63.5002C123.691 63.6511 123.886 63.7905 124.094 63.9414C122.517 66.5306 120.941 69.1199 119.376 71.6975L119.352 71.6859Z" fill="#00669C"/>
<path d="M87.8545 108.493C88.8445 124.701 94.6746 138.809 107.655 149.816C108.07 150.164 108.718 150.28 109.256 150.513C109.513 152.022 109.782 153.531 110.063 155.203C99.2091 149.746 80.0567 119.569 84.2245 104.893C85.5201 106.182 86.6812 107.331 87.8545 108.493Z" fill="#00669C"/>
<path d="M235.208 297.449C230.502 296.23 226.701 295.254 222.521 294.175C227.593 289.135 231.614 284.154 228.803 276.979C226.273 270.512 220.785 267.063 214.698 264.184C214.784 263.951 214.857 263.731 214.943 263.499C216.752 264.067 218.769 264.334 220.345 265.263C228.84 270.279 233.387 277.768 234.658 287.069C235.11 290.343 235.037 293.687 235.22 297.46L235.208 297.449Z" fill="#F6F6F6"/>
<path d="M134.19 179.772C144.481 180.132 151.387 174.57 157.18 167.511C162.741 160.73 168.07 153.752 170.209 145.09C170.771 142.814 171.749 142.733 173.228 144.37C172.629 145.555 171.835 146.669 171.443 147.912C168.412 157.665 164.318 166.837 156.324 173.978C151.313 178.448 145.666 181.479 138.516 180.875C137.05 180.747 135.632 180.144 134.19 179.772Z" fill="#1BAAF7"/>
<path d="M121.552 187.354C120.085 186.646 118.105 186.286 117.249 185.16C114.756 181.885 112.703 178.309 110.49 174.861C109.916 173.967 109.341 173.061 108.755 172.167C110.05 169.496 111.346 166.826 112.849 163.726C115.343 167.801 116.822 171.9 119.731 174.559C124.253 178.715 122.126 182.965 121.552 187.366V187.354Z" fill="#13113F"/>
<path d="M160.394 69.3985C157.608 67.6917 154.931 65.7992 152.022 64.3246C140.631 58.5307 131.134 64.0343 126.612 72.2432C125.585 74.101 124.913 76.1329 124.082 78.0951C122.859 78.9195 121.625 79.7555 120.403 80.5799C120.183 80.4638 119.975 80.3476 119.755 80.2315C120.549 78.3738 121.063 76.3303 122.199 74.6699C125.121 70.3971 127.846 65.8804 131.501 62.2346C136.597 57.149 143.638 56.6149 150.629 60.1562C154.797 62.2578 158.39 65.1257 160.394 69.3985Z" fill="#00659A"/>
<path d="M231.541 67.7266C221.03 64.2665 210.702 60.3768 201.205 54.792C199.017 53.5148 197 51.9705 194.898 50.554C200.863 52.9458 206.668 55.8021 212.816 57.6367C221.519 60.2259 230.478 62.0488 238.911 64.104C237.982 64.8703 236.515 66.0778 235.635 66.8093C233.875 67.2041 232.714 67.4711 231.553 67.7266H231.541Z" fill="#E19E19"/>
<path d="M43.6828 136.045C46.8973 135.5 47.9362 137.671 48.3396 139.889C49.2073 144.626 50.1974 149.409 50.2707 154.193C50.4174 163.087 49.9773 171.981 49.7329 180.875C49.684 182.791 49.3785 184.707 49.1951 186.622C48.1684 188.027 47.154 189.432 46.1273 190.837C46.6895 184.614 47.5451 178.39 47.7162 172.155C47.9362 164.631 47.5818 157.084 47.4351 149.56C47.4106 148.214 47.2029 146.867 47.0806 145.531C46.7506 142.106 46.3106 138.727 43.6828 136.045Z" fill="#130701"/>
<path d="M174.572 147.645C174.658 149.514 175.11 151.453 174.78 153.253C173.497 160.324 171.248 167.128 167.361 173.34C166.469 174.756 166.628 175.65 167.911 176.811C170.258 178.936 172.409 181.258 174.523 183.592C175.135 184.265 175.342 185.264 175.734 186.112C173.582 184.37 171.578 182.408 169.243 180.922C166.334 179.064 163.144 177.578 160.236 176.01C162.766 172.144 165.846 168.266 167.96 163.958C170.392 159.023 171.957 153.694 173.925 148.55C174.047 148.214 174.34 147.947 174.56 147.645H174.572Z" fill="#00669C"/>
<path d="M284.733 52.3537C284.036 52.6207 283.339 52.8994 282.643 53.1665C279.123 51.8544 275.7 49.9967 272.046 49.3813C267.658 48.6382 263.087 48.9749 258.589 48.8356C253.957 47.9532 249.312 47.0707 244.68 46.1883C244.704 45.9445 244.741 45.689 244.766 45.4452C246.538 45.271 248.31 44.8763 250.07 44.9459C258.222 45.2478 266.399 45.4452 274.515 46.1651C278.78 46.5366 282.349 48.7659 284.733 52.3653V52.3537Z" fill="#E19E19"/>
<path d="M231.492 83.4594C231.749 84.0748 232.005 84.6785 232.555 85.9906C225.528 81.9035 218.671 81.2301 211.521 83.5755C211.655 82.7163 211.582 81.7642 211.948 80.9979C215.297 74.0197 221.213 69.9326 227.654 78.7453C228.84 80.3709 230.209 81.8919 231.492 83.4594Z" fill="#047FC1"/>
<path d="M198.052 190.675C192.882 193.194 187.308 192.602 181.796 192.544C181.197 190.152 180.586 187.76 180.097 185.821C185.744 185.322 191.378 184.811 197.526 184.265C197.66 185.961 197.856 188.318 198.052 190.663V190.675Z" fill="#B5B5B7"/>
<path d="M150.494 269.722C151.313 269.78 152.548 269.536 152.902 269.954C161.348 279.858 173.203 286.86 179.828 298.296C182.028 302.093 184.081 305.971 186.196 309.814C184.9 309.095 182.871 308.665 182.419 307.62C178.96 299.527 173.277 292.979 167.056 286.755C162.118 281.832 157.119 276.956 152.193 272.033C151.521 271.359 151.056 270.488 150.494 269.71V269.722Z" fill="#00669C"/>
<path d="M289.805 150.547C289.878 151.221 290.294 152.138 289.976 152.521C286.383 156.91 286.028 162.274 285.686 167.348C284.855 179.691 284.708 192.068 284.293 204.422C283.669 203.389 283.156 201.612 282.533 200.579C282.557 194.46 282.203 188.318 282.692 182.234C283.401 173.293 284.586 164.388 285.808 155.505C286.126 153.171 287.031 150.721 289.891 149.793L289.805 150.547Z" fill="#130701"/>
<path d="M98.2436 224.555C100.101 232.764 101.971 240.973 103.829 249.182C101.678 248.323 99.5391 247.464 97.0702 246.488C97.0702 240.962 96.9724 235.412 97.1191 229.862C97.168 228.085 97.8402 226.32 98.2313 224.555H98.2436Z" fill="#191650"/>
<path d="M224.904 161.833C225.931 159.058 227.263 156.353 227.923 153.508C228.779 149.793 229.109 145.961 229.659 142.176C231.223 139.703 232.788 137.241 234.291 134.861C235.978 142.571 233.301 153.322 229.341 158.466C228.265 159.871 226.395 160.719 224.892 161.833H224.904Z" fill="#1BAAF7"/>
<path d="M52.2385 240.509C51.0774 242.703 49.3296 241.426 48.6696 240.532C48.1073 239.754 48.254 237.56 48.914 237.107C50.4051 236.097 52.3607 235.551 54.2063 235.238C61.3686 234.007 68.5187 234.645 75.6444 235.737C76.0477 235.795 76.4633 235.748 76.8666 235.748C77.9666 236.724 79.0544 237.687 80.1544 238.663C70.3398 237.78 60.6597 235.818 50.6129 239.824C51.5296 240.219 51.884 240.358 52.2263 240.509H52.2385Z" fill="#13113F"/>
<path d="M169.5 272.021C171.48 270.593 172.996 272.009 173.986 273.124C178.581 278.291 183.275 283.423 187.296 288.984C189.545 292.096 190.73 295.963 192.075 299.597C193.383 303.127 195.13 306.134 198.883 307.759C199.469 308.015 199.885 308.619 200.386 309.071C196.12 309.501 193.26 307.783 192.112 304.125C188.041 291.214 180.256 280.683 169.512 272.021H169.5Z" fill="#00669C"/>
<path d="M137.685 308.7C139.311 303.603 142.623 299.574 146.656 295.754C148.465 296.752 150.189 297.704 151.912 298.656C148.441 303.626 144.334 307.794 137.685 308.7Z" fill="#0096E7"/>
<path d="M235.171 82.9253C237.249 81.2881 239.412 79.7323 241.368 77.9558C242.077 77.3172 242.26 76.1677 242.688 75.2504L242.663 75.2621C242.883 75.0763 243.091 74.9021 243.311 74.7163C243.274 74.3216 243.238 73.9268 243.201 73.5204C243.69 71.4072 244.167 69.3056 244.656 67.1925C247.76 70.9428 248.432 75.0298 246.354 79.3955C244.521 83.2504 240.121 85.143 235.941 83.947C235.599 83.8541 235.415 83.262 235.159 82.9021L235.171 82.9253Z" fill="#F8F5D1"/>
<path d="M106.371 67.6569C103.047 69.9443 99.5391 71.2563 95.3102 70.1881C92.5113 69.4914 91.7657 70.3158 92.279 72.9863C92.4257 73.7294 92.5479 74.4841 92.6702 75.2272C91.2279 73.8107 89.3701 72.5799 88.4656 70.8964C87.8423 69.7236 88.0012 67.5408 88.7957 66.4958C89.969 64.9516 91.9124 64.3942 94.1368 65.6366C97.8891 67.7266 101.996 68.5858 106.359 67.6453L106.371 67.6569Z" fill="#E19E19"/>
<path d="M231.492 83.4594C230.209 81.8919 228.84 80.3825 227.654 78.7453C221.213 69.9326 215.297 74.0197 211.948 80.9979C211.582 81.7642 211.655 82.7163 211.521 83.5755C210.69 83.9587 209.846 84.3418 209.015 84.7134C208.893 84.5973 208.783 84.4811 208.661 84.3766C210.738 80.5799 212.425 76.5044 215.028 73.0444C217.424 69.8746 220.834 69.921 224.11 72.4638C227.813 75.3433 230.27 79.0356 231.492 83.4594Z" fill="#00659A"/>
<path d="M127.296 56.7775C128.152 56.0111 128.873 55.001 129.875 54.5133C139.335 49.9038 149.199 47.9531 159.71 50.7514C160.052 50.8443 160.37 51.0417 161.543 51.5758C153.232 52.6091 145.483 50.6469 138.284 53.5728C134.617 54.641 130.951 55.7093 127.296 56.7658V56.7775Z" fill="#F8F5D1"/>
<path d="M194.128 284.816C195.79 286.79 197.636 288.636 199.066 290.749C201.914 294.953 203.796 299.852 208.771 302.418C209.712 302.906 210.824 303.103 211.863 303.44C212.217 304.961 211.826 305.786 209.932 305.855C206.436 305.983 203.295 303.905 201.889 300.816C199.433 295.429 196.732 290.146 194.128 284.816Z" fill="#00679E"/>
<path d="M178.092 180.62C180.072 180.26 182.065 179.923 184.033 179.528C189.154 178.506 194.263 177.438 199.384 176.428C200.264 176.254 201.193 176.277 202.097 176.207C195.546 181.595 187.919 183.255 179.498 181.92C178.972 181.839 178.557 181.072 178.092 180.631V180.62Z" fill="#00659A"/>
<path d="M168.241 61.3754C173.313 63.0706 178.276 65.416 183.495 66.2752C188.665 67.1228 194.092 66.461 199.237 66.461C192.992 68.8877 186.245 69.3521 179.278 68.2142C174.108 65.7063 168.95 63.2099 163.78 60.7136C165.271 60.9342 166.75 61.1664 168.241 61.387V61.3754Z" fill="#F8F5D1"/>
<path d="M128.311 306.401C129.765 301.141 134.031 297.809 137.917 294.337C138.626 293.699 140.753 294.5 142.232 294.639C140.912 296.195 139.604 297.762 138.272 299.318C135.571 302.453 132.98 305.751 128.311 306.401Z" fill="#0096E7"/>
<path d="M137.685 308.7C144.334 307.783 148.441 303.626 151.912 298.656C153.77 299.249 154.027 300.143 152.755 301.629C151.35 303.278 150.03 305.008 148.832 306.807C146.644 310.105 143.124 311.057 139.47 311.533C137.196 311.835 137.636 310.023 137.685 308.7Z" fill="#00679E"/>
<path d="M168.241 61.3754C166.75 61.1548 165.271 60.9226 163.78 60.702C159.906 58.9719 156.043 57.2535 152.169 55.5235C155.628 56.255 159.05 57.1374 162.546 57.6947C168.241 58.612 173.973 59.3086 179.694 60.0982C180.134 60.1562 180.574 60.3072 181.014 60.4117C180.989 60.7368 180.952 61.0503 180.928 61.3754H168.241Z" fill="#E19E19"/>
<path d="M128.311 306.401C132.98 305.751 135.559 302.453 138.272 299.318C139.604 297.774 140.912 296.206 142.232 294.639C142.611 294.685 142.99 294.743 142.916 294.732C140.374 299.074 138.137 303.672 135.082 307.725C134.128 308.99 131 308.781 128.861 309.257C128.677 308.305 128.494 307.353 128.311 306.401Z" fill="#00669C"/>
<path d="M130.254 294.128C131.513 293.954 132.772 293.78 133.701 293.652C131.244 297.205 128.922 300.897 126.184 304.288C125.524 305.112 123.471 305.159 122.089 305.089C121.613 305.066 121.197 303.649 120.745 302.86C125.646 301.64 127.553 297.495 130.254 294.117V294.128Z" fill="#00659A"/>
<path d="M159.319 303.463C160.187 303.905 161.042 304.334 162.216 304.926C158.097 307.748 154.638 310.964 148.685 311.8C149.712 309.942 150.372 308.758 151.032 307.562C152.01 307.156 153.024 306.796 153.978 306.32C155.787 305.402 157.547 304.427 159.331 303.475L159.319 303.463Z" fill="#00669C"/>
<path d="M185.475 71.2447C193.26 71.6278 200.643 69.8978 207.842 67.2157C207.976 67.4247 208.111 67.6337 208.245 67.8427C206.803 68.7715 205.361 69.712 203.918 70.6409C200.142 71.5582 196.353 72.4754 192.576 73.3927C190.205 72.6728 187.846 71.9529 185.475 71.2331V71.2447Z" fill="#E19E19"/>
<path d="M130.254 294.128C127.553 297.507 125.646 301.664 120.745 302.871C121.038 301.861 121.246 300.816 121.625 299.829C123.593 294.743 124.448 294.186 130.254 294.117V294.128Z" fill="#0096E7"/>
<path d="M244.668 67.2041C244.179 69.3173 243.702 71.4188 243.213 73.532C241.38 72.6148 239.559 71.7091 236.943 70.4087C239.18 68.7251 240.708 67.4131 242.443 66.3797C242.847 66.1359 243.91 66.9022 244.668 67.2041Z" fill="#E19E19"/>
<path d="M92.1568 93.9208C92.0957 94.1995 92.1324 94.6407 91.9613 94.7452C88.7957 96.5565 87.9768 99.5986 87.2312 102.699C85.4712 100.063 85.4345 96.1617 87.1334 94.0485C88.9179 91.8425 90.079 91.8076 92.1568 93.9208Z" fill="#00659A"/>
<path d="M159.319 303.463C157.534 304.415 155.774 305.402 153.965 306.308C153.024 306.784 152.01 307.144 151.02 307.55C152.56 305.414 154.088 303.278 155.884 300.781C157.217 301.815 158.268 302.639 159.319 303.452V303.463Z" fill="#0096E7"/>
<path d="M181.246 272.485C182.309 272.903 183.654 273.078 184.375 273.797C186.929 276.375 189.276 279.15 191.696 281.855C188.213 278.732 184.729 275.609 181.246 272.485Z" fill="#00679E"/>
<path d="M192.564 73.4043C196.34 72.487 200.129 71.5698 203.906 70.6525C202.256 71.6859 200.594 72.7193 198.944 73.7526C196.817 73.6365 194.69 73.5204 192.564 73.4043Z" fill="#F8F5D1"/>
<path d="M55.9419 240.323C55.1108 240.369 54.2919 240.416 53.4607 240.451C54.2919 240.404 55.1108 240.358 55.9419 240.323Z" fill="#13113F"/>
<path d="M205.825 171.575C205.593 171.714 205.373 171.865 205.141 171.993C205.141 171.993 205.031 171.853 204.982 171.784C205.251 171.702 205.532 171.633 205.801 171.552L205.825 171.586V171.575Z" fill="#1A1650"/>
<path d="M209.003 84.725C208.868 84.8295 208.722 84.934 208.587 85.0385C208.612 84.8179 208.624 84.6089 208.648 84.3883C208.771 84.4928 208.893 84.6089 209.003 84.725Z" fill="#00659A"/>
<path d="M167.129 114.971C167.166 114.89 167.19 114.797 167.239 114.739C167.263 114.704 167.349 114.716 167.41 114.704C167.3 114.774 167.19 114.855 167.092 114.925L167.141 114.971L167.129 114.971Z" fill="#00659A"/>
<path d="M133.346 179.609C133.542 179.656 133.75 179.702 133.945 179.737C133.75 179.691 133.542 179.644 133.346 179.609Z" fill="#1BAAF7"/>
<path d="M191.745 120.254C188.286 120.928 184.827 121.59 180.512 122.426C182.187 120.87 183.201 119.523 184.57 118.745C186.685 117.537 188.824 116.551 188.335 113.961C190.694 115.32 192.992 116.585 195.216 117.955C198.027 119.697 198.137 122.182 195.082 123.459C188.371 126.257 186.159 131.273 186.135 137.729C186.135 138.623 185.707 139.517 185.145 140.388C183.641 136.719 184.631 133.05 184.876 129.369C185.169 124.945 189.594 123.923 192.05 121.288L191.745 120.266V120.254Z" fill="#00070B"/>
<path d="M175.367 178.286C175.318 178.054 175.257 177.81 175.208 177.578C175.391 177.705 175.575 177.833 175.758 177.949C175.636 178.077 175.514 178.181 175.367 178.286Z" fill="#030405"/>
<path d="M53.1185 135.755C59.3519 134.188 65.0964 132.678 70.9021 131.331C73.1388 130.809 75.9255 129.833 77.5999 130.646C78.92 131.296 78.7733 134.431 79.5311 136.37C81.8044 142.246 84.8356 147.703 90.1768 152.544C79.9589 157.862 70.1198 162.983 59.7553 168.37C59.2419 157.073 58.313 146.414 53.1185 135.755Z" fill="#993E00"/>
</g>
<defs>
<filter id="filter0_d_238_641" x="0" y="0" width="329" height="345" filterUnits="userSpaceOnUse" color-interpolation-filters="sRGB">
<feFlood flood-opacity="0" result="BackgroundImageFix"/>
<feColorMatrix in="SourceAlpha" type="matrix" values="0 0 0 0 0 0 0 0 0 0 0 0 0 0 0 0 0 0 127 0" result="hardAlpha"/>
<feOffset dx="1" dy="3"/>
<feComposite in2="hardAlpha" operator="out"/>
<feColorMatrix type="matrix" values="0 0 0 0 0 0 0 0 0 0 0 0 0 0 0 0 0 0 0.25 0"/>
<feBlend mode="normal" in2="BackgroundImageFix" result="effect1_dropShadow_238_641"/>
<feBlend mode="normal" in="SourceGraphic" in2="effect1_dropShadow_238_641" result="shape"/>
</filter>
</defs>
</svg>
