<svg width="62" height="10" viewBox="0 0 62 10" fill="none" xmlns="http://www.w3.org/2000/svg">
<path d="M32.0932 3.55228L30.8683 0L29.7659 3.55228H25.9686L29.0309 5.75714L27.806 9.30942L30.8683 7.10456L33.9306 9.30942L32.8282 5.75714L35.8905 3.55228H32.0932Z" fill="#000129"/>
<path d="M6.12462 3.55228L4.8997 0L3.79727 3.55228H0L3.06231 5.75714L1.83739 9.30942L4.8997 7.10456L7.96201 9.30942L6.85958 5.75714L9.92189 3.55228H6.12462Z" fill="#000129"/>
<path d="M19.1088 3.55228L17.8838 0L16.7814 3.55228H12.9841L16.0464 5.75714L14.8215 9.30942L17.8838 7.10456L20.9461 9.30942L19.8437 5.75714L22.906 3.55228H19.1088Z" fill="#000129"/>
<path d="M61.859 3.55228H58.0618L56.8368 0L55.7344 3.55228H51.9371L54.9994 5.75714L53.7745 9.30942L56.8368 7.10456L59.8991 9.30942L58.7967 5.75714L61.859 3.55228Z" fill="#000129"/>
<path d="M45.0774 3.55228L43.8525 0L42.75 3.55228H38.9528L42.0151 5.75714L40.7901 9.30942L43.8525 7.10456L46.9148 9.30942L45.8123 5.75714L48.8746 3.55228H45.0774Z" fill="#000129"/>
</svg>
