<svg width="84" height="78" viewBox="0 0 84 78" fill="none" xmlns="http://www.w3.org/2000/svg">
<circle opacity="0.35" cx="45.5" cy="38.8094" r="38.5" fill="white"/>
<g clip-path="url(#clip0_0_18)">
<path d="M50.1367 22.5109L35.7525 12.9554C35.1667 12.5662 34.3739 12.7537 34.0243 13.3639L33.461 14.3472L23.9118 10.1052C23.269 9.81964 22.5187 10.1375 22.2764 10.7975L21.4508 13.0469L14.1536 11.547C13.4646 11.4052 12.7996 11.8758 12.7039 12.5725L9.4913 35.9558H13.0409H18.8625H21.0842H34.9214H43.6986L50.5172 24.1312C50.8377 23.5752 50.6713 22.866 50.1367 22.5109Z" fill="#60A23F"/>
<path d="M13.9421 33.5009L16.5203 15.7348C16.6939 14.5397 17.8231 13.7258 19.0117 13.9393L19.8042 14.0817L20.8663 14.2725L13.9421 33.5009Z" fill="#9FD96E"/>
<path d="M17.3254 35.9559L25.3364 15.1718C25.8598 13.814 27.4037 13.1595 28.7434 13.7278L31.7533 15.0043L32.6025 15.405L21.0514 36.0684L17.3254 35.9559Z" fill="#9FD96E"/>
<path d="M13.2988 35.6271L22.6238 10.4244C22.6238 10.4244 23.3126 9.84159 24.2841 10.2303C25.2554 10.6185 33.5193 14.2457 33.5193 14.2457C33.5193 14.2457 34.5513 12.3831 35.4136 12.7989C36.2759 13.2147 50.4838 22.8616 50.4838 22.8616C50.4838 22.8616 51.0321 23.7067 50.1665 24.7393C49.3012 25.7721 43.6053 35.8921 43.6053 35.8921H41.7112L48.9743 23.4305L35.0219 14.3056L22.6933 35.8351H21.0842L32.7079 15.4091L23.5422 11.5216L14.6787 35.669H13.2988V35.6271Z" fill="#D1EB8E"/>
<path d="M9.58987 35.7858L12.9014 12.4202C12.9014 12.4202 13.0501 11.3493 14.3798 11.5932C15.7094 11.8371 21.5641 12.9234 21.5641 12.9234L21.1822 14.5128L14.165 13.0687L10.9321 35.8786L9.58987 35.7858Z" fill="#D1EB8E"/>
<path d="M21.0843 35.9558L34.0244 13.3639C34.3739 12.7537 35.1667 12.5662 35.7525 12.9554L50.1367 22.5109C50.6713 22.866 50.8378 23.5752 50.5172 24.1315L43.6987 35.9558" stroke="#040606" stroke-width="1.14062" stroke-miterlimit="10"/>
<path d="M13.041 35.9558L22.2764 10.7975C22.5187 10.1375 23.269 9.81964 23.9118 10.1052L33.461 14.3472" stroke="#040606" stroke-width="1.14062" stroke-miterlimit="10"/>
<path d="M9.4913 35.9558L12.7039 12.5725C12.7996 11.8758 13.4646 11.4052 14.1536 11.547L21.4508 13.0469" stroke="#040606" stroke-width="1.14062" stroke-miterlimit="10"/>
<path d="M22.6238 35.9558L35.0928 14.3056L48.9743 23.4304L41.6274 35.9558" stroke="#040606" stroke-width="0.651783" stroke-miterlimit="10"/>
<path d="M14.5734 35.9558L23.5422 11.5215L32.8245 15.4586" stroke="#040606" stroke-width="0.651783" stroke-miterlimit="10"/>
<path d="M10.9321 35.9558L14.165 13.0688L21.0514 14.3056" stroke="#040606" stroke-width="0.651783" stroke-miterlimit="10"/>
<path d="M44.1183 20.2382L40.2026 17.6645C38.7435 16.7055 36.7777 17.1764 35.9119 18.6927L26.052 35.9558H38.5544L45.0981 24.244C45.8722 22.8583 45.4446 21.1104 44.1183 20.2382Z" fill="#9FD96E"/>
<path d="M26.052 35.9558L35.9119 18.6927C36.7777 17.1764 38.7435 16.7055 40.2026 17.6645L44.1183 20.2385C45.4446 21.1104 45.8722 22.8583 45.0981 24.244L38.5544 35.9558" stroke="#040606" stroke-width="0.651783" stroke-miterlimit="10"/>
<path d="M17.3254 35.9558L25.3364 15.1717C25.8598 13.8139 27.4037 13.1594 28.7434 13.7277L31.7533 15.0042" stroke="#040606" stroke-width="0.651783" stroke-miterlimit="10"/>
<path d="M13.9421 33.5009L16.5203 15.7348C16.6939 14.5397 17.8231 13.7258 19.0117 13.9393L19.8042 14.0817" stroke="#040606" stroke-width="0.651783" stroke-miterlimit="10"/>
<path d="M43.1497 35.9559H6.29999V66.0001H43.1497C44.6154 66.0001 45.8035 64.8117 45.8035 63.3463V56.8292V44.9784V38.6096C45.8035 37.1442 44.6154 35.9559 43.1497 35.9559Z" fill="#F28A2A"/>
<path d="M43.1498 37.2128H7.55722V64.7426H43.1498C43.9212 64.7426 44.5464 64.1174 44.5464 63.346V56.8291V45.0431V38.6095C44.5464 37.8383 43.9212 37.2128 43.1498 37.2128Z" fill="#814C32"/>
<path d="M31.9893 56.7037L44.5465 60.9178V56.8291L31.9893 56.7037Z" fill="#563528"/>
<path d="M9.33656 63.6479H8.65219V62.9635" stroke="#040606" stroke-width="0.244418" stroke-miterlimit="10"/>
<path d="M8.65219 61.5531V39.6971" stroke="#040606" stroke-width="0.244418" stroke-miterlimit="10" stroke-dasharray="1.68 1.68"/>
<path d="M8.65219 38.9923V38.308H9.33656" stroke="#040606" stroke-width="0.244418" stroke-miterlimit="10"/>
<path d="M10.6889 38.308H43.1497C43.3162 38.308 43.4514 38.4432 43.4514 38.6097V63.3462C43.4514 63.5126 43.3162 63.6479 43.1497 63.6479H10.0127" stroke="#040606" stroke-width="0.244418" stroke-miterlimit="10" stroke-dasharray="1.61 1.61"/>
<path d="M43.1498 37.2128H7.55722V64.7426H43.1498C43.9212 64.7426 44.5464 64.1174 44.5464 63.346V56.8291V45.0431V38.6095C44.5464 37.8383 43.9212 37.2128 43.1498 37.2128Z" stroke="#040606" stroke-width="0.651783" stroke-miterlimit="10"/>
<path d="M46.2809 56.8292H32.5475C31.8201 56.8292 31.2307 56.2401 31.2307 55.5127V46.4432C31.2307 45.7161 31.8201 45.1267 32.5475 45.1267H46.2809C47.008 45.1267 47.5976 45.7161 47.5976 46.4432V55.5127C47.5976 56.2401 47.008 56.8292 46.2809 56.8292Z" fill="#814C32"/>
<path d="M32.5475 55.7342C32.4251 55.7342 32.3257 55.6352 32.3257 55.5128V46.4432C32.3257 46.3209 32.4251 46.2218 32.5475 46.2218H46.2809C46.403 46.2218 46.5026 46.3209 46.5026 46.4432V55.5128C46.5026 55.6352 46.403 55.7342 46.2809 55.7342H32.5475Z" stroke="#040606" stroke-width="0.244418" stroke-miterlimit="10" stroke-dasharray="1.63 1.63"/>
<path d="M39.4142 50.9781C39.4142 52.6009 38.0986 53.9165 36.4755 53.9165C34.8527 53.9165 33.5371 52.6009 33.5371 50.9781C33.5371 49.3551 34.8527 48.0397 36.4755 48.0397C38.0986 48.0397 39.4142 49.3551 39.4142 50.9781Z" fill="#FABD33"/>
<path d="M36.4755 51.6966C35.7476 51.6966 35.135 51.2077 34.945 50.5406C34.9053 50.6799 34.8826 50.8261 34.8826 50.9778C34.8826 51.8576 35.596 52.5707 36.4755 52.5707C37.3553 52.5707 38.0687 51.8576 38.0687 50.9778C38.0687 50.8261 38.046 50.6799 38.0066 50.5406C37.8163 51.2077 37.2037 51.6966 36.4755 51.6966Z" fill="#040606"/>
<path d="M45.8037 56.8292V63.3463C45.8037 64.8117 44.6154 66.0001 43.1497 66.0001H6.29999V35.9559H43.1497C44.6154 35.9559 45.8037 37.1442 45.8037 38.6096V44.9784" stroke="#040606" stroke-width="1.14062" stroke-miterlimit="10"/>
<path d="M44.5464 56.8291V63.346C44.5464 64.1174 43.9212 64.7426 43.1498 64.7426H7.55722V37.2128H43.1498C43.9212 37.2128 44.5464 37.8383 44.5464 38.6095V45.0431" stroke="#040606" stroke-width="0.651783" stroke-miterlimit="10"/>
<path d="M46.2809 56.8292H32.5475C31.8201 56.8292 31.2307 56.2401 31.2307 55.5127V46.4432C31.2307 45.7161 31.8201 45.1267 32.5475 45.1267H46.2809C47.008 45.1267 47.5976 45.7161 47.5976 46.4432V55.5127C47.5976 56.2401 47.008 56.8292 46.2809 56.8292Z" stroke="#040606" stroke-width="1.14062" stroke-miterlimit="10"/>
<path d="M39.4142 50.9781C39.4142 52.6009 38.0986 53.9165 36.4755 53.9165C34.8527 53.9165 33.5371 52.6009 33.5371 50.9781C33.5371 49.3551 34.8527 48.0397 36.4755 48.0397C38.0986 48.0397 39.4142 49.3551 39.4142 50.9781Z" stroke="#040606" stroke-width="1.14062" stroke-miterlimit="10"/>
<path d="M11.7922 61.1908C13.2629 59.5749 14.7576 57.9833 16.2726 56.412C17.7839 54.8368 19.315 53.2814 20.854 51.7344C22.3919 50.1858 23.9471 48.6548 25.5176 47.139C27.0867 45.6216 28.684 44.1327 30.3104 42.6725C28.8502 44.2989 27.3613 45.8962 25.8442 47.4653C24.3281 49.0358 22.7973 50.5913 21.2487 52.1289C19.7012 53.6679 18.1461 55.199 16.571 56.7103C14.9996 58.2253 13.4079 59.7202 11.7922 61.1908Z" fill="#040606"/>
<path d="M14.5734 60.3042C16.2147 58.5898 17.8732 56.8922 19.5367 55.1996C21.1948 53.5016 22.8778 51.8284 24.5472 50.1419C26.222 48.4608 27.911 46.7936 29.597 45.1235C31.2926 43.4632 32.9885 41.8027 34.7098 40.1681C33.075 41.8894 31.4147 43.585 29.7541 45.2809C28.0843 46.9669 26.4171 48.6559 24.736 50.3307C23.0489 51.9998 21.3763 53.6831 19.678 55.3412C17.9857 57.0047 16.2881 58.6631 14.5734 60.3042Z" fill="#040606"/>
</g>
<defs>
<clipPath id="clip0_0_18">
<rect width="56" height="56" fill="white" transform="translate(0 10.0001)"/>
</clipPath>
</defs>
</svg>
