<svg width="86" height="77" viewBox="0 0 86 77" fill="none" xmlns="http://www.w3.org/2000/svg">
<ellipse opacity="0.5" cx="48" cy="38.5001" rx="38" ry="38.5" fill="white"/>
<path d="M65.3136 45.2272V46.6328L64.0964 45.93L65.3136 45.2272Z" fill="#620D13"/>
<path d="M65.3104 43.1549L65.3136 44.7817L63.6373 45.7493C63.6284 45.7532 63.6186 45.7558 63.6103 45.7609C63.6013 45.766 63.5943 45.7724 63.5866 45.7789L61.8165 46.8012C61.8158 46.8019 61.8146 46.8019 61.8146 46.8019C61.8133 46.8025 61.8126 46.8031 61.8114 46.8038L60.3107 47.6705V46.0418L63.777 44.0403C63.7995 44.0325 63.82 44.0203 63.838 44.0049L65.3104 43.1549Z" fill="#B73C46"/>
<path d="M65.1207 46.9671L63.8997 47.6724V46.2618L65.1207 46.9671Z" fill="#620D13"/>
<path d="M63.5178 42.1159L63.5204 43.7433L60.3107 45.5963V43.9677L63.5178 42.1159Z" fill="#962230"/>
<path d="M63.5139 46.2663V47.6718L62.2968 46.969L63.5139 46.2663Z" fill="#620D13"/>
<path d="M63.321 48.0062L62.1065 48.7076L62.1039 47.3034L63.321 48.0062Z" fill="#620D13"/>
<path d="M61.7181 47.3034L61.7207 48.707L60.501 48.0062L61.7181 47.3034Z" fill="#620D13"/>
<path d="M61.5278 42.8193L60.3107 43.5221V42.1178L61.5278 42.8193Z" fill="#EBDB74"/>
<path d="M61.5278 49.0413L60.3132 49.7428L60.3081 48.3405L61.5278 49.0413Z" fill="#620D13"/>
<path d="M59.9224 48.3405L59.9275 49.7454L58.7078 49.0413L59.9224 48.3405Z" fill="#620D13"/>
<path d="M59.9249 46.265V47.8937L54.8898 50.8011V49.1725L59.9249 46.265Z" fill="#B73C46"/>
<path d="M59.9249 44.1901V45.8194L54.8898 48.7269V47.0976L59.9249 44.1901Z" fill="#962230"/>
<path d="M59.9249 41.8954V43.7445L54.8898 46.6521V42.9492L55.968 42.3261C56.0606 42.2728 56.0921 42.1551 56.0387 42.0625C55.9854 41.9705 55.8677 41.939 55.7751 41.9924L54.8898 42.5036V38.9943L57.9317 40.747L57.3903 41.0602C57.2977 41.1135 57.2662 41.2312 57.3196 41.3231C57.3549 41.3854 57.4198 41.4202 57.4868 41.4202C57.5195 41.4202 57.5524 41.4118 57.5832 41.3938L58.3181 40.9695L59.9249 41.8954Z" fill="#EBDB74"/>
<path d="M59.732 50.0785L58.5117 50.7831L58.5168 49.3763L59.732 50.0785Z" fill="#620D13"/>
<path d="M58.131 49.375L58.1259 50.7838L56.91 50.0797L58.131 49.375Z" fill="#620D13"/>
<path d="M57.9323 51.1175L56.7145 51.8209L56.7178 50.4147L57.9323 51.1175Z" fill="#620D13"/>
<path d="M56.332 50.4134L56.3288 51.8202L55.1136 51.1168L56.332 50.4134Z" fill="#620D13"/>
<path d="M56.1365 52.1546L54.9175 52.858V51.4492L56.1365 52.1546Z" fill="#620D13"/>
<path d="M54.5317 51.4531V52.8573L53.3165 52.1546L54.5317 51.4531Z" fill="#620D13"/>
<path d="M54.504 49.3949V51.0236L52.84 51.9848C52.8381 51.9861 52.8355 51.9861 52.8336 51.9874C52.8316 51.9887 52.8304 51.99 52.8284 51.9913L51.0603 53.0123C51.0526 53.0155 51.0442 53.0174 51.0372 53.0219C51.0295 53.0264 51.023 53.0328 51.016 53.038L49.5346 53.8938V52.2645L54.504 49.3949Z" fill="#B73C46"/>
<path d="M54.504 47.3201V48.95L49.5345 51.8196V50.1897L54.504 47.3201Z" fill="#962230"/>
<path d="M54.504 43.1717V46.8746L49.5345 49.7441V46.0374C49.6065 45.9788 49.6277 45.8754 49.5795 45.7924C49.5679 45.7712 49.5518 45.7544 49.5345 45.7397V39.8102L52.9152 37.8562L54.504 38.7718V42.726L54.1607 42.9247C54.0681 42.9781 54.0366 43.0958 54.09 43.1883C54.126 43.2501 54.1902 43.2848 54.2572 43.2848C54.2899 43.2848 54.3234 43.2764 54.3536 43.2584L54.504 43.1717ZM52.7385 44.1908C52.831 44.1381 52.8625 44.0197 52.8092 43.9278C52.7558 43.8353 52.6381 43.8038 52.5456 43.8571L50.9311 44.7894C50.8391 44.8428 50.807 44.9605 50.8603 45.0531C50.8964 45.1148 50.9613 45.1495 51.0275 45.1495C51.0603 45.1495 51.0938 45.1411 51.124 45.1238L52.7385 44.1908Z" fill="#EBDB74"/>
<path d="M54.3401 53.1917L53.1255 53.8932L53.1236 52.4889L54.3401 53.1917Z" fill="#620D13"/>
<path d="M52.8092 43.9278C52.8625 44.0198 52.831 44.1381 52.7385 44.1908L51.124 45.1238C51.0937 45.1411 51.0603 45.1495 51.0275 45.1495C50.9613 45.1495 50.8964 45.1147 50.8603 45.053C50.807 44.9605 50.8392 44.8428 50.9311 44.7894L52.5456 43.8571C52.6381 43.8037 52.7558 43.8352 52.8092 43.9278Z" fill="black"/>
<path d="M52.7378 52.4889L52.7397 53.8944L51.5219 53.191L52.7378 52.4889Z" fill="#620D13"/>
<path d="M52.7371 35.8952L52.723 37.5219L49.5345 39.3646V37.7424L51.2204 36.769L52.7371 35.8952Z" fill="#B73C46"/>
<path d="M52.5456 54.2275L51.3188 54.9361L51.3246 53.5228L52.5456 54.2275Z" fill="#620D13"/>
<path d="M50.942 34.8581L50.9323 36.49L49.5345 37.2969V35.6701L50.942 34.8581Z" fill="#962230"/>
<path d="M50.9388 53.528L50.933 54.9303L49.7287 54.2269L50.9388 53.528Z" fill="#620D13"/>
<path d="M50.7453 55.2672L49.5371 55.9648V54.5612L50.7453 55.2672Z" fill="#620D13"/>
<path d="M49.1513 54.5606V55.9667L47.931 55.2653L49.1513 54.5606Z" fill="#620D13"/>
<path d="M49.1487 52.4877V54.1163L47.4777 55.0814C47.4661 55.0853 47.4539 55.0891 47.4429 55.0956C47.432 55.102 47.4223 55.1103 47.4134 55.1187L45.6838 56.1172C45.6709 56.1217 45.6587 56.1256 45.6465 56.1326C45.6349 56.139 45.6246 56.148 45.615 56.1571L44.1484 57.0038V55.3752L49.1487 52.4877Z" fill="#B73C46"/>
<path d="M49.1487 50.4121V52.042L44.1484 54.9296V53.2997L49.1487 50.4121Z" fill="#962230"/>
<path d="M49.1487 46.2637V49.9666L44.1484 52.8542V42.9228L49.1487 40.0333V45.8187L47.7014 46.6539C47.6095 46.7073 47.578 46.825 47.6313 46.9175C47.6667 46.9793 47.7316 47.014 47.7985 47.014C47.8313 47.014 47.8641 47.0056 47.8943 46.9882L49.1487 46.2637ZM46.2798 47.9206C46.3724 47.8673 46.4039 47.7496 46.3505 47.657C46.2972 47.5651 46.1795 47.533 46.0869 47.5863L44.4724 48.5186C44.3798 48.572 44.3483 48.6903 44.4017 48.7823C44.4371 48.844 44.502 48.8787 44.5689 48.8787C44.6017 48.8787 44.6345 48.8703 44.6653 48.853L46.2798 47.9206Z" fill="#EBDB74"/>
<path d="M49.1487 37.9656V39.5877L44.1484 42.4772V40.8525L49.1487 37.9656Z" fill="#B73C46"/>
<path d="M49.1487 35.8933V37.52L44.1484 40.4069V38.7802L49.1487 35.8933Z" fill="#962230"/>
<path d="M48.9565 56.3005L47.7323 57.007V55.5964L48.9565 56.3005Z" fill="#620D13"/>
<path d="M47.3465 55.6022V57.0051L46.1338 56.303L47.3465 55.6022Z" fill="#620D13"/>
<path d="M47.1555 57.3402L45.9358 58.0441V56.6342L47.1555 57.3402Z" fill="#620D13"/>
<path d="M46.3505 47.657C46.4039 47.7496 46.3724 47.8673 46.2798 47.9206L44.6653 48.853C44.6344 48.8703 44.6017 48.8787 44.5689 48.8787C44.5021 48.8787 44.4371 48.8439 44.4017 48.7823C44.3483 48.6903 44.3798 48.572 44.4724 48.5186L46.0869 47.5863C46.1795 47.533 46.2972 47.5651 46.3505 47.657Z" fill="black"/>
<path d="M45.5501 56.64V58.041L44.3412 57.3376L45.5501 56.64Z" fill="#620D13"/>
<path d="M45.3597 58.3766L44.1484 59.0761V57.6719L45.3597 58.3766Z" fill="#620D13"/>
<path d="M43.7626 57.6719V59.0781L42.5423 58.3766L43.7626 57.6719Z" fill="#620D13"/>
<path d="M43.7626 55.5983V57.227L42.096 58.1895C42.0812 58.1933 42.0671 58.1991 42.0535 58.2068C42.0406 58.2139 42.029 58.2236 42.0187 58.2338L40.273 59.2413C40.2711 59.2426 40.2685 59.2433 40.2666 59.2445C40.2647 59.2452 40.2627 59.2471 40.2608 59.2484L38.7595 60.1157V58.487L43.7626 55.5983Z" fill="#B73C46"/>
<path d="M43.7626 53.5222V55.1528L38.7596 58.0416V56.411L43.7626 53.5222Z" fill="#962230"/>
<path d="M43.7626 43.1453V53.0766L38.7596 55.9654V52.2625L39.8212 51.6498C39.9132 51.5964 39.9447 51.4787 39.8913 51.3868C39.8386 51.2942 39.7203 51.2628 39.6284 51.3161L38.7597 51.8176V46.0367L43.7626 43.1453ZM43.0502 49.7853C43.1428 49.7319 43.1743 49.6142 43.1209 49.5217C43.0676 49.4297 42.9499 49.3976 42.8573 49.451L41.2428 50.3839C41.1502 50.4366 41.1187 50.555 41.1721 50.6469C41.2081 50.7092 41.2724 50.744 41.3393 50.744C41.372 50.744 41.4055 50.7356 41.4357 50.7176L43.0502 49.7853Z" fill="#EBDB74"/>
<path d="M43.7626 41.0756V42.6997L38.7596 45.5912V43.9638L43.7626 41.0756Z" fill="#B73C46"/>
<path d="M43.7626 39.0027V40.63L38.7596 43.5189V41.8915L43.7626 39.0027Z" fill="#962230"/>
<path d="M43.5678 59.4111L42.3436 60.1184V58.7071L43.5678 59.4111Z" fill="#620D13"/>
<path d="M43.1209 49.5217C43.1743 49.6142 43.1428 49.7319 43.0502 49.7853L41.4357 50.7176C41.4055 50.7356 41.372 50.744 41.3393 50.744C41.2724 50.744 41.2081 50.7092 41.1721 50.6469C41.1187 50.5549 41.1502 50.4366 41.2428 50.3839L42.8573 49.451C42.9499 49.3975 43.0676 49.4297 43.1209 49.5217Z" fill="black"/>
<path d="M41.9577 58.7148V60.1158L40.7483 59.4124L41.9577 58.7148Z" fill="#620D13"/>
<path d="M41.7674 60.4508L40.5529 61.1523L40.5555 59.7468L41.7674 60.4508Z" fill="#620D13"/>
<path d="M40.1697 59.7468L40.1671 61.1536L38.9532 60.4495L40.1697 59.7468Z" fill="#620D13"/>
<path d="M39.9736 61.4866L38.7449 62.1964L38.7571 60.782L39.9736 61.4866Z" fill="#620D13"/>
<path d="M38.3739 58.7097V60.3384L36.6835 61.3144C36.6809 61.3163 36.6777 61.317 36.6745 61.3182C36.6719 61.3202 36.6694 61.3228 36.6668 61.3247L34.8691 62.3625C34.8659 62.3644 34.862 62.3651 34.8582 62.367C34.855 62.3689 34.8531 62.3715 34.8498 62.3734L33.3697 63.2286L33.3685 61.6006L38.3739 58.7097Z" fill="#B73C46"/>
<path d="M38.3739 56.6335V58.2647L33.3683 61.1549L33.3677 59.5243L38.3739 56.6335Z" fill="#962230"/>
<path d="M38.3739 52.4857V56.188L32.8862 59.3565L32.8277 55.6884L33.362 55.3798C33.454 55.3264 33.4861 55.2081 33.4327 55.1162C33.3794 55.0236 33.2617 54.9921 33.1691 55.0455L32.8207 55.2467L32.7293 49.5211L38.3739 46.2593V52.0403L38.0132 52.2486C37.9213 52.3019 37.8892 52.4196 37.9425 52.5122C37.9786 52.5739 38.0435 52.6086 38.1097 52.6086C38.1425 52.6086 38.176 52.6002 38.2062 52.5822L38.3739 52.4857ZM36.5916 53.5145C36.6835 53.4618 36.715 53.3434 36.6623 53.2515C36.6089 53.159 36.4912 53.1275 36.3987 53.1808L34.7836 54.1131C34.6916 54.1665 34.6601 54.2842 34.7135 54.3768C34.7488 54.4385 34.8137 54.4732 34.8806 54.4732C34.9135 54.4732 34.9462 54.4648 34.9765 54.4475L36.5916 53.5145Z" fill="#EBDB74"/>
<path d="M38.3739 44.1869V45.8137L32.7222 49.0799L32.6964 47.4648L38.3739 44.1869Z" fill="#B73C46"/>
<path d="M38.3739 42.114V43.7414L32.6894 47.0237L32.6637 45.4112L38.3739 42.114Z" fill="#962230"/>
<path d="M38.3707 60.7858L38.3591 62.1945L37.1548 61.4879L38.3707 60.7858Z" fill="#620D13"/>
<path d="M38.1675 62.5295L36.9606 63.2265L36.9626 61.8223L38.1675 62.5295Z" fill="#620D13"/>
<path d="M36.6623 53.2515C36.715 53.3435 36.6835 53.4618 36.5916 53.5145L34.9765 54.4475C34.9462 54.4648 34.9135 54.4732 34.8806 54.4732C34.8138 54.4732 34.7488 54.4384 34.7134 54.3768C34.6601 54.2842 34.6916 54.1665 34.7836 54.1131L36.3987 53.1808C36.4912 53.1274 36.6089 53.1589 36.6623 53.2515Z" fill="black"/>
<path d="M36.5768 61.8216L36.5748 63.231L35.3449 62.5328L36.5768 61.8216Z" fill="#620D13"/>
<path d="M36.3781 63.5628L35.1481 64.2726V62.8651L36.3781 63.5628Z" fill="#620D13"/>
<path d="M34.7623 62.8697V64.2559L33.5619 63.5628L34.7623 62.8697Z" fill="#620D13"/>
<path d="M34.5842 64.5986L33.3709 65.2994L33.3697 63.8971L34.5842 64.5986Z" fill="#620D13"/>
<path d="M32.9838 63.6046L32.9851 65.5219L27.9822 68.4107L27.979 62.6407L32.9819 59.748L32.9838 63.5171C32.9775 63.5467 32.9775 63.5762 32.9838 63.6046Z" fill="#B73C46"/>
<path d="M31.8709 19.8923L32.5036 59.5776L29.3646 61.3902L29.8572 20.1939C29.8623 20.1816 29.8675 20.1701 29.8733 20.1585L30.976 19.5213C31.2266 19.6262 31.5256 19.7502 31.8709 19.8923Z" fill="#B73C46"/>
<path d="M31.8574 19.0128L31.8644 19.4725C31.6966 19.403 31.5403 19.3388 31.3963 19.279L31.8574 19.0128Z" fill="#B73C46"/>
<path d="M31.6587 18.6816L30.9482 19.0918C30.6776 18.9787 30.4814 18.8964 30.367 18.8475V18.3003L30.682 18.1184L31.6587 18.6816Z" fill="#B73C46"/>
<path d="M30.5284 19.3343L30.1355 19.5613C30.1947 19.4243 30.2423 19.3125 30.2776 19.2289C30.3439 19.2564 30.4275 19.2918 30.5284 19.3343Z" fill="#B73C46"/>
<path d="M29.9812 18.5235V18.9375C29.9407 19.0353 29.8147 19.3374 29.6102 19.8004L29.2495 19.5928L28.6889 19.2693L29.2881 18.9234C29.2881 18.9234 29.2881 18.9234 29.2888 18.9234L29.9812 18.5235Z" fill="#B73C46"/>
<path d="M29.461 21.06L28.9762 61.614L27.9828 62.1875L28.1532 47.9375C28.1571 47.9163 28.1577 47.8944 28.1539 47.8732L28.1558 47.7266L28.1764 46.0465C28.1764 46.0446 28.1757 46.0433 28.1757 46.0414L28.2902 36.4534L28.2991 35.7474C28.2991 35.7462 28.2991 35.7455 28.2991 35.7448L28.3724 29.607C28.375 29.5948 28.3775 29.5826 28.3775 29.5697L28.4026 27.5103C28.4026 27.5078 28.4019 27.5052 28.4019 27.5026C28.4019 27.4962 28.4013 27.4898 28.4007 27.4827C28.3994 27.4776 28.3987 27.4718 28.3981 27.466L28.4495 23.1356C28.8444 22.3581 29.1833 21.6553 29.461 21.06Z" fill="#962230"/>
<path d="M28.4927 19.6017L29.452 20.1547C29.2013 20.7102 28.8682 21.4265 28.4599 22.2534L28.4714 21.3287C28.4714 21.3287 28.4714 21.3281 28.4714 21.3275L28.4927 19.6017Z" fill="#962230"/>
<path d="M28.8078 18.7549L28.3062 19.0449L23.4055 16.2152C23.3971 16.2101 22.5935 15.7305 22.5935 14.809L22.5896 14.6676C22.8249 14.7653 23.0969 14.8778 23.4023 15.0038C23.6428 15.7516 24.2813 16.1329 24.3154 16.1527L28.8078 18.7549Z" fill="#B73C46"/>
<path d="M28.1089 19.3761L28.0896 20.9938L22.5903 17.8188V15.9664C22.8636 16.3412 23.1877 16.5347 23.2115 16.5483L28.1089 19.3761Z" fill="#B73C46"/>
<path d="M28.0227 26.5966L28.0157 27.1733L26.6789 26.4011C26.7638 26.2545 26.8474 26.1085 26.9303 25.9638L28.0227 26.5966Z" fill="#620D13"/>
<path d="M28.0105 27.6157L27.9912 29.2328L25.755 27.9417C25.915 27.6838 26.0745 27.4234 26.2334 27.1579C26.3182 27.0164 26.4018 26.875 26.4847 26.7342L28.0105 27.6157Z" fill="#962230"/>
<path d="M27.9237 34.8362L27.9172 35.4123L23.4949 32.8572C23.4718 32.843 23.0757 32.6032 22.8455 32.1409C23.0635 31.8619 23.2814 31.5745 23.4994 31.2799C23.5869 32.3042 24.4555 32.8237 24.4954 32.8469L27.9237 34.8362Z" fill="#620D13"/>
<path d="M27.9121 35.8553L27.9044 36.4597L27.8922 37.4724L22.6797 34.4601V32.6076C22.9536 32.9825 23.277 33.176 23.3008 33.1902L27.9121 35.8553Z" fill="#B73C46"/>
<path d="M27.8009 45.1353L27.7938 45.712L23.5348 43.2533C23.5021 43.2334 22.7228 42.7621 22.7228 41.851L22.6694 36.2392L22.6714 36.2385C22.6714 36.2353 22.6714 36.2269 22.6714 36.214C22.672 36.1986 22.672 36.1845 22.672 36.1735V36.1497C22.6932 36.0456 23.0134 35.9163 23.4777 35.8321L23.5317 41.5088C23.5317 42.6437 24.4936 43.2185 24.5347 43.2429L27.8009 45.1353Z" fill="#620D13"/>
<path d="M27.7887 46.1544L27.7694 47.7721L22.7195 44.8563V43.0039C22.9928 43.3787 23.3169 43.5722 23.3407 43.5864L27.7887 46.1544Z" fill="#B73C46"/>
<path d="M27.7636 48.2421L27.7443 49.8791L24.298 51.8685L24.2723 50.2559L27.7636 48.2421Z" fill="#962230"/>
<path d="M27.7386 50.3272L27.7193 51.972C27.709 51.9758 27.6993 51.9797 27.6897 51.9855L24.3308 53.9247L24.3051 52.3102L27.7386 50.3272Z" fill="#B73C46"/>
<path d="M27.7141 52.4169L27.5945 62.4118L22.5935 65.2994L22.5928 61.5978L23.6736 60.9735C23.7656 60.9202 23.7971 60.8025 23.7443 60.7106C23.691 60.618 23.5733 60.5865 23.4807 60.6399L22.5928 61.1524L22.5921 57.4495L24.2722 56.4799C24.3326 56.4445 24.3693 56.3796 24.3686 56.3095L24.3372 54.3665L27.7141 52.4169ZM26.9033 59.1089C26.9953 59.0555 27.0268 58.9379 26.9734 58.8453C26.9207 58.7533 26.8024 58.7218 26.7105 58.7752L25.0953 59.7075C25.0033 59.7602 24.9718 59.8785 25.0246 59.9704C25.0606 60.0328 25.1255 60.0669 25.1918 60.0669C25.2246 60.0669 25.2581 60.0592 25.2882 60.0411L26.9033 59.1089Z" fill="#EBDB74"/>
<path d="M27.5945 64.9349L27.5951 66.5629L25.9311 67.5235C25.917 67.528 25.9028 67.5331 25.8893 67.5408C25.8765 67.5485 25.8655 67.5582 25.8546 67.5678L24.1205 68.5696C24.1135 68.5722 24.107 68.5741 24.1006 68.5779C24.0941 68.5811 24.089 68.5863 24.0832 68.5908L22.5935 69.4511V67.8224L27.5945 64.9349Z" fill="#B73C46"/>
<path d="M27.5906 67.011L27.5952 68.4107L26.3786 67.7112L27.5906 67.011Z" fill="#620D13"/>
<path d="M27.5932 62.8581L27.5939 64.4893L22.5935 67.3775V65.745L27.5932 62.8581Z" fill="#962230"/>
<path d="M27.4029 68.7451L26.1851 69.4478L26.1806 68.0423L27.4029 68.7451Z" fill="#620D13"/>
<path d="M26.9734 58.8453C27.0268 58.9379 26.9953 59.0555 26.9033 59.1089L25.2882 60.0412C25.258 60.0592 25.2246 60.0669 25.1918 60.0669C25.1255 60.0669 25.0606 60.0328 25.0246 59.9705C24.9719 59.8785 25.0034 59.7603 25.0953 59.7076L26.7105 58.7752C26.8024 58.7219 26.9207 58.7534 26.9734 58.8453Z" fill="black"/>
<path d="M24.4511 24.5275L26.5967 25.7704C26.5137 25.9157 26.4301 26.0616 26.3446 26.2082L23.4506 24.5372C23.4423 24.5326 22.6386 24.053 22.6386 23.1342L22.5833 19.5587C22.5833 19.5497 22.5833 19.5419 22.5833 19.5349V19.5123C22.6052 19.4146 22.9299 19.3008 23.3922 19.232L23.4474 22.7934C23.4474 23.9283 24.4093 24.5031 24.4511 24.5275Z" fill="#620D13"/>
<path d="M23.2564 24.8709L26.1504 26.5413C26.0687 26.6802 25.9858 26.8197 25.9022 26.9599C25.7472 27.2184 25.5871 27.4813 25.4206 27.7488L22.6353 26.1407V24.2883C22.9092 24.6631 23.2326 24.8567 23.2564 24.8709Z" fill="#B73C46"/>
<path d="M25.7948 68.0481L25.7994 69.4473L24.5854 68.7464L25.7948 68.0481Z" fill="#620D13"/>
<path d="M25.6071 69.7816L24.3899 70.485V69.0788L25.6071 69.7816Z" fill="#620D13"/>
<path d="M24.0042 69.082V70.485L22.789 69.7835L24.0042 69.082Z" fill="#620D13"/>
<path d="M23.8216 46.2193L23.981 56.202L22.5922 57.0038L22.5915 46.8205C22.6771 46.789 22.7021 46.7035 22.7092 46.6347H22.7112C22.7112 46.6315 22.7112 46.6232 22.7112 46.6103C22.7118 46.5949 22.7118 46.5807 22.7118 46.5697V46.5466C22.7375 46.4244 23.196 46.2785 23.8216 46.2193Z" fill="#962230"/>
<path d="M23.8107 70.8187L22.5832 71.5278L22.5915 70.1153L23.8107 70.8187Z" fill="#620D13"/>
<path d="M22.7176 45.3005L23.6699 45.8503C23.5708 45.8612 23.4667 45.8753 23.3618 45.8927C23.2275 45.9153 22.9484 45.9622 22.7143 46.0722L22.7176 45.3005Z" fill="#620D13"/>
<path d="M22.6333 26.585L23.5856 27.1348C23.4866 27.1456 23.3825 27.1598 23.2776 27.1772C23.1432 27.1998 22.8648 27.2467 22.6301 27.3566L22.6333 26.585Z" fill="#620D13"/>
<path d="M22.589 18.2631L23.5586 18.8231C23.4628 18.8334 23.3625 18.8462 23.2616 18.8617C23.1214 18.8843 22.8288 18.9305 22.5858 19.0431L22.589 18.2631Z" fill="#620D13"/>
<path d="M22.6777 34.9044L23.5548 35.4116C23.5471 35.4174 23.5399 35.4232 23.5329 35.4303C23.239 35.4747 22.9176 35.548 22.6745 35.6695L22.6777 34.9044Z" fill="#620D13"/>
<path d="M23.4358 27.5411L23.4847 30.6421C23.2307 30.9925 22.9697 31.343 22.7015 31.6901C22.6893 31.6149 22.6828 31.5358 22.6828 31.4535L22.6276 27.8779C22.6276 27.869 22.6276 27.8612 22.6276 27.8542V27.831C22.6488 27.7295 22.9697 27.6118 23.4358 27.5411Z" fill="#620D13"/>
<path d="M23.3117 14.4188C23.3117 14.4637 23.3136 14.5081 23.3162 14.5512C23.1413 14.4792 22.9793 14.4116 22.8308 14.3499L23.3078 14.0747L23.3117 14.4188Z" fill="#B73C46"/>
<path d="M23.1111 13.743L22.3825 14.1635C22.1221 14.0549 21.9312 13.9745 21.8193 13.9276V13.3617L22.1343 13.1798L23.1111 13.743Z" fill="#B73C46"/>
<path d="M22.2411 27.8459C22.2411 27.8562 22.2411 27.8677 22.2418 27.8799V27.8909C22.2418 27.9051 22.2411 27.9147 22.2411 27.9186H22.2418L22.2965 31.4093C22.2952 31.4176 22.2939 31.426 22.2939 31.4343V32.2085C21.9062 32.6933 21.5043 33.1704 21.0896 33.6339L21.3095 15.2739C21.3185 15.2533 21.3275 15.2328 21.3365 15.2129L22.2045 14.7114L22.2064 14.7724C22.2057 14.7795 22.2045 14.7859 22.2045 14.793V17.9294C22.2025 18.4573 22.1993 19.2076 22.198 19.4886C22.1967 19.4996 22.1967 19.5112 22.1967 19.5221C22.1967 19.5233 22.1967 19.524 22.1967 19.5252V19.5265C22.1967 19.5368 22.1967 19.5484 22.1967 19.5606L22.1974 19.5716C22.1974 19.5857 22.1967 19.5954 22.1967 19.5992H22.1974L22.252 23.0899C22.2508 23.0983 22.2494 23.1067 22.2494 23.115V26.2417C22.2494 26.2443 22.2488 26.2462 22.2488 26.2488C22.2468 26.7767 22.2437 27.5264 22.2423 27.8073C22.2411 27.8189 22.2411 27.8298 22.2411 27.8414C22.2411 27.8427 22.2411 27.8433 22.2411 27.8446L22.2411 27.8459Z" fill="#962230"/>
<path d="M22.2077 68.0455V69.6742L20.5244 70.6464C20.518 70.649 20.5115 70.6502 20.5052 70.6541C20.4994 70.6573 20.4942 70.6625 20.4884 70.667L18.7312 71.6816C18.7235 71.6847 18.7157 71.6867 18.7086 71.6912C18.7009 71.6951 18.6958 71.7008 18.6887 71.706L17.2034 72.5637L17.2047 70.9344L22.2077 68.0455Z" fill="#B73C46"/>
<path d="M22.2077 65.9681V67.6L17.2048 70.4888V68.8564L22.2077 65.9681Z" fill="#962230"/>
<path d="M22.2045 32.9388L22.2065 57.227L20.7983 58.0397L21.0826 34.2247C21.2632 34.0292 21.4433 33.828 21.6233 33.6223C21.8168 33.4005 22.0109 33.1722 22.2045 32.9388Z" fill="#962230"/>
<path d="M22.2058 70.1204L22.1974 71.5285L20.9887 70.8238L22.2058 70.1204Z" fill="#620D13"/>
<path d="M22.0039 71.8622L20.7945 72.5605V71.1569L22.0039 71.8622Z" fill="#620D13"/>
<path d="M21.9621 14.4059L21.5988 14.6161C21.6528 14.4901 21.6972 14.3866 21.73 14.3081C21.7923 14.3345 21.8695 14.3673 21.9621 14.4059Z" fill="#B73C46"/>
<path d="M21.4335 13.5842V14.0169C21.3937 14.1134 21.2696 14.4105 21.069 14.865L21.062 14.8611L20.1412 14.3301L21.4335 13.5842Z" fill="#B73C46"/>
<path d="M20.9134 16.1393L20.6987 34.0621C20.3733 34.4125 20.0403 34.7526 19.7002 35.0805L19.902 18.2155C20.2962 17.4381 20.635 16.7347 20.9134 16.1393Z" fill="#620D13"/>
<path d="M20.5212 14.9948L20.9109 15.2192C20.6595 15.7767 20.3239 16.4988 19.9123 17.3327L19.9445 14.6618L20.5212 14.9948Z" fill="#620D13"/>
<path d="M20.6974 58.5437C20.6974 58.5437 20.6974 58.5437 20.6974 58.5431L22.2065 57.6718L22.2071 61.3747L21.8657 61.5721C21.7737 61.6255 21.7422 61.7432 21.7956 61.8357C21.8309 61.8975 21.8959 61.9322 21.9628 61.9322C21.9955 61.9322 22.0284 61.9238 22.0586 61.9058L22.2071 61.8203L22.2078 65.5225L17.2048 68.4107L17.2042 64.7091L17.2145 64.7033C17.307 64.65 17.3385 64.5317 17.2852 64.4397C17.2652 64.4056 17.2369 64.3799 17.2042 64.3638L17.2035 58.4845L19.0475 57.4217L19.0456 57.5882C19.0449 57.6583 19.0816 57.7226 19.142 57.7579L20.5038 58.5423C20.5038 58.543 20.5038 58.543 20.5038 58.543L20.5051 58.5437C20.5141 58.5488 20.5238 58.5514 20.5334 58.5552C20.5398 58.5578 20.545 58.561 20.5514 58.5629C20.5675 58.5668 20.5842 58.5694 20.6009 58.5694C20.6176 58.5694 20.6343 58.5668 20.6504 58.5629C20.6549 58.5617 20.6594 58.5591 20.6639 58.5571C20.6748 58.5533 20.6864 58.5501 20.6967 58.5437C20.6967 58.5437 20.6967 58.5437 20.6974 58.5437ZM20.444 62.8382C20.536 62.7855 20.5681 62.6671 20.5147 62.5752C20.4614 62.4827 20.3437 62.4512 20.2511 62.5045L18.6366 63.4368C18.544 63.4902 18.5125 63.6079 18.5659 63.7005C18.6012 63.7622 18.6662 63.7969 18.7331 63.7969C18.7658 63.7969 18.7987 63.7885 18.8295 63.7712L20.444 62.8382Z" fill="#EBDB74"/>
<path d="M20.6922 34.6401L20.4118 58.0448L19.4326 57.4803L19.6936 35.6252C20.0268 35.3146 20.3592 34.9867 20.6922 34.6401Z" fill="#620D13"/>
<path d="M20.5148 62.5752C20.5682 62.6671 20.536 62.7854 20.4441 62.8381L18.8296 63.7711C18.7988 63.7884 18.7659 63.7968 18.7332 63.7968C18.6663 63.7968 18.6013 63.762 18.566 63.7004C18.5126 63.6078 18.5441 63.4901 18.6367 63.4368L20.2512 62.5044C20.3437 62.4511 20.4614 62.4826 20.5148 62.5752Z" fill="black"/>
<path d="M20.4087 71.1582V72.5611L19.1941 71.8596L20.4087 71.1582Z" fill="#620D13"/>
<path d="M20.2152 72.8948L18.9974 73.5982L18.998 72.192L20.2152 72.8948Z" fill="#620D13"/>
<path d="M19.0976 53.2431L19.0777 54.8827L17.2035 55.9655V54.3368L19.0976 53.2431Z" fill="#962230"/>
<path d="M19.0726 55.3315L19.0527 56.9736L17.2035 58.0397V56.411L19.0726 55.3315Z" fill="#B73C46"/>
<path d="M18.6122 72.1959L18.6116 73.5982L17.3977 72.8974L18.6122 72.1959Z" fill="#620D13"/>
<path d="M18.4187 73.9319L17.2022 74.6347L17.2028 73.2298L18.4187 73.9319Z" fill="#620D13"/>
<path d="M20.6974 58.5431C20.6974 58.5438 20.6974 58.5438 20.6974 58.5438C20.6967 58.5438 20.6967 58.5438 20.6967 58.5438C20.6864 58.5503 20.6749 58.5534 20.664 58.5573C20.6595 58.5592 20.655 58.5618 20.6505 58.5631C20.6344 58.5669 20.6177 58.5695 20.601 58.5695C20.5842 58.5695 20.5676 58.5669 20.5515 58.5631C20.545 58.5611 20.5399 58.558 20.5335 58.5554C20.5238 58.5515 20.5142 58.5489 20.5052 58.5438L20.5039 58.5431C20.5039 58.5431 20.5039 58.5431 20.5039 58.5425L19.1421 57.7581C19.0816 57.7227 19.045 57.6584 19.0457 57.5884L19.0476 57.4218L17.2036 58.4847L17.2042 64.364C17.237 64.3801 17.2653 64.4058 17.2853 64.4399C17.3386 64.5318 17.3071 64.6501 17.2146 64.7035L17.2042 64.7093L17.2049 68.4108L22.2079 65.5226L22.2072 61.8204L22.0587 61.9059C22.0284 61.9239 21.9957 61.9323 21.9629 61.9323C21.896 61.9323 21.831 61.8976 21.7957 61.8359C21.7423 61.7433 21.7738 61.6256 21.8658 61.5723L22.2072 61.3748L22.2065 57.672L20.6974 58.5431ZM16.9123 75.1362L2.5464 66.84C2.48659 66.8053 2.44998 66.7423 2.44998 66.6735L2.44613 64.6012V62.5231V36.1601C1.94076 36.4462 1.43799 36.7323 0.939003 37.0184C0.908766 37.0358 0.876009 37.0435 0.843177 37.0435C0.776329 37.0435 0.711334 37.0087 0.67539 36.9471C0.622697 36.8545 0.654787 36.7362 0.746759 36.6835C2.79652 35.5087 4.91381 34.3289 7.04013 33.178C7.04206 33.1773 7.04398 33.1761 7.04591 33.1754C7.33783 33.0301 7.6259 32.8713 7.91197 32.6996C7.91842 32.6951 7.92613 32.6906 7.93317 32.6867C11.8373 30.3373 15.1775 25.6732 17.352 22.0443C18.1885 20.6477 18.9164 19.3008 19.5176 18.1209L19.5625 14.328C19.5625 14.319 19.5651 14.31 19.5664 14.3011C19.5677 14.294 19.5677 14.2863 19.5696 14.2792C19.5722 14.2702 19.5766 14.2625 19.5799 14.2542C19.5831 14.2471 19.585 14.24 19.5888 14.2336C19.5934 14.2259 19.5997 14.2194 19.6049 14.2124C19.61 14.2059 19.6139 14.1995 19.6191 14.1937C19.6255 14.1872 19.6339 14.1828 19.6409 14.177C19.6474 14.1725 19.6525 14.1674 19.659 14.1635L21.4335 13.1386V12.7445C21.4335 12.6384 21.5197 12.5516 21.6265 12.5516C21.7332 12.5516 21.8194 12.6384 21.8194 12.7445V12.9162L22.038 12.7901C22.0978 12.7554 22.1711 12.7554 22.2309 12.7901L23.5934 13.5758C23.5953 13.5765 23.596 13.5777 23.5972 13.5784C23.6011 13.581 23.6049 13.5829 23.6088 13.5861C23.6139 13.5893 23.6184 13.5932 23.6229 13.5971C23.6261 13.6003 23.63 13.6029 23.6332 13.6061C23.6345 13.6067 23.6352 13.608 23.6358 13.6087C23.6365 13.6093 23.6365 13.6099 23.6371 13.6106C23.6409 13.6144 23.6441 13.619 23.648 13.6235C23.6525 13.6293 23.6564 13.635 23.6602 13.6408C23.6615 13.6421 23.6628 13.644 23.6634 13.6453C23.6641 13.646 23.6641 13.646 23.6647 13.6466C23.6659 13.6492 23.6666 13.6524 23.6685 13.655C23.6717 13.6614 23.6743 13.6679 23.6769 13.6749C23.6788 13.6794 23.6807 13.6839 23.682 13.6884C23.6827 13.691 23.6833 13.6935 23.6839 13.6961C23.6852 13.7006 23.6859 13.7057 23.6865 13.7103C23.6878 13.7173 23.6885 13.7237 23.6891 13.7302C23.6891 13.734 23.6904 13.7373 23.6904 13.7405L23.6974 14.4169C23.6974 14.5243 23.7083 14.6252 23.7277 14.7204C29.2309 16.9792 44.612 23.0854 53.2252 24.4254C53.3306 24.4415 53.4026 24.5405 53.3859 24.6453C53.3711 24.7411 53.2888 24.8086 53.1956 24.8086C53.1859 24.8086 53.1756 24.808 53.166 24.8067C52.5828 24.7161 51.9688 24.6036 51.3297 24.4724V26.6803C59.8194 29.3705 65.2217 30.2321 67.0606 29.1705C67.1532 29.1172 67.2708 29.1487 67.3242 29.2412C67.3776 29.3332 67.3454 29.4515 67.2535 29.5042C66.8671 29.7272 66.3476 29.8739 65.6956 29.9453V42.8208L65.6995 44.893V46.9673C65.6995 46.9699 65.6988 46.9718 65.6988 46.9743C65.6981 46.9865 65.6962 46.9981 65.6937 47.0097C65.693 47.0135 65.6924 47.0174 65.6911 47.0212C65.6872 47.0354 65.6815 47.0501 65.6738 47.0637C65.666 47.0772 65.6564 47.0887 65.6461 47.0997C65.6429 47.1029 65.6403 47.1055 65.6371 47.1081C65.6282 47.1165 65.6191 47.1235 65.6088 47.1299C65.6069 47.1312 65.605 47.1331 65.6031 47.1345L60.2387 50.2316C60.2317 50.2368 60.2258 50.2432 60.2181 50.2471C60.2104 50.2516 60.202 50.2541 60.1937 50.2574L53.04 54.3878C53.0362 54.3904 53.0336 54.3936 53.0297 54.3955C53.0259 54.3981 53.022 54.3987 53.0182 54.4006L49.4471 56.4626C49.4452 56.4639 49.4433 56.4658 49.4407 56.4677C49.4381 56.469 49.4349 56.4697 49.4323 56.4709L44.0577 59.5739C44.0558 59.5751 44.0538 59.5771 44.0519 59.5784C44.05 59.5797 44.0474 59.5803 44.0449 59.5816L40.4628 61.65C40.4603 61.6513 40.4583 61.6539 40.4557 61.6551C40.4531 61.6564 40.4506 61.6571 40.448 61.6583L36.8693 63.7248C36.8673 63.7255 36.8661 63.7274 36.8642 63.7287C36.8622 63.73 36.8596 63.73 36.8577 63.7313L33.2776 65.7984C33.2764 65.7991 33.2757 65.8003 33.2744 65.801L27.8863 68.9117L27.8857 68.9123C27.885 68.9123 27.8844 68.9123 27.8837 68.913C27.8831 68.913 27.8831 68.913 27.8831 68.913L26.0917 69.9475C26.0917 69.9475 26.0905 69.9488 26.0898 69.9488C26.0891 69.9494 26.0879 69.9494 26.0872 69.95L24.2946 70.9852C24.2939 70.9852 24.2939 70.9859 24.2934 70.9859C24.2927 70.9865 24.2921 70.9865 24.2914 70.9871L22.4847 72.03L22.484 72.0307C22.4833 72.0307 22.4827 72.0314 22.4827 72.0314L20.6998 73.0608C20.6991 73.0614 20.6985 73.062 20.6978 73.062C20.6966 73.0627 20.6959 73.0627 20.6953 73.0633L18.9014 74.0991C18.9014 74.0991 18.9014 74.0991 18.9007 74.0991C18.9007 74.0991 18.9007 74.0991 18.9007 74.0998L17.1049 75.1363C17.1049 75.1363 17.1049 75.1363 17.1043 75.1363C17.0915 75.144 17.0779 75.1492 17.0637 75.1536C17.0618 75.1543 17.0599 75.1549 17.058 75.1555C17.0419 75.16 17.0251 75.162 17.0084 75.162C16.9918 75.162 16.975 75.16 16.9589 75.1555C16.9431 75.1517 16.927 75.1446 16.9123 75.1362ZM65.3136 46.6328V45.2273L64.0965 45.9301L65.3136 46.6328ZM65.3136 44.7817L65.3105 43.1549L63.838 44.005C63.82 44.0204 63.7994 44.0326 63.777 44.0403L60.3107 46.0419V47.6706L61.8114 46.8039C61.8126 46.8032 61.8133 46.8026 61.814 46.8019C61.814 46.8019 61.8159 46.8019 61.8166 46.8013L63.5866 45.779C63.5943 45.7725 63.6014 45.7661 63.6104 45.761C63.6188 45.7558 63.6284 45.7533 63.6374 45.7494L65.3136 44.7817ZM65.3097 42.7094V29.9773C65.1149 29.9888 64.9098 29.9946 64.6944 29.9946C63.5299 29.9946 62.0672 29.8236 60.3106 29.4822V41.6722L61.9142 42.5961L63.6135 41.615C63.6733 41.5803 63.7466 41.5803 63.8064 41.6143C63.8663 41.6491 63.9029 41.7126 63.9029 41.7815L63.9055 43.5207L65.3097 42.7094ZM63.8998 47.6724L65.1207 46.9671L63.8998 46.2618V47.6724ZM63.5204 43.7433L63.5178 42.116L60.3106 43.9677V45.5964L63.5204 43.7433ZM63.5139 47.6718V46.2663L62.2968 46.9691L63.5139 47.6718ZM62.1065 48.7076L63.321 48.0062L62.1039 47.3034L62.1065 48.7076ZM61.7207 48.707L61.7181 47.3034L60.501 48.0061L61.7207 48.707ZM60.3107 43.5221L61.5278 42.8193L60.3107 42.1178V43.5221ZM60.3132 49.7428L61.5278 49.0413L60.308 48.3405L60.3132 49.7428ZM59.9275 49.7454L59.9224 48.3405L58.7078 49.0413L59.9275 49.7454ZM59.9249 47.8937V46.265L54.8898 49.1725V50.8012L59.9249 47.8937ZM59.9249 45.8194V44.1902L54.8898 47.0977V48.727L59.9249 45.8194ZM59.9249 43.7445V41.8954L58.3181 40.9695L57.5832 41.3939C57.5524 41.4119 57.5195 41.4203 57.4868 41.4203C57.4199 41.4203 57.3549 41.3855 57.3196 41.3232C57.2662 41.2312 57.2977 41.1136 57.3903 41.0602L57.9317 40.7471L54.8898 38.9944V42.5037L55.7751 41.9926C55.8677 41.9392 55.9854 41.9707 56.0387 42.0627C56.0921 42.1552 56.0606 42.2729 55.968 42.3263L54.8898 42.9493V46.6522L59.9249 43.7445ZM59.9249 41.4498V29.4057C58.4447 29.1049 56.766 28.6882 54.8898 28.1571V38.5488L58.3875 40.5644C58.4087 40.5721 58.4281 40.5831 58.4454 40.5979L59.9249 41.4498ZM58.5117 50.7831L59.732 50.0784L58.5168 49.3763L58.5117 50.7831ZM58.1259 50.7838L58.131 49.375L56.91 50.0797L58.1259 50.7838ZM56.7145 51.8209L57.9323 51.1175L56.7178 50.4147L56.7145 51.8209ZM56.3288 51.8202L56.332 50.4134L55.1135 51.1168L56.3288 51.8202ZM54.9175 52.858L56.1365 52.1546L54.9175 51.4493V52.858ZM54.5317 52.8573V51.4531L53.3165 52.1546L54.5317 52.8573ZM54.504 51.0236V49.3949L49.5345 52.2645V53.8938L51.0159 53.038C51.0229 53.0329 51.0294 53.0265 51.0371 53.0219C51.0441 53.0174 51.0525 53.0155 51.0602 53.0123L52.8284 51.9913C52.8303 51.99 52.8316 51.9887 52.8335 51.9874C52.8354 51.9862 52.838 51.9862 52.8399 51.9848L54.504 51.0236ZM54.504 48.95V47.3201L49.5345 50.1897V51.8196L54.504 48.95ZM54.504 46.8746V43.1717L54.3536 43.2585C54.3233 43.2765 54.2899 43.2848 54.2572 43.2848C54.1903 43.2848 54.126 43.2501 54.09 43.1884C54.0366 43.0959 54.0681 42.9782 54.1607 42.9248L54.504 42.7261V38.7718L52.9152 37.8563L49.5345 39.8103V45.7398C49.5518 45.7545 49.5679 45.7713 49.5795 45.7925C49.6277 45.8754 49.6065 45.9789 49.5345 46.0375V49.7442L54.504 46.8746ZM54.504 38.3269V28.0471C53.501 27.7585 52.442 27.4382 51.3297 27.0859V34.5225C51.3297 34.5231 51.3297 34.5231 51.3297 34.5231C51.3297 34.5238 51.3297 34.5238 51.3297 34.5238L51.3194 36.2669L52.8368 35.3924C52.8966 35.3577 52.9706 35.3583 53.0303 35.3931C53.0901 35.4279 53.1267 35.4921 53.1261 35.5616L53.1088 37.5233L54.504 38.3269ZM53.1255 53.8932L54.34 53.1917L53.1236 52.4889L53.1255 53.8932ZM52.7397 53.8944L52.7378 52.4889L51.5219 53.1911L52.7397 53.8944ZM52.723 37.5219L52.7371 35.8951L51.2204 36.7689L49.5345 37.7424V39.3646L52.723 37.5219ZM51.3188 54.9361L52.5456 54.2275L51.3246 53.5228L51.3188 54.9361ZM50.9439 34.4112V26.9637C50.4829 26.8164 50.0135 26.6641 49.5346 26.5059V35.2252L50.9439 34.4112ZM50.9439 26.5574V24.3906C49.3931 24.0594 47.7028 23.6223 45.941 23.1156V24.8728C46.1969 24.9629 46.4528 25.0522 46.71 25.1415C48.1952 25.6579 49.6065 26.1291 50.9439 26.5574ZM50.9323 36.49L50.9419 34.8581L49.5345 35.6701V37.2969L50.9323 36.49ZM50.933 54.9303L50.9388 53.528L49.7287 54.2268L50.933 54.9303ZM49.5371 55.9648L50.7452 55.2672L49.5371 54.5612V55.9648ZM49.1513 55.9667V54.5606L47.931 55.2653L49.1513 55.9667ZM49.1487 54.1163V52.4876L44.1484 55.3752V57.0038L45.615 56.1571C45.6246 56.1481 45.6349 56.139 45.6465 56.1326C45.6587 56.1256 45.6709 56.1217 45.6838 56.1172L47.4134 55.1187C47.4224 55.1103 47.432 55.102 47.4429 55.0956C47.4539 55.0891 47.466 55.0853 47.4777 55.0814L49.1487 54.1163ZM49.1487 52.042V50.4121L44.1484 53.2997V54.9296L49.1487 52.042ZM49.1487 49.9665V46.2637L47.8943 46.9883C47.8641 47.0057 47.8313 47.014 47.7985 47.014C47.7317 47.014 47.6667 46.9794 47.6313 46.9176C47.578 46.8251 47.6095 46.7074 47.7014 46.654L49.1487 45.8188V40.0334L44.1484 42.9229V52.8541L49.1487 49.9665ZM49.1487 39.5877V37.9655L44.1484 40.8524V42.4772L49.1487 39.5877ZM49.1487 37.5199V35.8932L44.1484 38.7801V40.4069L49.1487 37.5199ZM49.1487 35.4477V26.3786C48.3193 26.1028 47.4641 25.8122 46.5814 25.5054C46.3673 25.4309 46.1538 25.3562 45.941 25.2817V37.2994L49.1487 35.4477ZM47.7323 57.007L48.9565 56.3004L47.7323 55.5963V57.007ZM47.3465 57.0051V55.6022L46.1339 56.303L47.3465 57.0051ZM45.9358 58.0441L47.1555 57.3401L45.9358 56.6341V58.0441ZM45.5552 37.5225V25.1454C45.0832 24.9789 44.6139 24.8111 44.1483 24.6432V38.3346L45.5552 37.5225ZM45.5552 24.7364V23.0036C43.9252 22.5279 42.2394 21.9961 40.5522 21.4355V22.904C42.1404 23.5039 43.8288 24.1256 45.5552 24.7364ZM45.5501 58.041V56.64L44.3413 57.3376L45.5501 58.041ZM44.1484 59.0761L45.3597 58.3766L44.1484 57.6719V59.0761ZM43.7626 59.0781V57.6719L42.5422 58.3766L43.7626 59.0781ZM43.7626 57.227V55.5983L38.7596 58.4872V60.1158L40.261 59.2485C40.2629 59.2473 40.2648 59.2453 40.2668 59.2447C40.2687 59.2434 40.2713 59.2427 40.2732 59.2415L42.0189 58.2339C42.0292 58.2236 42.0407 58.214 42.0536 58.207C42.0671 58.1993 42.0813 58.1935 42.0961 58.1896L43.7626 57.227ZM43.7626 55.1528V53.5222L38.7596 56.411V58.0416L43.7626 55.1528ZM43.7626 53.0766V43.1453L38.7596 46.0367V51.8176L39.6283 51.3161C39.7202 51.2628 39.8385 51.2943 39.8912 51.3868C39.9446 51.4788 39.9131 51.5964 39.8211 51.6498L38.7595 52.2625V55.9654L43.7626 53.0766ZM43.7626 42.6997V41.0756L38.7596 43.9638V45.5911L43.7626 42.6997ZM43.7626 40.63V39.0027L38.7596 41.8915V43.5189L43.7626 40.63ZM43.7626 38.5577V24.5037C42.6625 24.1051 41.5861 23.7064 40.5522 23.3168V40.4115L43.7626 38.5577ZM42.3436 60.1184L43.5678 59.4111L42.3436 58.7071V60.1184ZM41.9577 60.1158V58.7149L40.7483 59.4125L41.9577 60.1158ZM40.5529 61.1523L41.7674 60.4508L40.5554 59.7468L40.5529 61.1523ZM40.1671 61.1536L40.1697 59.7467L38.9533 60.4495L40.1671 61.1536ZM40.1665 40.6339V23.1708C39.6875 22.9895 39.2175 22.8101 38.7597 22.634V41.4459L40.1665 40.6339ZM40.1665 22.758V21.3069C38.4774 20.741 36.7915 20.1489 35.1623 19.5587V20.8106C36.6154 21.3905 38.3173 22.0573 40.1665 22.758ZM38.7449 62.1964L39.9736 61.4866L38.757 60.7819L38.7449 62.1964ZM38.3739 60.3383V58.7096L33.3683 61.6004L33.3696 63.2284L34.8497 62.3732C34.8529 62.3713 34.8548 62.3687 34.858 62.3668C34.8619 62.3648 34.8657 62.3642 34.8689 62.3622L36.6666 61.3245C36.6692 61.3225 36.6718 61.3199 36.6744 61.318C36.6775 61.3167 36.6808 61.3161 36.6833 61.3142L38.3739 60.3383ZM38.3739 58.2647V56.6335L33.3677 59.5243L33.3684 61.1549L38.3739 58.2647ZM38.3739 56.188V52.4857L38.2061 52.5822C38.1759 52.6002 38.1424 52.6085 38.1097 52.6085C38.0434 52.6085 37.9785 52.5738 37.9425 52.5121C37.8891 52.4196 37.9213 52.3019 38.0132 52.2485L38.3739 52.0402V46.2592L32.7293 49.521L32.8206 55.2466L33.1691 55.0454C33.2616 54.992 33.3793 55.0235 33.4327 55.1161C33.486 55.2081 33.4539 55.3263 33.362 55.3797L32.8276 55.6883L32.8861 59.3564L38.3739 56.188ZM38.3739 45.8137V44.1869L32.6964 47.4648L32.7222 49.0799L38.3739 45.8137ZM38.3739 43.7414V42.114L32.6637 45.4112L32.6894 47.0237L38.3739 43.7414ZM38.3739 41.6684V22.4855C37.2152 22.0386 36.1351 21.6136 35.1623 21.2259V43.5227L38.3739 41.6684ZM38.3591 62.1945L38.3706 60.7857L37.1547 61.4879L38.3591 62.1945ZM36.9606 63.2265L38.1675 62.5296L36.9626 61.8223L36.9606 63.2265ZM36.5748 63.231L36.5768 61.8217L35.3449 62.5328L36.5748 63.231ZM35.1481 64.2726L36.3781 63.5628L35.1481 62.8652V64.2726ZM34.7764 43.7458V21.0715C33.81 20.6851 32.9601 20.3398 32.2599 20.0524L32.6566 44.9694L34.7764 43.7458ZM34.7764 20.6562V19.4184C33.749 19.0443 32.7459 18.6713 31.7815 18.3068L32.1396 18.5138L32.1408 18.5145C32.1473 18.5177 32.1517 18.5229 32.1569 18.5267C32.1653 18.5325 32.1737 18.5383 32.1807 18.5448C32.1858 18.5499 32.1897 18.5563 32.1942 18.5621C32.2 18.5698 32.2064 18.5763 32.2109 18.584C32.2148 18.591 32.2174 18.5981 32.22 18.6052C32.2238 18.6135 32.2284 18.6212 32.2303 18.6302C32.2322 18.6372 32.2329 18.645 32.2335 18.6527C32.2354 18.6611 32.2373 18.6694 32.2373 18.6784L32.2527 19.6326C32.9472 19.9174 33.7991 20.2647 34.7764 20.6562ZM34.7623 64.2559V62.8697L33.5618 63.5628L34.7623 64.2559ZM33.3709 65.2994L34.5842 64.5985L33.3697 63.8971L33.3709 65.2994ZM32.9852 65.5219L32.9839 63.6046C32.9775 63.5762 32.9775 63.5467 32.9839 63.5171L32.982 59.748L27.979 62.6407L27.9822 68.4107L32.9852 65.5219ZM32.5035 59.5777L31.8708 19.8923C31.5256 19.7502 31.2266 19.6261 30.9758 19.5213L29.8731 20.1585C29.8673 20.1701 29.8621 20.1816 29.857 20.1939L29.3645 61.3902L32.5035 59.5777ZM31.8645 19.4725L31.8574 19.0128L31.3964 19.279C31.5404 19.3388 31.6966 19.403 31.8645 19.4725ZM30.9482 19.0918L31.6587 18.6816L30.6821 18.1184L30.3671 18.3003V18.8475C30.4814 18.8964 30.6775 18.9787 30.9482 19.0918ZM30.1355 19.5612L30.5284 19.3342C30.4275 19.2917 30.3439 19.2564 30.2777 19.2287C30.2423 19.3124 30.1947 19.4242 30.1355 19.5612ZM30.367 17.8554L30.4564 17.8033C30.4268 17.7918 30.3966 17.7802 30.367 17.7687V17.8554ZM29.9812 18.9375V18.5235L29.2887 18.9234C29.2881 18.9234 29.2881 18.9234 29.2881 18.9234L28.6888 19.2693L29.2495 19.5928L29.6102 19.8004C29.8147 19.3374 29.9407 19.0353 29.9812 18.9375ZM29.9812 18.0779V17.6207C27.529 16.6769 25.4194 15.8294 23.9238 15.2173C24.1624 15.6121 24.5038 15.8159 24.5089 15.8191L29.1936 18.5324L29.9812 18.0779ZM28.9763 61.6139L29.4611 21.0599C29.1834 21.6553 28.8445 22.3581 28.4497 23.1354L28.3983 27.4658C28.399 27.4716 28.3996 27.4774 28.4009 27.4826C28.4016 27.4897 28.4021 27.496 28.4021 27.5025C28.4021 27.5051 28.4028 27.5076 28.4028 27.5102L28.3778 29.5696C28.3778 29.5825 28.3752 29.5947 28.3727 29.6069L28.2994 35.7447C28.2994 35.7454 28.2994 35.746 28.2994 35.7473L28.2904 36.4533L28.176 46.0413C28.176 46.0432 28.1766 46.0444 28.1766 46.0464L28.156 47.7265L28.1541 47.8731C28.1579 47.8943 28.1573 47.9161 28.1534 47.9373L27.983 62.1874L28.9763 61.6139ZM29.452 20.1547L28.4927 19.6017L28.4715 21.3275C28.4715 21.3281 28.4715 21.3287 28.4715 21.3287L28.46 22.2533C28.8682 21.4265 29.2013 20.7102 29.452 20.1547ZM28.3062 19.0449L28.8078 18.7549L24.3154 16.1528C24.2813 16.1329 23.6428 15.7516 23.4023 15.0039C23.0969 14.8778 22.8249 14.7653 22.5896 14.6676L22.5935 14.8091C22.5935 15.7305 23.3972 16.2101 23.4055 16.2153L28.3062 19.0449ZM28.0896 20.9938L28.1089 19.3761L23.2114 16.5483C23.1876 16.5348 22.8635 16.3412 22.5903 15.9664V17.8188L28.0896 20.9938ZM28.0652 23.0416L28.0844 21.4361L24.1578 19.169C24.0273 19.1716 23.8993 19.178 23.7772 19.1883L23.8331 22.7908C23.8331 23.7096 24.6369 24.1893 24.6446 24.1937L26.7863 25.434C27.2595 24.5899 27.6871 23.7829 28.0652 23.0416ZM28.0279 26.1536L28.0549 23.902C27.7668 24.4523 27.4543 25.031 27.1199 25.6277L28.0279 26.1536ZM28.0157 27.1733L28.0227 26.5966L26.9303 25.9639C26.8474 26.1085 26.7638 26.2545 26.6789 26.4011L28.0157 27.1733ZM27.9912 29.2328L28.0105 27.6157L26.4847 26.7342C26.4018 26.875 26.3182 27.0165 26.2334 27.1579C26.0745 27.4234 25.9151 27.6838 25.755 27.9417L27.9912 29.2328ZM27.9295 34.3932L27.9854 29.6751L25.5498 28.269C24.9956 29.1492 24.4356 29.9831 23.8723 30.7688L23.8774 31.1102C23.8774 32.0291 24.6812 32.5087 24.6889 32.5131L27.9295 34.3932ZM27.9172 35.4123L27.9237 34.8362L24.4954 32.8469C24.4555 32.8237 23.5868 32.3042 23.4994 31.2799C23.2814 31.5744 23.0635 31.8619 22.8455 32.1409C23.0757 32.6032 23.4718 32.843 23.4949 32.8572L27.9172 35.4123ZM27.9044 36.4597L27.9121 35.8553L23.3008 33.1902C23.277 33.1761 22.9536 32.9826 22.6797 32.6077V34.4601L27.8922 37.4724L27.9044 36.4597ZM27.8061 44.6923L27.8871 37.9147L24.1495 35.755C24.0512 35.7608 23.9553 35.7685 23.8628 35.7781L23.9174 41.507C23.9174 42.4251 24.7205 42.9048 24.7288 42.9093L27.8061 44.6923ZM27.7938 45.7121L27.8009 45.1353L24.5346 43.243C24.4935 43.2186 23.5316 42.6438 23.5316 41.509L23.4775 35.8322C23.0133 35.9165 22.6931 36.0457 22.6719 36.1499V36.1736C22.6719 36.1845 22.6719 36.1987 22.6712 36.2142C22.6712 36.2271 22.6712 36.2354 22.6712 36.2386L22.6693 36.2393L22.7226 41.8512C22.7226 42.7623 23.5019 43.2336 23.5347 43.2535L27.7938 45.7121ZM27.7694 47.7721L27.7887 46.1544L23.3406 43.5864C23.3168 43.5722 22.9927 43.3787 22.7195 43.0039V44.8563L27.7694 47.7721ZM27.7443 49.8791L27.7636 48.2421L24.2723 50.2558L24.298 51.8684L27.7443 49.8791ZM27.7192 51.972L27.7385 50.3272L24.3051 52.3102L24.3308 53.9247L27.6896 51.9855C27.6993 51.9797 27.709 51.9758 27.7192 51.972ZM27.5945 62.4119L27.7141 52.417L24.3372 54.3665L24.3687 56.3095C24.3694 56.3796 24.3327 56.4445 24.2723 56.4799L22.5922 57.4495L22.5929 61.1524L23.4808 60.6399C23.5734 60.5865 23.691 60.618 23.7444 60.7106C23.7971 60.8026 23.7656 60.9202 23.6737 60.9735L22.5929 61.5979L22.5935 65.2994L27.5945 62.4119ZM27.5951 66.5629L27.5945 64.9349L22.5935 67.8224V69.4511L24.0832 68.5908C24.089 68.5863 24.0941 68.5812 24.1006 68.5779C24.107 68.5741 24.1134 68.5722 24.1205 68.5696L25.8546 67.5678C25.8655 67.5582 25.8764 67.5485 25.8893 67.5408C25.9028 67.5331 25.917 67.5279 25.9311 67.5235L27.5951 66.5629ZM27.5951 68.4107L27.5906 67.011L26.3786 67.7112L27.5951 68.4107ZM27.5939 64.4893L27.5932 62.8581L22.5935 65.745V67.3776L27.5939 64.4893ZM26.1851 69.4479L27.4029 68.7451L26.1806 68.0423L26.1851 69.4479ZM24.2652 49.8148L27.4022 48.0056L24.2659 46.195C24.2466 46.195 24.2267 46.1956 24.2074 46.1962L24.2652 49.8148ZM26.5967 25.7704L24.4511 24.5275C24.4093 24.5031 23.4474 23.9283 23.4474 22.7935L23.3921 19.2321C22.9298 19.3008 22.6051 19.4147 22.5832 19.5124V19.535C22.5832 19.542 22.5832 19.5498 22.5832 19.5587L22.6385 23.1343C22.6385 24.0531 23.4423 24.5328 23.4506 24.5372L26.3445 26.2083C26.4301 26.0616 26.5136 25.9157 26.5967 25.7704ZM26.1504 26.5413L23.2565 24.8709C23.2327 24.8567 22.9093 24.6632 22.6353 24.2884V26.1408L25.4207 27.7488C25.5872 27.4814 25.7473 27.2184 25.9022 26.9599C25.9858 26.8197 26.0688 26.6802 26.1504 26.5413ZM25.7994 69.4473L25.7948 68.0482L24.5854 68.7465L25.7994 69.4473ZM24.3899 70.485L25.607 69.7816L24.3899 69.0789V70.485ZM25.2155 28.076L24.1816 27.4794C24.0575 27.4813 23.9367 27.4877 23.8209 27.4967L23.862 30.1117C24.3449 29.4237 24.7969 28.7396 25.2155 28.076ZM24.0042 70.485V69.082L22.789 69.7835L24.0042 70.485ZM23.981 56.202L23.8216 46.2193C23.196 46.2785 22.7375 46.4244 22.7118 46.5466V46.5697C22.7118 46.5806 22.7118 46.5948 22.7112 46.6103C22.7112 46.6231 22.7112 46.6315 22.7112 46.6347H22.7092C22.7022 46.7035 22.6771 46.789 22.5915 46.8205L22.5922 57.0038L23.981 56.202ZM22.5832 71.5279L23.8107 70.8187L22.5916 70.1153L22.5832 71.5279ZM23.6699 45.8503L22.7176 45.3005L22.7144 46.0721C22.9485 45.9621 23.2275 45.9152 23.3619 45.8927C23.4666 45.8753 23.5708 45.8612 23.6699 45.8503ZM23.5856 27.1348L22.6333 26.585L22.6301 27.3566C22.8649 27.2466 23.1432 27.1997 23.2776 27.1771C23.3825 27.1598 23.4866 27.1456 23.5856 27.1348ZM23.5586 18.8231L22.589 18.2631L22.5858 19.043C22.8288 18.9305 23.1214 18.8842 23.2616 18.8617C23.3625 18.8462 23.4628 18.8333 23.5586 18.8231ZM23.5548 35.4117L22.6777 34.9044L22.6745 35.6695C22.9176 35.548 23.239 35.4747 23.5329 35.4304C23.5399 35.4233 23.5471 35.4175 23.5548 35.4117ZM23.4847 30.6421L23.4358 27.5411C22.9697 27.6118 22.6488 27.7295 22.6276 27.8311V27.8542C22.6276 27.8613 22.6276 27.869 22.6276 27.878L22.6829 31.4536C22.6829 31.5358 22.6894 31.615 22.7016 31.6902C22.9697 31.3429 23.2307 30.9925 23.4847 30.6421ZM23.3162 14.5512C23.3136 14.5081 23.3117 14.4637 23.3117 14.4188L23.3078 14.0747L22.8308 14.3499C22.9793 14.4116 23.1413 14.4792 23.3162 14.5512ZM22.3826 14.1635L23.1111 13.743L22.1345 13.1798L21.8194 13.3617V13.9276C21.9313 13.9745 22.1222 14.0548 22.3826 14.1635ZM22.2964 31.4092L22.2417 27.9185H22.2411C22.2411 27.9146 22.2417 27.905 22.2417 27.8908V27.8799C22.2411 27.8676 22.2411 27.8561 22.2411 27.8458V27.8445C22.2411 27.8433 22.2411 27.8426 22.2411 27.8413C22.2411 27.8298 22.2411 27.8188 22.2423 27.8072C22.2436 27.5263 22.2468 26.7766 22.2488 26.2487C22.2488 26.2461 22.2494 26.2442 22.2494 26.2416V23.1149C22.2494 23.1065 22.2507 23.0981 22.252 23.0898L22.1974 19.5991H22.1967C22.1967 19.5953 22.1974 19.5856 22.1974 19.5715L22.1967 19.5605C22.1967 19.5483 22.1967 19.5367 22.1967 19.5264V19.5252C22.1967 19.5239 22.1967 19.5232 22.1967 19.522C22.1967 19.511 22.1967 19.4995 22.198 19.4886C22.1993 19.2076 22.2025 18.4572 22.2045 17.9293V14.7929C22.2045 14.7859 22.2057 14.7795 22.2064 14.7723L22.2045 14.7113L21.3365 15.2128C21.3275 15.2327 21.3185 15.2533 21.3095 15.2739L21.0896 33.6339C21.5043 33.1703 21.9062 32.6932 22.2939 32.2084V31.4342C22.2939 31.4259 22.2952 31.4176 22.2964 31.4092ZM22.2077 69.6742V68.0455L17.2048 70.9344L17.2035 72.5636L18.6888 71.7059C18.6958 71.7008 18.701 71.695 18.7087 71.6911C18.7157 71.6866 18.7235 71.6847 18.7312 71.6815L20.4885 70.6669C20.4943 70.6624 20.4994 70.6573 20.5052 70.654C20.5117 70.6502 20.5181 70.6489 20.5245 70.6463L22.2077 69.6742ZM22.2077 67.6V65.9681L17.2048 68.8563V70.4888L22.2077 67.6ZM22.2065 57.227L22.2045 32.9388C22.011 33.1722 21.8169 33.4005 21.6233 33.6223C21.4433 33.828 21.2632 34.0293 21.0826 34.2247L20.7983 58.0397L22.2065 57.227ZM22.1974 71.5285L22.2058 70.1204L20.9887 70.8238L22.1974 71.5285ZM20.7945 72.5605L22.0039 71.8622L20.7945 71.1569V72.5605ZM21.5988 14.6161L21.9621 14.4059C21.8695 14.3673 21.7924 14.3345 21.73 14.3081C21.6972 14.3866 21.6528 14.4901 21.5988 14.6161ZM21.4335 14.0169V13.5841L20.1412 14.3301L21.062 14.8611L21.069 14.865C21.2696 14.4104 21.3937 14.1134 21.4335 14.0169ZM20.6987 34.0621L20.9134 16.1393C20.635 16.7347 20.2962 17.4381 19.902 18.2155L19.7002 35.0805C20.0403 34.7526 20.3733 34.4125 20.6987 34.0621ZM20.9108 15.2192L20.5212 14.9948L19.9444 14.6618L19.9123 17.3327C20.3238 16.4988 20.6595 15.7767 20.9108 15.2192ZM20.4119 58.0448L20.6923 34.6401C20.3592 34.9867 20.0268 35.3146 19.6938 35.6251L19.4328 57.4803L20.4119 58.0448ZM20.4087 72.5611V71.1582L19.1941 71.8596L20.4087 72.5611ZM18.9974 73.5982L20.2152 72.8948L18.998 72.1921L18.9974 73.5982ZM19.3099 35.449L19.5067 18.9819C18.9781 19.9921 18.3679 21.0986 17.6857 22.2373C16.3542 24.4607 14.9846 26.4211 13.6061 28.0786V55.9687L16.8177 54.1143L16.8158 37.8556C16.466 38.0716 16.1162 38.2665 15.7683 38.44C15.56 38.5525 15.3543 38.6644 15.1498 38.775C15.1209 38.7911 15.0887 38.7988 15.0578 38.7988C14.9897 38.7988 14.9235 38.7622 14.8881 38.6979C14.8374 38.6046 14.872 38.4876 14.9653 38.4369C15.171 38.3249 15.3781 38.2119 15.5877 38.0987C15.5896 38.098 15.5915 38.0968 15.5934 38.0961C16.8948 37.4486 18.1403 36.5266 19.3099 35.449ZM19.1028 52.795L19.3034 35.9807C18.6013 36.6057 17.8999 37.1497 17.2016 37.61L17.2035 53.8913L19.1028 52.795ZM19.0777 54.8827L19.0976 53.2432L17.2034 54.3368V55.9655L19.0777 54.8827ZM19.0527 56.9736L19.0726 55.3315L17.2035 56.411V58.0397L19.0527 56.9736ZM18.6116 73.5982L18.6123 72.1959L17.3978 72.8974L18.6116 73.5982ZM17.2022 74.6347L18.4187 73.9319L17.2028 73.2297L17.2022 74.6347ZM16.819 70.7113V69.0788L15.4058 69.8953L15.4109 71.5246L16.819 70.7113ZM16.819 68.6339L16.8184 64.9317L15.5999 65.6357C15.5697 65.6531 15.5362 65.6614 15.5035 65.6614C15.4372 65.6614 15.3723 65.6267 15.3363 65.565C15.2829 65.473 15.3144 65.3548 15.407 65.3014L16.8183 64.4868L16.8176 58.7071L4.80953 65.6306L9.82404 68.5252L10.5628 68.099C10.6553 68.0456 10.773 68.0771 10.8264 68.1691C10.8798 68.2616 10.8476 68.3793 10.7557 68.4327L10.2098 68.7477L15.025 71.5273L15.0192 69.7848C15.0192 69.7154 15.0559 69.6517 15.1156 69.6171L16.819 68.6339ZM16.8177 72.5625L16.8189 71.1569L15.6011 71.8603L16.8177 72.5625ZM16.8177 58.2621V56.6335L4.61929 63.6798V65.295L16.8177 58.2621ZM16.8177 56.188V54.56L2.83188 62.6343V64.2668L16.8177 56.188ZM16.8164 74.6353L16.8177 73.0073L2.83247 64.9349L2.83506 66.5616L16.8164 74.6353ZM13.2203 56.1911V28.5338C13.1721 28.5898 13.1239 28.647 13.0757 28.7016C11.4573 30.5534 9.82737 31.9833 8.21738 32.9664V59.0793L13.2203 56.1911ZM7.83156 59.3025V33.1934C7.62776 33.3092 7.42395 33.4178 7.22074 33.5194C5.74644 34.3167 4.27786 35.1288 2.8318 35.9428V62.1888L7.83156 59.3025ZM4.23354 65.2981V63.9023L3.02479 64.6005L4.23354 65.2981Z" fill="black"/>
<path d="M16.819 69.0788V70.7113L15.4109 71.5247L15.4057 69.8954L16.819 69.0788Z" fill="#962230"/>
<path d="M16.8183 64.9317L16.819 68.6339L15.1158 69.617C15.056 69.6517 15.0194 69.7153 15.0194 69.7848L15.0252 71.5272L10.2099 68.7476L10.7558 68.4326C10.8478 68.3792 10.8799 68.2616 10.8265 68.169C10.7732 68.077 10.6555 68.0455 10.5629 68.0989L9.82418 68.5252L4.80968 65.6305L16.8178 58.7071L16.8184 64.4867L15.4071 65.3013C15.3146 65.3547 15.2831 65.473 15.3364 65.5649C15.3724 65.6267 15.4374 65.6614 15.5036 65.6614C15.5365 65.6614 15.5699 65.653 15.6 65.6356L16.8183 64.9317ZM13.9855 66.568C14.0774 66.5147 14.1089 66.397 14.0556 66.3044C14.0029 66.2125 13.8845 66.1804 13.7926 66.2337L12.1775 67.166C12.0855 67.2194 12.054 67.3377 12.1068 67.4297C12.1428 67.4914 12.2077 67.5261 12.274 67.5261C12.3068 67.5261 12.3403 67.5177 12.3704 67.5004L13.9855 66.568Z" fill="#EBDB74"/>
<path d="M16.819 71.1569L16.8177 72.5624L15.6012 71.8603L16.819 71.1569Z" fill="#B73C46"/>
<path d="M16.8177 56.6335V58.2621L4.61928 65.295V63.6798L16.8177 56.6335Z" fill="#B73C46"/>
<path d="M16.8177 54.56V56.188L2.83188 64.2668V62.6343L16.8177 54.56Z" fill="#962230"/>
<path d="M16.8177 73.0073L16.8164 74.6353L2.83507 66.5616L2.83247 64.9349L16.8177 73.0073Z" fill="#620D13"/>
<path d="M14.0555 66.3044C14.1088 66.397 14.0774 66.5147 13.9854 66.568L12.3703 67.5004C12.34 67.5177 12.3066 67.5261 12.2739 67.5261C12.2076 67.5261 12.1427 67.4913 12.1067 67.4297C12.054 67.3377 12.0855 67.2194 12.1774 67.166L13.7925 66.2337C13.8845 66.1803 14.0028 66.2125 14.0555 66.3044Z" fill="black"/>
<path d="M4.23353 63.9023V65.2981L3.02478 64.6005L4.23353 63.9023Z" fill="#B73C46"/>
</svg>
