<svg width="389" height="148" viewBox="0 0 389 148" fill="none" xmlns="http://www.w3.org/2000/svg">
<path d="M389 0H0V86H389V0Z" fill="#DA1333"/>
<path d="M194.5 148C227.913 148 255 120.913 255 87.5C255 54.0868 227.913 27 194.5 27C161.087 27 134 54.0868 134 87.5C134 120.913 161.087 148 194.5 148Z" fill="white"/>
<g filter="url(#filter0_d_3_86)">
<mask id="mask0_3_86" style="mask-type:luminance" maskUnits="userSpaceOnUse" x="147" y="41" width="97" height="95">
<path d="M243.344 88.442C243.344 62.241 221.777 41 195.172 41C168.567 41 147 62.241 147 88.442C147 114.644 168.567 135.884 195.172 135.884C221.777 135.884 243.344 114.644 243.344 88.442Z" fill="white"/>
</mask>
<g mask="url(#mask0_3_86)">
<path d="M243.344 88.442C243.344 62.241 221.777 41 195.172 41C168.567 41 147 62.241 147 88.442C147 114.644 168.567 135.884 195.172 135.884C221.777 135.884 243.344 114.644 243.344 88.442Z" fill="white"/>
<mask id="mask1_3_86" style="mask-type:luminance" maskUnits="userSpaceOnUse" x="109" y="41" width="173" height="102">
<path d="M281.326 41H109.018V142.27H281.326V41Z" fill="white"/>
</mask>
<g mask="url(#mask1_3_86)">
<path d="M281.326 41.3809H109.018V141.895H281.326V41.3809Z" fill="white"/>
<path d="M281.181 41H109.018V48.9528H281.181V41Z" fill="#FF001D"/>
<path d="M281.181 56.555H109.018V64.504H281.181V56.555Z" fill="#FF001D"/>
<path d="M281.181 72.106H109.018V80.059H281.181V72.106Z" fill="#FF001D"/>
<path d="M281.181 87.661H109.018V95.611H281.181V87.661Z" fill="#FF001D"/>
<path d="M281.181 103.212H109.018V111.165H281.181V103.212Z" fill="#FF001D"/>
<path d="M281.181 118.766H109.018V126.718H281.181V118.766Z" fill="#FF001D"/>
<path d="M187.215 41H109.025V95.61H187.215V41Z" fill="#2A2C73"/>
<path d="M148.246 48.6963L148.976 50.9241H151.344L149.428 52.3014L150.162 54.5326L148.246 53.1521L146.33 54.5326L147.06 52.3014L145.144 50.9241H147.512L148.246 48.6963Z" fill="white"/>
<path d="M148.246 59.644L148.976 61.871H151.344L149.428 63.252L150.162 65.48L148.246 64.103L146.33 65.48L147.06 63.252L145.144 61.871H147.512L148.246 59.644Z" fill="white"/>
<path d="M148.246 70.591L148.976 72.822H151.344L149.428 74.199L150.162 76.427L148.246 75.05L146.33 76.427L147.06 74.199L145.144 72.822H147.512L148.246 70.591Z" fill="white"/>
<path d="M148.246 81.541L148.976 83.769H151.344L149.428 85.146L150.162 87.377L148.246 86L146.33 87.377L147.06 85.146L145.144 83.769H147.512L148.246 81.541Z" fill="white"/>
<path d="M161.307 48.6963L162.041 50.9241H164.408L162.492 52.3014L163.223 54.5326L161.307 53.1521L159.391 54.5326L160.125 52.3014L158.208 50.9241H160.576L161.307 48.6963Z" fill="white"/>
<path d="M161.307 59.644L162.041 61.871H164.408L162.492 63.252L163.223 65.48L161.307 64.103L159.391 65.48L160.125 63.252L158.208 61.871H160.576L161.307 59.644Z" fill="white"/>
<path d="M161.307 70.591L162.041 72.822H164.408L162.492 74.199L163.223 76.427L161.307 75.05L159.391 76.427L160.125 74.199L158.208 72.822H160.576L161.307 70.591Z" fill="white"/>
<path d="M161.307 81.541L162.041 83.769H164.408L162.492 85.146L163.223 87.377L161.307 86L159.391 87.377L160.125 85.146L158.208 83.769H160.576L161.307 81.541Z" fill="white"/>
<path d="M174.371 48.6963L175.102 50.9241H177.469L175.553 52.3014L176.287 54.5326L174.371 53.1521L172.455 54.5326L173.186 52.3014L171.27 50.9241H173.637L174.371 48.6963Z" fill="white"/>
<path d="M174.371 59.644L175.102 61.871H177.469L175.553 63.252L176.287 65.48L174.371 64.103L172.455 65.48L173.186 63.252L171.27 61.871H173.637L174.371 59.644Z" fill="white"/>
<path d="M174.371 70.591L175.102 72.822H177.469L175.553 74.199L176.287 76.427L174.371 75.05L172.455 76.427L173.186 74.199L171.27 72.822H173.637L174.371 70.591Z" fill="white"/>
<path d="M174.371 81.541L175.102 83.769H177.469L175.553 85.146L176.287 87.377L174.371 86L172.455 87.377L173.186 85.146L171.27 83.769H173.637L174.371 81.541Z" fill="white"/>
<path d="M154.776 43.0938L155.507 45.3216H157.874L155.958 46.6989L156.692 48.9301L154.776 47.5495L152.86 48.9301L153.591 46.6989L151.675 45.3216H154.046L154.776 43.0938Z" fill="white"/>
<path d="M154.776 54.0391L155.507 56.267H157.874L155.958 57.648L156.692 59.875L154.776 58.498L152.86 59.875L153.591 57.648L151.675 56.267H154.046L154.776 54.0391Z" fill="white"/>
<path d="M154.776 64.986L155.507 67.218H157.874L155.958 68.595L156.692 70.823L154.776 69.446L152.86 70.823L153.591 68.595L151.675 67.218H154.046L154.776 64.986Z" fill="white"/>
<path d="M154.776 75.937L155.507 78.164H157.874L155.958 79.542L156.692 81.773L154.776 80.396L152.86 81.773L153.591 79.542L151.675 78.164H154.046L154.776 75.937Z" fill="white"/>
<path d="M154.776 86.884L155.507 89.115H157.874L155.958 90.492L156.692 92.72L154.776 91.343L152.86 92.72L153.591 90.492L151.675 89.115H154.046L154.776 86.884Z" fill="white"/>
<path d="M167.751 43.0938L168.485 45.3216H170.852L168.936 46.6989L169.667 48.9301L167.751 47.5495L165.835 48.9301L166.569 46.6989L164.653 45.3216H167.02L167.751 43.0938Z" fill="white"/>
<path d="M167.751 54.0391L168.485 56.267H170.852L168.936 57.648L169.667 59.875L167.751 58.498L165.835 59.875L166.569 57.648L164.653 56.267H167.02L167.751 54.0391Z" fill="white"/>
<path d="M167.751 64.986L168.485 67.218H170.852L168.936 68.595L169.667 70.823L167.751 69.446L165.835 70.823L166.569 68.595L164.653 67.218H167.02L167.751 64.986Z" fill="white"/>
<path d="M167.751 75.937L168.485 78.164H170.852L168.936 79.542L169.667 81.773L167.751 80.396L165.835 81.773L166.569 79.542L164.653 78.164H167.02L167.751 75.937Z" fill="white"/>
<path d="M167.751 86.884L168.485 89.115H170.852L168.936 90.492L169.667 92.72L167.751 91.343L165.835 92.72L166.569 90.492L164.653 89.115H167.02L167.751 86.884Z" fill="white"/>
<path d="M180.988 43.0938L181.722 45.3216H184.089L182.173 46.6989L182.904 48.9301L180.988 47.5495L179.072 48.9301L179.806 46.6989L177.89 45.3216H180.257L180.988 43.0938Z" fill="white"/>
<path d="M180.988 54.0391L181.722 56.267H184.089L182.173 57.648L182.904 59.875L180.988 58.498L179.072 59.875L179.806 57.648L177.89 56.267H180.257L180.988 54.0391Z" fill="white"/>
<path d="M180.988 64.986L181.722 67.218H184.089L182.173 68.595L182.904 70.823L180.988 69.446L179.072 70.823L179.806 68.595L177.89 67.218H180.257L180.988 64.986Z" fill="white"/>
<path d="M180.988 75.937L181.722 78.164H184.089L182.173 79.542L182.904 81.773L180.988 80.396L179.072 81.773L179.806 79.542L177.89 78.164H180.257L180.988 75.937Z" fill="white"/>
<path d="M180.988 86.884L181.722 89.115H184.089L182.173 90.492L182.904 92.72L180.988 91.343L179.072 92.72L179.806 90.492L177.89 89.115H180.257L180.988 86.884Z" fill="white"/>
</g>
<g filter="url(#filter1_d_3_86)">
<path d="M209.52 74.634H179.406C173.869 74.634 170.36 80.516 173.145 85.271L191.731 116.996C192.943 119.067 195.983 119.067 197.196 116.996L215.785 85.271C218.567 80.523 215.057 74.634 209.524 74.634H209.52ZM191.716 107.482L187.668 99.767L177.902 82.565C177.257 81.464 178.053 80.053 179.402 80.053H191.712V107.486L191.716 107.482ZM211.017 82.561L201.255 99.771L197.207 107.482V80.049H209.517C210.866 80.049 211.662 81.46 211.017 82.561Z" fill="white"/>
<path d="M172.498 85.65L191.083 117.375C192.586 119.941 196.34 119.941 197.843 117.375L216.432 85.65C219.521 80.379 215.61 73.884 209.524 73.884H209.52H179.406C173.317 73.884 169.406 80.371 172.498 85.65ZM190.962 80.803V104.431L188.332 99.419L188.326 99.408L188.32 99.397L178.554 82.195L178.549 82.186C178.206 81.601 178.614 80.803 179.402 80.803H190.962ZM210.37 82.182L210.365 82.191L200.602 99.401L200.596 99.412L200.591 99.422L197.957 104.439V80.799H209.517C210.305 80.799 210.713 81.597 210.37 82.182Z" stroke="#0D0E34" stroke-width="1.5"/>
</g>
<path d="M217.39 71.502C217.581 71.699 217.767 71.898 217.961 72.09C219.041 73.148 219.506 75.405 218.531 76.979C218.033 77.781 217.603 78.621 216.82 79.203C216 79.811 215.103 80.298 214.11 80.504C211.418 81.063 208.736 81.051 206.091 80.16C204.644 79.673 203.172 79.264 201.721 78.79C199.494 78.063 197.281 77.288 195.05 76.574C193.966 76.227 192.858 75.955 191.753 75.681C189.22 75.05 186.715 75.327 184.21 75.884C182.199 76.331 180.321 77.076 178.517 78.061C176.316 79.263 174.081 80.407 171.846 81.548C170.711 82.127 169.509 82.522 168.219 82.607C167.323 82.666 166.458 82.562 165.638 82.176C165.19 81.966 164.719 81.794 164.298 81.54C163.3 80.936 162.733 80.037 162.832 78.868C162.934 77.654 163.747 76.912 164.827 76.493C165.179 76.357 165.635 76.403 166.024 76.471C166.868 76.618 167.7 76.839 168.54 77.013C168.759 77.058 168.989 77.04 169.249 77.052C169.231 76.38 169.21 75.786 169.202 75.191C169.171 72.891 169.753 70.744 170.896 68.756C172.933 65.21 175.956 62.894 179.881 61.713C181.423 61.249 182.996 61.113 184.603 61.153C187.1 61.216 189.58 61.441 192.057 61.756C194.167 62.024 196.284 62.247 198.392 62.52C200.118 62.744 201.843 62.982 203.558 63.269C205.537 63.601 207.533 63.641 209.529 63.717C211.796 63.805 214.04 63.635 216.277 63.252C218.804 62.819 221.35 62.525 223.921 62.511C225.975 62.499 227.805 63.171 229.46 64.347C229.632 64.469 229.788 64.63 229.909 64.802C230.522 65.676 230.488 67.06 229.891 67.953C229.194 68.995 228.185 69.625 227.074 70.119C226.066 70.567 224.996 70.818 223.895 70.907C222.029 71.058 220.16 71.185 218.291 71.318C218.001 71.338 217.71 71.342 217.418 71.355C217.408 71.405 217.398 71.454 217.388 71.504L217.39 71.502ZM180.274 75.683L180.72 75.494C182.198 74.959 183.724 74.607 185.27 74.329L186.028 74.173C186.369 74.139 186.711 74.079 187.052 74.077C188.167 74.072 189.291 74.005 190.396 74.115C192.109 74.286 193.766 74.766 195.402 75.301C195.552 75.373 195.696 75.466 195.853 75.514C197.005 75.859 198.161 76.195 199.314 76.535C199.956 76.777 200.589 77.051 201.243 77.256C202.906 77.78 204.602 78.206 206.238 78.797C207.876 79.389 209.545 79.532 211.255 79.509C212.581 79.491 213.887 79.326 215.077 78.716C216.56 77.955 217.648 76.898 217.736 75.082C217.791 73.956 217.25 73.216 216.386 72.627C216.283 72.557 216.084 72.532 215.975 72.584C214.997 73.033 213.99 73.388 212.874 73.567C213.196 74.662 213.596 75.634 214.652 76.173C214.729 76.213 214.824 76.242 214.872 76.305C214.968 76.433 215.119 76.601 215.093 76.718C215.068 76.828 214.851 76.95 214.707 76.968C214.212 77.032 213.753 76.871 213.396 76.542C212.538 75.754 212.075 74.751 211.961 73.606C211.901 73 212.131 72.763 212.737 72.637C213.094 72.561 213.459 72.502 213.807 72.396C214.2 72.276 214.579 72.111 214.964 71.964C214.96 71.91 214.956 71.857 214.95 71.803C214.566 71.695 214.187 71.54 213.796 71.489C212.689 71.345 211.578 71.207 210.464 71.129C206.573 70.858 202.875 69.884 199.365 68.19C199.448 68.136 199.531 68.084 199.614 68.03C199.992 68.104 200.372 68.171 200.749 68.253C202.659 68.666 204.561 69.11 206.477 69.494C208.674 69.935 210.91 70.072 213.141 70.161C214.621 70.22 216.106 70.092 217.589 70.054C220.274 69.985 222.891 69.498 225.467 68.784C226.316 68.549 227.132 68.21 227.861 67.701C228.326 67.376 228.711 66.975 228.943 66.455C229.144 66.002 229.056 65.776 228.628 65.527C228.43 65.306 228.26 65.048 228.028 64.87C227.166 64.212 226.159 63.92 225.093 63.824C223.541 63.685 221.999 63.809 220.462 64.02C219.119 64.206 217.779 64.404 216.44 64.61C216.033 64.672 215.633 64.778 215.23 64.865C215.233 64.907 215.236 64.949 215.239 64.992C215.921 65.044 216.603 65.085 217.283 65.15C219.284 65.345 221.276 65.289 223.259 64.971C223.556 64.924 223.857 64.846 224.122 65.073C224.119 65.362 223.915 65.484 223.685 65.558C223.198 65.716 222.715 65.918 222.214 65.99C220.299 66.266 218.369 66.329 216.441 66.173C214.883 66.048 213.331 65.85 211.777 65.684C211.668 65.621 211.564 65.519 211.447 65.5C210.558 65.354 209.666 65.226 208.774 65.09C207.924 64.961 207.075 64.83 206.225 64.702C204.312 64.413 202.403 64.091 200.484 63.848C199.226 63.689 197.951 63.672 196.689 63.545C194.806 63.355 192.93 63.079 191.045 62.925C188.535 62.72 186.018 62.677 183.498 62.767C181.497 62.839 179.664 63.468 177.852 64.224C176.669 64.718 175.622 65.411 174.674 66.266C173.363 67.448 172.397 68.885 171.616 70.438C171.04 71.584 170.609 72.797 170.376 74.067C170.201 75.027 170.358 75.966 170.526 76.912C171.075 76.973 171.484 76.798 171.834 76.499C172.209 76.179 172.556 75.829 172.916 75.491L173.126 75.664C173.126 75.701 173.112 75.731 173.085 75.756C173.052 75.805 173.019 75.854 172.986 75.902C172.401 76.915 171.627 77.728 170.525 78.192C169.227 78.567 167.942 78.52 166.67 78.063C166.428 77.976 166.183 77.895 165.939 77.819C165.591 77.711 165.318 77.809 165.09 78.096C164.794 78.466 164.797 79.094 165.12 79.649C165.502 80.306 166.098 80.699 166.776 80.996C167.192 81.268 167.637 81.445 168.144 81.42C168.815 81.388 169.482 81.293 170.081 80.985C171.204 80.406 172.308 79.789 173.418 79.187C173.519 79.159 173.628 79.147 173.718 79.099C175.443 78.18 177.166 77.257 178.889 76.335C179.351 76.118 179.813 75.9 180.275 75.682L180.274 75.683Z" fill="#0B0907"/>
<path d="M211.773 65.681C213.328 65.848 214.88 66.045 216.437 66.171C218.366 66.327 220.295 66.264 222.21 65.988C222.711 65.916 223.195 65.714 223.681 65.555C223.911 65.481 224.116 65.359 224.118 65.071C225.065 64.845 225.94 65.188 226.827 65.42C227.341 65.554 227.769 65.817 228.034 66.295C227.898 66.347 227.756 66.386 227.629 66.454C226.953 66.814 226.3 67.223 225.601 67.532C225.118 67.745 224.578 67.838 224.058 67.96C222.933 68.222 221.816 68.535 220.676 68.702C219.404 68.889 218.112 68.967 216.827 69.036C215.844 69.088 214.856 69.074 213.871 69.044C212.887 69.013 211.905 68.921 210.921 68.864C208.646 68.731 206.4 68.406 204.177 67.903C203.34 67.714 202.496 67.556 201.654 67.382C200.561 67.154 199.453 66.984 198.382 66.682C196.247 66.079 194.115 66.218 192 66.656C190.619 66.942 189.275 67.395 187.917 67.784C187.777 67.825 187.659 67.942 187.531 68.024C187.548 68.067 187.564 68.111 187.582 68.153C187.763 68.132 187.947 68.12 188.127 68.087C189.137 67.896 190.141 67.66 191.158 67.518C192.113 67.384 193.082 67.359 194.042 67.264C195.566 67.115 197.03 67.423 198.485 67.815L199.36 68.192C202.87 69.886 206.569 70.859 210.46 71.131C211.574 71.208 212.684 71.346 213.792 71.49C214.184 71.542 214.562 71.697 214.946 71.805C214.95 71.859 214.954 71.912 214.96 71.966C214.575 72.112 214.197 72.277 213.803 72.397C213.454 72.503 213.091 72.564 212.732 72.638C212.127 72.764 211.897 73.001 211.957 73.608C212.07 74.753 212.533 75.755 213.391 76.544C213.749 76.873 214.207 77.033 214.702 76.97C214.847 76.952 215.064 76.83 215.088 76.719C215.115 76.603 214.963 76.435 214.867 76.306C214.82 76.243 214.724 76.213 214.648 76.175C213.591 75.635 213.191 74.663 212.87 73.568C213.985 73.389 214.992 73.035 215.97 72.585C216.08 72.535 216.28 72.558 216.382 72.628C217.246 73.216 217.785 73.956 217.731 75.084C217.644 76.899 216.555 77.956 215.073 78.717C213.883 79.327 212.577 79.493 211.25 79.51C209.542 79.533 207.872 79.39 206.234 78.798C204.597 78.206 202.901 77.78 201.239 77.257C200.584 77.051 199.952 76.778 199.31 76.536C199.559 76.557 199.81 76.562 200.055 76.602C200.372 76.653 200.686 76.727 201 76.797C202.332 77.09 203.686 77.046 205.034 77.052C205.653 77.056 206.275 76.94 206.89 76.838C207.184 76.79 207.462 76.653 207.748 76.557C207.622 76.429 207.522 76.407 207.43 76.42C206.385 76.576 205.337 76.552 204.285 76.55C202.47 76.548 200.697 76.293 198.94 75.857C198.024 75.629 197.099 75.431 196.171 75.252C195.925 75.204 195.635 75.033 195.397 75.303C193.762 74.767 192.105 74.288 190.391 74.117C189.286 74.006 188.163 74.073 187.048 74.078C186.706 74.08 186.365 74.14 186.024 74.174C186.892 73.745 187.842 73.641 188.777 73.641C190.47 73.642 192.163 73.714 193.853 73.818C195.197 73.901 196.513 73.729 197.83 73.539C197.924 73.526 198.008 73.445 198.229 73.322C197.255 73.358 196.442 73.414 195.631 73.41C193.231 73.397 190.84 73.13 188.433 73.214C187.431 73.249 186.542 73.527 185.644 73.873C185.439 73.952 185.255 74.067 185.265 74.331C183.72 74.609 182.193 74.96 180.716 75.495C180.51 75.559 180.304 75.624 180.098 75.686C179.691 75.855 179.286 76.024 178.879 76.193C178.699 76.257 178.509 76.301 178.34 76.389C177.094 77.039 175.843 77.685 174.611 78.362C174.187 78.594 173.811 78.912 173.413 79.19C172.301 79.791 171.198 80.408 170.075 80.988C169.477 81.297 168.81 81.391 168.139 81.423C167.631 81.447 167.185 81.27 166.77 80.999C166.711 80.734 166.695 80.45 166.583 80.211C166.416 79.853 166.385 79.524 166.598 79.122C166.789 79.129 167 79.112 167.202 79.148C168.469 79.374 169.561 79.017 170.519 78.194C171.622 77.729 172.395 76.916 172.98 75.903C173.014 75.854 173.046 75.805 173.079 75.757C173.106 75.732 173.119 75.701 173.121 75.665C173.354 75.488 173.413 75.254 173.348 74.978C173.792 74.488 174.278 74.03 174.67 73.503C175.982 71.738 177.575 70.255 179.281 68.888C179.981 68.328 180.72 67.788 181.606 67.548C182.326 67.352 183.068 67.232 183.802 67.083C184.021 67.039 184.244 67.01 184.499 66.967C184.359 66.504 184.001 66.496 183.747 66.519C182.767 66.606 181.762 66.646 180.822 66.9C179.254 67.324 178.047 68.397 176.851 69.434C175.603 70.515 174.538 71.772 173.506 73.056C173.329 73.276 173.051 73.415 172.82 73.592L172.817 73.59C172.864 73.364 172.871 73.12 172.965 72.916C173.547 71.654 174.222 70.453 175.131 69.378C176.376 67.903 177.889 66.783 179.585 65.893C180.809 65.25 182.158 64.955 183.497 64.692C185.16 64.364 186.859 64.282 188.558 64.332C188.836 64.34 189.114 64.347 189.391 64.346C189.926 64.343 190.466 64.285 190.995 64.334C192.638 64.484 194.275 64.688 195.917 64.841C197.303 64.971 198.692 65.063 200.08 65.164C201.809 65.29 203.54 65.409 205.269 65.532C207.105 65.662 208.949 65.612 210.78 65.863C211.096 65.905 211.439 65.75 211.77 65.686L211.773 65.681ZM175.545 75.71C175.88 75.482 176.21 75.247 176.551 75.026C178.823 73.551 181.213 72.338 183.913 71.833C184.164 71.778 184.414 71.722 184.665 71.668C183.651 71.414 182.66 71.372 181.665 71.514C182.198 71.315 182.718 71.011 183.269 70.938C185.028 70.703 186.78 70.239 188.582 70.576C188.875 70.631 189.162 70.634 189.451 70.482C189.175 70.175 189.173 70.18 188.939 70.095C186.916 69.371 184.859 69.506 182.832 69.972C180.809 70.436 178.928 71.259 177.292 72.576C176.169 73.48 175.089 74.406 174.348 75.675C174.029 76.223 173.581 76.696 173.194 77.206C173.062 77.38 172.938 77.558 172.809 77.735C172.845 77.762 172.881 77.791 172.917 77.819C173.663 77.433 174.17 76.767 174.765 76.203C175.024 76.039 175.284 75.875 175.544 75.711L175.545 75.71Z" fill="#F8D46A"/>
<path d="M172.822 73.589C173.053 73.413 173.332 73.275 173.508 73.054C174.54 71.77 175.605 70.515 176.853 69.432C178.049 68.395 179.255 67.322 180.824 66.898C181.765 66.643 182.769 66.603 183.749 66.517C184.003 66.494 184.361 66.502 184.501 66.965C184.245 67.007 184.022 67.036 183.803 67.081C183.07 67.23 182.329 67.349 181.607 67.545C180.722 67.786 179.983 68.326 179.283 68.886C177.575 70.253 175.983 71.736 174.672 73.501C174.28 74.029 173.794 74.486 173.35 74.976C173.204 75.148 173.058 75.318 172.912 75.49C172.553 75.828 172.205 76.179 171.831 76.498C171.48 76.797 171.071 76.971 170.522 76.911C170.354 75.965 170.197 75.027 170.373 74.066C170.606 72.796 171.037 71.583 171.613 70.438C172.395 68.884 173.36 67.447 174.671 66.266C175.619 65.41 176.666 64.718 177.849 64.224C179.659 63.468 181.493 62.838 183.494 62.767C186.015 62.676 188.531 62.719 191.041 62.924C192.927 63.078 194.802 63.356 196.685 63.544C197.947 63.671 199.222 63.69 200.48 63.848C202.399 64.09 204.308 64.412 206.222 64.702C207.072 64.83 207.921 64.961 208.771 65.089C209.662 65.224 210.554 65.354 211.443 65.499C211.561 65.519 211.664 65.62 211.772 65.683C211.442 65.747 211.098 65.902 210.782 65.859C208.951 65.609 207.106 65.659 205.27 65.529C203.54 65.406 201.811 65.287 200.081 65.161C198.693 65.059 197.304 64.968 195.919 64.838C194.277 64.685 192.64 64.481 190.997 64.331C190.466 64.282 189.927 64.339 189.392 64.342C189.115 64.344 188.837 64.337 188.56 64.329C186.861 64.278 185.162 64.361 183.499 64.688C182.161 64.952 180.81 65.247 179.586 65.889C177.89 66.78 176.377 67.899 175.132 69.375C174.225 70.449 173.55 71.65 172.967 72.913C172.873 73.117 172.866 73.361 172.819 73.586C172.788 73.678 172.758 73.768 172.727 73.86C172.719 73.876 172.71 73.893 172.7 73.91C172.708 73.892 172.714 73.873 172.721 73.855C172.754 73.766 172.788 73.678 172.822 73.589Z" fill="#E3A41D"/>
<path d="M198.489 67.813C197.033 67.421 195.569 67.112 194.045 67.262C193.084 67.357 192.115 67.382 191.161 67.516C190.144 67.659 189.141 67.895 188.13 68.084C187.95 68.118 187.767 68.129 187.585 68.151C187.567 68.108 187.551 68.065 187.534 68.022C187.662 67.94 187.779 67.823 187.92 67.782C189.277 67.393 190.622 66.94 192.003 66.653C194.118 66.215 196.25 66.077 198.385 66.68C199.456 66.981 200.566 67.153 201.657 67.38C202.498 67.555 203.343 67.712 204.18 67.901C206.403 68.404 208.65 68.729 210.925 68.862C211.908 68.919 212.891 69.012 213.875 69.042C214.859 69.073 215.847 69.086 216.83 69.034C218.116 68.965 219.407 68.887 220.679 68.7C221.819 68.533 222.936 68.219 224.061 67.958C224.581 67.837 225.121 67.743 225.604 67.529C226.303 67.221 226.956 66.812 227.632 66.451C227.758 66.384 227.902 66.345 228.037 66.293C228.29 66.508 228.381 66.276 228.453 66.118C228.539 65.932 228.572 65.722 228.629 65.522C229.056 65.77 229.144 65.997 228.944 66.45C228.712 66.971 228.327 67.372 227.862 67.696C227.133 68.207 226.317 68.544 225.468 68.779C222.892 69.494 220.274 69.98 217.59 70.05C216.107 70.088 214.62 70.215 213.142 70.156C210.911 70.068 208.675 69.93 206.477 69.49C204.562 69.105 202.659 68.663 200.75 68.248C200.373 68.166 199.993 68.099 199.614 68.025C199.24 67.953 198.865 67.88 198.49 67.809L198.489 67.813Z" fill="#FCF8D5"/>
<path d="M228.627 65.524C228.57 65.725 228.538 65.934 228.451 66.12C228.378 66.276 228.289 66.509 228.035 66.295C227.77 65.816 227.342 65.553 226.828 65.419C225.94 65.188 225.066 64.845 224.119 65.07C223.854 64.843 223.553 64.921 223.257 64.969C221.273 65.286 219.281 65.342 217.28 65.148C216.601 65.081 215.918 65.041 215.236 64.989C215.234 64.947 215.231 64.905 215.228 64.862C215.63 64.776 216.031 64.669 216.438 64.607C217.777 64.402 219.118 64.203 220.46 64.018C221.996 63.805 223.539 63.681 225.091 63.822C226.157 63.917 227.163 64.209 228.025 64.868C228.258 65.045 228.428 65.304 228.627 65.524Z" fill="#DB9F1E"/>
<path d="M170.522 78.192C169.565 79.015 168.474 79.372 167.206 79.146C167.004 79.11 166.792 79.127 166.601 79.121C166.388 79.523 166.42 79.852 166.586 80.209C166.698 80.45 166.715 80.734 166.774 80.998C166.096 80.7 165.5 80.307 165.118 79.65C164.795 79.095 164.791 78.467 165.088 78.097C165.316 77.81 165.589 77.712 165.937 77.82C166.183 77.896 166.427 77.977 166.668 78.064C167.94 78.521 169.225 78.568 170.523 78.193L170.522 78.192Z" fill="#DB9D1B"/>
<path d="M195.401 75.301C195.639 75.031 195.928 75.202 196.175 75.25C197.102 75.43 198.026 75.629 198.943 75.856C200.7 76.291 202.472 76.548 204.288 76.548C205.341 76.55 206.39 76.574 207.433 76.418C207.527 76.405 207.625 76.426 207.751 76.555C207.465 76.651 207.187 76.788 206.893 76.836C206.278 76.936 205.656 77.053 205.037 77.051C203.689 77.043 202.335 77.087 201.003 76.795C200.689 76.726 200.376 76.651 200.059 76.6C199.814 76.56 199.562 76.555 199.313 76.534C198.159 76.195 197.004 75.859 195.851 75.513C195.694 75.466 195.549 75.373 195.399 75.301H195.401Z" fill="#FCF6CD"/>
<path d="M185.269 74.328C185.259 74.064 185.442 73.949 185.649 73.871C186.546 73.525 187.435 73.247 188.437 73.212C190.844 73.128 193.235 73.394 195.635 73.408C196.447 73.412 197.258 73.355 198.234 73.32C198.014 73.443 197.929 73.523 197.834 73.537C196.516 73.727 195.201 73.898 193.857 73.816C192.168 73.712 190.474 73.639 188.782 73.639C187.846 73.639 186.896 73.744 186.028 74.172C185.775 74.223 185.522 74.276 185.269 74.328Z" fill="#FEFBD3"/>
<path d="M173.417 79.187C173.815 78.909 174.192 78.592 174.616 78.359C175.848 77.682 177.098 77.036 178.345 76.386C178.512 76.298 178.703 76.255 178.883 76.191C178.885 76.24 178.887 76.287 178.888 76.336C177.165 77.258 175.442 78.181 173.717 79.1C173.627 79.148 173.518 79.16 173.417 79.188V79.187Z" fill="#EDDDD2"/>
<path d="M178.888 76.334C178.886 76.287 178.885 76.239 178.883 76.19C179.29 76.021 179.696 75.852 180.103 75.683C180.16 75.682 180.217 75.683 180.274 75.682C179.813 75.899 179.351 76.116 178.888 76.334Z" fill="#DBC0AD"/>
<path d="M198.489 67.813C198.863 67.885 199.238 67.957 199.613 68.029C199.53 68.083 199.446 68.135 199.363 68.188C199.072 68.063 198.78 67.937 198.489 67.812V67.813Z" fill="#4D3B24"/>
<path d="M172.912 75.49C173.058 75.318 173.204 75.146 173.35 74.976C173.414 75.252 173.356 75.487 173.122 75.663C173.052 75.605 172.983 75.548 172.912 75.49Z" fill="#5C471E"/>
<path d="M180.274 75.682C180.217 75.683 180.16 75.683 180.102 75.684C180.308 75.62 180.514 75.556 180.72 75.493C180.572 75.556 180.423 75.619 180.274 75.682Z" fill="#D3B09D"/>
<path d="M174.765 76.204C174.17 76.767 173.663 77.433 172.918 77.82C172.882 77.792 172.846 77.763 172.809 77.735C172.937 77.56 173.061 77.381 173.194 77.207C173.581 76.698 174.029 76.224 174.348 75.676C175.089 74.407 176.169 73.481 177.292 72.577C178.928 71.26 180.809 70.436 182.832 69.973C184.859 69.507 186.916 69.371 188.939 70.096C189.174 70.18 189.175 70.176 189.451 70.483C189.163 70.634 188.876 70.632 188.582 70.577C186.78 70.239 185.028 70.704 183.269 70.939C182.717 71.012 182.198 71.316 181.665 71.514C181.327 71.626 180.989 71.74 180.652 71.851C180.262 72.025 179.859 72.174 179.485 72.377C177.907 73.23 176.574 74.396 175.294 75.629C175.118 75.821 174.942 76.012 174.765 76.204Z" fill="#FDFAD6"/>
<path d="M175.294 75.629C176.574 74.395 177.907 73.228 179.485 72.377C179.859 72.175 180.262 72.025 180.652 71.851C181.241 71.788 181.829 71.681 182.418 71.674C182.916 71.668 183.415 71.776 183.912 71.834C181.21 72.339 178.822 73.552 176.55 75.027C176.209 75.249 175.879 75.483 175.544 75.711C175.46 75.683 175.377 75.657 175.294 75.629Z" fill="#16120B"/>
<path d="M183.912 71.832C183.414 71.775 182.915 71.666 182.419 71.672C181.83 71.68 181.241 71.787 180.652 71.85C180.99 71.738 181.328 71.625 181.666 71.513C182.66 71.371 183.652 71.413 184.665 71.668C184.414 71.723 184.164 71.778 183.912 71.832Z" fill="#795A2E"/>
<path d="M175.294 75.629C175.378 75.657 175.461 75.684 175.543 75.712C175.283 75.876 175.024 76.04 174.763 76.205C174.94 76.012 175.116 75.821 175.293 75.629H175.294Z" fill="#5F5334"/>
<path d="M172.728 73.86C172.758 73.769 172.789 73.679 172.819 73.587L172.822 73.589C172.788 73.677 172.754 73.767 172.721 73.855L172.728 73.86Z" fill="#F8D46A"/>
<path d="M172.721 73.855C172.714 73.874 172.708 73.893 172.701 73.911C172.709 73.895 172.718 73.878 172.728 73.861L172.721 73.855Z" fill="#F8D46A"/>
</g>
<path d="M241.954 88.443C241.954 62.997 221.009 42.3691 195.172 42.3691C169.335 42.3691 148.39 62.997 148.39 88.443C148.39 113.888 169.335 134.516 195.172 134.516C221.009 134.516 241.954 113.888 241.954 88.443Z" stroke="#0D0E34" stroke-width="3"/>
</g>
<path d="M361.573 44.6842L357.887 34L354.57 44.6842H343.144L352.359 51.3158L348.673 62L357.887 55.368L367.102 62L363.785 51.3158L373 44.6842H361.573Z" fill="white"/>
<path d="M283.43 44.6842L279.744 34L276.427 44.6842H265L274.215 51.3158L270.529 62L279.744 55.368L288.959 62L285.642 51.3158L294.856 44.6842H283.43Z" fill="white"/>
<path d="M322.501 44.6842L318.815 34L315.498 44.6842H304.071L313.286 51.3158L309.6 62L318.815 55.368L328.03 62L324.713 51.3158L333.928 44.6842H322.501Z" fill="white"/>
<path d="M112.468 44.6842L108.748 34L105.399 44.6842H93.8669L103.167 51.3158L99.4469 62L108.748 55.368L118.048 62L114.7 51.3158L124 44.6842H112.468Z" fill="white"/>
<path d="M33.6006 44.6842L29.8804 34L26.5324 44.6842H15L24.3003 51.3158L20.5802 62L29.8804 55.368L39.1807 62L35.8326 51.3158L45.1329 44.6842H33.6006Z" fill="white"/>
<path d="M73.0336 44.6842L69.3135 34L65.9654 44.6842H54.433L63.7333 51.3158L60.0132 62L69.3135 55.368L78.6137 62L75.2656 51.3158L84.566 44.6842H73.0336Z" fill="white"/>
<defs>
<filter id="filter0_d_3_86" x="146.89" y="40.8691" width="96.564" height="96.1469" filterUnits="userSpaceOnUse" color-interpolation-filters="sRGB">
<feFlood flood-opacity="0" result="BackgroundImageFix"/>
<feColorMatrix in="SourceAlpha" type="matrix" values="0 0 0 0 0 0 0 0 0 0 0 0 0 0 0 0 0 0 127 0" result="hardAlpha"/>
<feOffset dy="1"/>
<feComposite in2="hardAlpha" operator="out"/>
<feColorMatrix type="matrix" values="0 0 0 0 0 0 0 0 0 0 0 0 0 0 0 0 0 0 0.25 0"/>
<feBlend mode="normal" in2="BackgroundImageFix" result="effect1_dropShadow_3_86"/>
<feBlend mode="normal" in="SourceGraphic" in2="effect1_dropShadow_3_86" result="shape"/>
</filter>
<filter id="filter1_d_3_86" x="170.662" y="73.134" width="47.6049" height="47.9155" filterUnits="userSpaceOnUse" color-interpolation-filters="sRGB">
<feFlood flood-opacity="0" result="BackgroundImageFix"/>
<feColorMatrix in="SourceAlpha" type="matrix" values="0 0 0 0 0 0 0 0 0 0 0 0 0 0 0 0 0 0 127 0" result="hardAlpha"/>
<feOffset dy="1"/>
<feComposite in2="hardAlpha" operator="out"/>
<feColorMatrix type="matrix" values="0 0 0 0 0.101961 0 0 0 0 0.0862745 0 0 0 0 0.313726 0 0 0 0.44 0"/>
<feBlend mode="normal" in2="BackgroundImageFix" result="effect1_dropShadow_3_86"/>
<feBlend mode="normal" in="SourceGraphic" in2="effect1_dropShadow_3_86" result="shape"/>
</filter>
</defs>
</svg>
